<?xml version="1.0" encoding="UTF-8"?>
<svg id="Vrstva_1" data-name="Vrstva 1" xmlns="http://www.w3.org/2000/svg" viewBox="0 0 500 500">
  <defs>
    <style>
      .cls-1 {
        fill: #ff3e3e;
      }

      .cls-1, .cls-2 {
        stroke-width: 0px;
      }

      .cls-2 {
        fill: #ffd710;
      }
    </style>
  </defs>
  <path class="cls-1" d="M446.23,318.05h0c-.94,0-1.93.14-3.02.41-.85.22-1.75.52-2.6.89-.54.21-1.04.39-1.47.53.09-.55.21-1.14.38-1.76l.05-.21c.34-1.47.64-2.74.89-3.83.26-1.1.44-1.97.55-2.59.06-.03.11-.05.15-.07.25-.1.49-.2.6-.26.24-.1.48-.2.6-.26.23-.09.44-.18.65-.28.22-.09.43-.18.55-.24.23-.09.44-.18.65-.28.23-.09.44-.18.55-.24.24-.1.48-.2.6-.26.23-.09.44-.18.65-.28.22-.09.43-.18.55-.24.25-.1.48-.2.6-.26.24-.1.48-.2.6-.26,2.83-1.12,4.55-3.01,5.49-4.4,1.86-2.73,2.75-6.3,2.73-10.91-.02-4.01-1.85-6.42-3.39-7.75-1.33-1.15-2.94-1.91-4.78-2.27.27-.76.49-1.48.65-2.14.24-.99.37-1.92.38-2.75.18-2.91-.88-5.59-3.01-7.56-1.9-1.75-4.32-2.67-7.07-2.67-2.47.01-5.16.9-8.44,2.77l-5.87,3.22c-.16.09-.32.18-.45.25l-3.01,1.65c-.16.08-.31.17-.44.24l-3.01,1.65c-.16.08-.31.17-.43.24l-.15.08c-.15.08-.3.16-.51.28-.17.09-.34.18-.49.27l-1.87,1.02c-.16.08-.31.17-.43.24l-1.39.76c1.26-2.32,1.9-4.82,1.89-7.51-.02-4.6-1.79-8.58-5.13-11.5-3.11-2.72-7.08-4.09-11.9-4.09-4.74.02-9.01,1.38-12.65,4.01l-.16.11c-.13.08-.25.16-.34.22l-.16.1c-.13.09-.27.17-.33.22l-.16.1c-.13.08-.27.17-.35.23l-.16.11c-.13.08-.25.16-.34.22l-.16.11c-.13.08-.25.16-.33.22l-.16.1c-.13.08-.26.17-.34.22l-.16.1c-.13.08-.26.17-.35.23l-.16.11c-.13.08-.25.16-.34.22l-.16.11c-.13.08-.26.17-.33.22l-.16.1c-.13.08-.26.17-.35.23l-.16.11c-.13.08-.26.16-.33.22l-.16.1c-.13.08-.26.17-.34.23l-.16.1c-.13.08-.26.17-.35.23l-.16.11c-.13.08-.26.16-.34.22l-.16.11c-.13.08-.25.16-.33.22l-.16.1c-.13.08-.26.17-.35.23l-.16.1c-.13.08-.26.17-.34.23l-.16.11c-.13.08-.26.17-.33.22l-.16.1c-.13.08-.27.17-.35.23l-.16.11c-.13.08-.26.16-.33.22l-.16.11c-.13.08-.26.16-.33.22l-.16.1c-.13.08-.26.17-.35.23l-.16.11c-.13.08-.25.16-.34.22l-.17.11c-.12.08-.25.16-.33.22l-.16.11c-.13.08-.25.16-.33.22l-.16.1c-.13.08-.26.17-.35.23l-.16.11c-.13.08-.26.17-.33.22l-.16.1c-.13.08-.26.17-.34.22l-.16.1c-.13.08-.27.17-.35.23l-.16.11c-.13.08-.26.17-.33.22l-.16.1c-.13.08-.27.17-.34.23l-.16.1c-.13.08-.27.17-.35.23l-.16.11c-.13.08-.26.16-.33.22l-.16.11c-.13.08-.26.16-.33.22l-.16.1c-.13.08-.26.17-.35.23l-.16.11c-.13.08-.26.16-.33.22l-.16.11c-.13.08-.26.16-.33.22l-.16.1c-.13.08-.26.17-.35.23l-.16.11c-.13.08-.26.16-.34.22l-.16.11c-.13.08-.26.16-.33.22l-.16.1c-.13.08-.26.17-.35.23l-.16.11c-.13.08-.26.16-.33.22l-.16.11c-.13.08-.25.16-.34.23l-.16.11c-.13.08-.26.17-.34.23l-.16.11c-.13.08-.26.17-.33.22l-.16.1c-.13.08-.26.17-.34.23l-.16.1c-.13.08-.26.17-.34.22l-.15.1c-.14.09-.28.18-.35.23l-.16.1c-.13.08-.26.17-.34.23l-.16.11c-.13.08-.26.17-.34.23l-.16.1c-.13.08-.26.17-.33.22l-.16.1c-.13.08-.27.17-.35.23l-.16.11c-.13.08-.26.17-.33.22l-.16.1c-.13.08-.27.17-.34.23l-.16.1c-.13.08-.26.17-.35.23l-.16.11c-.13.08-.26.17-.33.22l-.15.1c-.14.09-.28.18-.34.23l-.15.1c-.14.09-.28.18-.36.24l-.16.11c-.13.08-.26.16-.33.22l-.16.1c-.13.08-.26.17-.34.22l-.15.1c-.14.09-.27.18-.35.23l-.16.1c-.13.08-.26.17-.34.22l-.16.1c-.13.08-.27.17-.34.23l-.16.1c-.13.08-.27.17-.35.23l-.16.11c-.13.08-.26.17-.33.22l-.16.1c-.13.08-.27.17-.34.23l-.16.1c-.13.08-.27.17-.35.23l-.16.11c-.13.08-.26.17-.33.22l-.15.1c-.14.09-.27.18-.34.23l-.15.1c-.14.09-.28.18-.35.23l-.16.1c-.13.08-.27.17-.35.23l-.16.1c-.13.08-.27.17-.34.23l-.16.1c-.13.08-.26.17-.35.23l-.16.11c-.11.07-.22.14-.3.2-.98-.62-1.95-1.13-2.93-1.55-2.97-1.25-6.2-1.89-9.72-1.89-6.43.03-12.49,2.19-17.97,6.42l-.13.1c-.09.07-.19.13-.26.19l-.53.38c-.09.07-.19.13-.25.18l-.54.39c-.09.07-.19.13-.25.18l-2.09,1.53c-.09.07-.19.13-.25.18l-1.3.95c-.1.07-.19.14-.26.19l-.53.39c-.09.06-.18.13-.25.18l-.14.1c-.09.07-.19.13-.25.18l-1.32.96c-.09.07-.19.13-.25.18l-.52.38c-.1.07-.19.14-.27.19l-1.3.95c-.1.07-.19.14-.26.19l-2.87,2.1c-.1.07-.19.14-.25.19l-.91.67c-.1.07-.19.14-.27.19l-.52.38c-.1.07-.19.14-.27.19l-.53.39c-.06.04-.12.08-.17.12-.22-1.05-.5-2.02-.85-2.94l2.86-2.19c2.76-2.04,5.06-4.58,6.83-7.54,2.38-3.98,3.58-8.32,3.56-12.9,0-2.34-.36-4.61-1.04-6.77.08-.07.16-.14.24-.21.14-.11.27-.22.4-.34.14-.11.27-.22.4-.34.14-.11.27-.22.4-.34.14-.11.27-.22.4-.35.14-.11.27-.22.4-.34.14-.11.27-.22.4-.34.14-.11.27-.22.4-.34.14-.11.27-.22.4-.34.14-.11.27-.22.4-.34.14-.11.27-.22.4-.34.14-.11.27-.22.4-.34.14-.11.27-.22.4-.34.14-.11.27-.22.4-.34.14-.11.27-.22.4-.34.14-.11.27-.22.4-.34.14-.11.27-.22.4-.34.14-.11.27-.22.4-.34.14-.11.27-.22.4-.34.14-.11.27-.22.4-.34.14-.11.27-.22.4-.34.14-.11.27-.22.4-.34.14-.11.27-.22.4-.34.14-.11.27-.22.4-.34.14-.11.27-.22.4-.34.14-.11.27-.22.4-.34.14-.11.27-.22.4-.34.14-.11.27-.22.4-.34.14-.11.27-.22.4-.34.14-.11.27-.23.4-.35.14-.11.27-.22.4-.34.14-.11.27-.22.4-.34.14-.11.27-.22.4-.34,1.26-.97,2.16-2.36,2.51-3.91l.95-4.12.11-.09c.13-.11.25-.22.38-.33l.53-.47c.12-.1.25-.21.37-.32l.07-.07c.12-.1.24-.2.36-.31l.11-.09c.12-.1.25-.21.37-.32l.08-.07c.12-.1.23-.2.35-.31l1.02-.89c.11-.1.23-.2.34-.3l.11-.09c.12-.1.24-.2.36-.31l.1-.09c.12-.1.24-.2.36-.31l.11-.09c.12-.1.24-.2.35-.31l.1-.09c.12-.1.23-.2.34-.3l1.47-1.29c.12-.1.25-.21.37-.32l.09-.08c.13-.11.25-.22.38-.33l.08-.07c.12-.1.23-.2.34-.3l2.84-2.49c.12-.1.23-.2.35-.3l1.47-1.29c.13-.1.25-.21.37-.32l.08-.07c.11-.09.23-.19.34-.3l.12-.11c.12-.1.23-.2.34-.3l.11-.1c.12-.1.24-.21.36-.31l.09-.08c.11-.1.23-.2.34-.3l.57-.5c.12-.1.23-.2.35-.3l.11-.09c.11-.09.22-.19.33-.29l.58-.51c.12-.1.23-.2.35-.3l.11-.09c.12-.1.23-.2.35-.31l1.47-1.29c.13-.1.25-.21.37-.32l.08-.07c.12-.1.24-.2.36-.31l.11-.09c.11-.1.23-.2.34-.3l.11-.1c.12-.1.24-.21.36-.31l.09-.08c.12-.1.23-.2.34-.3l.11-.09c.11-.09.22-.19.33-.29l.59-.51c.11-.09.22-.19.33-.29l.11-.1c.11-.09.23-.19.34-.3l.12-.11c.11-.09.22-.19.33-.29l1.48-1.3c.11-.09.23-.19.34-.3l.12-.11c.11-.09.21-.18.31-.27l.14-.13c.12-.1.24-.2.35-.31l.1-.09c.12-.1.23-.2.35-.3l1.47-1.29c.11-.09.22-.19.33-.29l1.5-1.31c2.25-1.88,4.38-4.2,6.34-6.9,5.84-8.05,8.78-17.55,8.74-28.25-.03-6.95-2.12-12.78-6.21-17.32-4.27-4.74-9.78-7.14-16.49-7.14-1.18,0-2.32.06-3.4.18-.59.07-1.19.16-1.79.28-.63-2.5-2.07-4.7-4.19-6.35-2.62-2.03-5.96-3.06-10.02-3.06-1.09,0-2.19.06-3.27.18-1.21.13-2.43.38-3.54.71-2.52.61-5.06,1.65-7.54,3.1-2.19,1.28-4.64,2.94-7.27,4.93-.5.38-.96.86-1.4,1.47-.14.16-.26.32-.38.49-.14.16-.26.32-.38.49-.13.16-.26.32-.38.49-.13.16-.26.32-.38.49-.13.16-.26.32-.38.49-.14.16-.26.32-.38.49-.13.16-.26.32-.38.48-.13.16-.26.32-.38.49-.14.16-.26.32-.38.49-.13.16-.26.32-.38.49-.13.16-.26.32-.38.49-.14.16-.26.32-.38.49-.13.16-.26.32-.38.49-.13.16-.26.32-.38.49-.13.16-.26.32-.38.49-.09.11-.18.22-.27.33-.93-1.67-2.16-3.16-3.68-4.46-3.49-2.99-7.86-4.5-13.09-4.5-1.69,0-3.38.16-5.03.45-1.65.29-3.28.73-4.86,1.3-2.14.76-4.31,1.79-6.46,3.06-.03.02-.06.03-.09.05-.64-.61-1.33-1.16-2.07-1.67-3.11-2.12-6.92-3.2-11.45-3.2-1.15,0-2.31.06-3.46.17-1.37.14-2.72.41-4.01.8-2.26.69-4.62,1.76-7.01,3.18-.11.06-.21.13-.32.19-.02-.02-.03-.03-.05-.05-2.64-2.61-6.06-3.94-10.26-3.94-1.86,0-3.77.22-5.7.62-1.95.41-3.91,1.07-5.72,1.92-1.96.79-3.86,1.8-5.65,3-1.63,1.1-3.29,2.34-4.92,3.7-.89.73-1.58,1.68-2,2.75-.03.07-.07.14-.1.21-.14-1.44-.5-2.8-1.05-4.07v-.02c.07-.14.13-.28.15-.35l.06-.14c.06-.14.13-.29.16-.36l.07-.15c.06-.14.12-.28.15-.34l.06-.14c.06-.14.13-.28.15-.35l.06-.14c.06-.14.13-.28.15-.36l.07-.15c.06-.14.12-.28.15-.35l.06-.15c.06-.14.12-.27.15-.34l.06-.14c.06-.14.13-.28.15-.36l.06-.15c.06-.14.13-.28.14-.34l.06-.14c.06-.14.13-.29.16-.36l.07-.15c.06-.14.12-.28.15-.34l.06-.14c.06-.14.13-.28.15-.35l.06-.14c.06-.14.13-.28.15-.36l.07-.15c.06-.13.12-.27.14-.34l.06-.14c.06-.14.13-.28.15-.36l.07-.15c.06-.14.12-.28.15-.34l.07-.15c.06-.14.12-.27.15-.35l.07-.15c.06-.14.12-.28.15-.35l.07-.15c.06-.14.12-.28.15-.34l.06-.14c.06-.14.13-.28.15-.36l.06-.15c.06-.14.12-.28.15-.35l.07-.15c.06-.13.12-.27.14-.34.81-1.94,1.22-3.97,1.21-6.05-.02-4.6-1.79-8.58-5.13-11.5-3.11-2.72-7.08-4.09-11.9-4.09-5.43.02-10.21,1.79-14.21,5.25-1.06.92-2,1.9-2.81,2.94-.17-.28-.34-.56-.52-.84,0,0,0,0,0,0,.06-.19.12-.39.18-.57.06-.18.12-.37.16-.54.06-.19.12-.37.17-.54.06-.19.12-.38.18-.57.06-.18.12-.36.16-.52.06-.19.12-.38.18-.58.06-.18.12-.36.17-.56.06-.17.11-.35.16-.53.06-.18.12-.36.17-.55.06-.18.11-.36.17-.54.06-.18.12-.36.17-.56.06-.18.12-.36.16-.54.06-.18.12-.36.17-.55.06-.18.12-.36.17-.55.06-.18.11-.36.16-.51.06-.19.12-.38.19-.61.05-.17.11-.34.16-.52.06-.18.12-.36.18-.56.04-.12.08-.24.09-.28.07-.22.14-.44.18-.57.07-.21.13-.42.17-.55.07-.21.14-.43.17-.55.07-.21.14-.42.17-.54.07-.22.14-.43.17-.55.07-.21.14-.43.17-.55.07-.21.14-.43.17-.55.07-.21.14-.43.17-.55.07-.21.13-.42.17-.55.07-.21.14-.43.17-.55.07-.21.14-.42.17-.55.07-.21.14-.43.17-.55.07-.22.14-.43.17-.55.48-1.46.72-2.98.72-4.5-.02-4.53-2-8.33-5.72-11-3.05-2.18-6.86-3.28-11.44-3.28-6.83.03-13.35,1.91-19.37,5.59-4.9,2.99-9.65,7.32-14.13,12.86-14.85.17-27.88,3.62-38.74,10.24-12.16,7.42-18.3,16.71-18.26,27.63v.23c0,.08,0,.17,0,.24v.25c0,.08,0,.17,0,.24v.25s0,.25,0,.25v.24s0,.25,0,.25v.24s0,.23,0,.23v.25c0,.08,0,.17,0,.24v.25c0,.08,0,.17,0,.26v.23s0,.23,0,.23v.25c0,.08,0,.17,0,.24v.25c0,.08,0,.17,0,.24v.25s0,.25,0,.25v.24s0,.25,0,.25v.23c0,.08,0,.17,0,.24v.25c0,.08,0,.17,0,.26v.24s0,.25,0,.25v.23s0,.23,0,.23v.25c0,.08,0,.17,0,.24v.25c0,.08,0,.17,0,.24v.25s0,.01,0,.01c-6.95,1.64-13.28,5.04-18.83,10.09-8.33,7.6-12.53,16.67-12.49,26.94,0,1.21.08,2.46.23,3.68l4.93,40.53c.67,6.65,3.75,12.36,9.16,16.98,5.83,4.98,13.01,7.51,21.35,7.51h.15c5-.02,9.75-.76,14.15-2.19l-1.93,18.69c-.08.74-.12,1.41-.11,2.07.02,4.76,1.82,8.75,5.36,11.85,3.29,2.88,7.41,4.35,12.33,4.35h0c5.57-.02,10.49-1.73,14.61-5.09,1.72-1.4,3.24-3.05,4.53-4.92.96.42,2.01.64,3.14.64.64,0,1.24-.07,1.82-.2.67-.15,1.32-.4,1.89-.72.09.15.19.29.29.43,1.97,2.79,4.93,4.32,8.36,4.32.36,0,.7-.02,1.02-.06.25,0,.5-.03.73-.07,2.37-.37,4.57-1.36,6.57-2.95,1.96,1.78,4.39,2.71,7.11,2.71.78,0,1.51-.08,2.26-.25.46-.11.92-.23,1.39-.37.1-.03.2-.07.3-.1.7-.25,1.37-.56,2.02-.93.36.22.73.41,1.11.59h-.1c.01,3.25,1.36,6.04,3.89,8.09,1.86,1.5,4.08,2.37,6.65,2.58l-11.73,16.73c-3.43,4.87-5.16,10.33-5.13,16.2.03,7.78,3.06,14.47,8.99,19.89,5.75,5.26,12.78,7.92,20.9,7.92h.15c9.42-.04,17.95-2.71,25.33-7.94l17.49-12.09c.52.84,1.13,1.62,1.81,2.34,2.75,2.91,6.27,4.44,10.19,4.44.8,0,1.57-.06,2.44-.17.83-.11,1.64-.27,2.3-.46,2.45-.55,4.85-1.56,7.2-3.05.1-.05.19-.11.36-.21.09-.05.17-.1.34-.2.09-.05.19-.11.35-.2.09-.05.19-.11.35-.21.09-.05.17-.1.34-.2.1-.05.19-.11.35-.2.09-.05.19-.11.35-.2.09-.05.19-.11.35-.2.09-.05.19-.11.34-.2.09-.05.19-.11.35-.2.09-.05.19-.11.36-.21.09-.05.17-.1.34-.2.09-.05.19-.11.35-.2.1-.05.19-.11.34-.19.1-.05.19-.11.36-.21.09-.05.19-.11.35-.2.09-.05.18-.1.34-.2.09-.05.19-.11.35-.2.09-.05.19-.11.33-.19.1-.05.19-.11.36-.21.09-.05.19-.11.35-.2.09-.05.18-.1.35-.2.09-.05.18-.1.34-.2.09-.05.18-.1.31-.18.52.92,1.09,1.78,1.72,2.57,3.27,4.08,7.66,6.24,12.77,6.24,1.09,0,2.19-.13,3.28-.37.81-.19,1.66-.41,2.51-.67.1-.03.2-.06.3-.1.74-.27,1.49-.6,2.26-.98.15-.07.3-.14.42-.21l.39-.19c.15-.07.3-.14.42-.21l.39-.19c.15-.07.3-.15.41-.2.15-.07.3-.15.41-.2.15-.07.3-.14.41-.2.15-.07.3-.14.4-.2l.42-.2c.15-.07.3-.14.4-.19l1.36-.66c.1.11.21.21.31.31,2.54,2.47,5.69,3.85,9.41,4.11-.41.54-.74,1.16-.96,1.82-.27.84-.41,1.68-.4,2.5v.82c.02,4.82,2.03,8.98,5.8,12.02,3.42,2.75,7.7,4.15,12.82,4.15,2.87-.01,5.72-.49,8.45-1.42l48.7-15.69c1.2-.38,2.36-.83,3.45-1.32,4.19-1.89,7.75-4.64,10.56-8.13.58-.69,1.17-1.46,1.79-2.36l.1-.03c.13-.04.25-.08.39-.14l.18-.06c.13-.04.25-.08.4-.14l.17-.06c.13-.04.27-.09.42-.15l.19-.06c.12-.04.24-.08.38-.13l.18-.06c.13-.04.26-.08.41-.14l.17-.06c.13-.04.27-.09.42-.15l.19-.06c.12-.04.24-.08.38-.13l.17-.06c.13-.04.27-.09.42-.15l.19-.06c.12-.04.24-.08.39-.14l.19-.06c.12-.04.24-.08.38-.13l.18-.06c.13-.04.26-.08.42-.14l.18-.06c.13-.04.26-.08.4-.14l.18-.06c.13-.04.25-.08.41-.14l.18-.06c.13-.04.25-.08.4-.14l.19-.06c.12-.04.24-.08.38-.13l.18-.06c.13-.04.25-.08.41-.14l.18-.06c.13-.04.26-.08.4-.14l.19-.06c.12-.04.24-.08.38-.13l.17-.06c.13-.04.27-.09.42-.15l.18-.06c.13-.04.25-.08.4-.14l.19-.06c.12-.04.24-.08.38-.13l.18-.06c.13-.04.26-.08.42-.14l.18-.06c.13-.04.25-.08.39-.14l.18-.06c.13-.04.25-.08.41-.14l.18-.06c.13-.04.25-.08.4-.14l.19-.06c.12-.04.24-.08.39-.13l.18-.06c.13-.04.25-.08.41-.14l.18-.06c.13-.04.26-.08.41-.14l.19-.06c.12-.04.24-.08.39-.14l.18-.06c.13-.04.26-.08.4-.14l.19-.06c.12-.04.24-.08.39-.14l.19-.06c.12-.04.24-.08.39-.13l.17-.06c.13-.04.27-.09.42-.15l.19-.06c.12-.04.24-.08.38-.13l.18-.06c.13-.04.25-.08.41-.14l.19-.06c.12-.04.24-.08.39-.14l.19-.06c.12-.04.24-.08.39-.13l.18-.06c.13-.04.25-.08.41-.14l.18-.06c.13-.04.26-.08.41-.14l.19-.06c.12-.04.24-.08.39-.14l.18-.06c.13-.04.26-.08.41-.14l.19-.06c.12-.04.24-.08.4-.14l.19-.06c.12-.04.24-.08.39-.14l.18-.06c.13-.04.25-.08.4-.14l.19-.06c.12-.04.24-.08.4-.14l.18-.06c.13-.04.26-.08.4-.14l.19-.06c.12-.04.24-.08.4-.14l.19-.06c.12-.04.24-.08.39-.14l.19-.06c.12-.04.24-.08.4-.14l.18-.06c.13-.04.26-.08.41-.14l.19-.06c.12-.04.24-.08.39-.14l.18-.06c.13-.04.26-.08.41-.14l.19-.06c.12-.04.24-.08.39-.14l.19-.06c.12-.04.24-.08.4-.14l.18-.06c.13-.04.26-.08.41-.14l.19-.06c.12-.04.24-.08.39-.14l.18-.06c.13-.04.25-.08.4-.14l.19-.06c.12-.04.24-.08.4-.14l.19-.06c.12-.04.24-.08.39-.14l.18-.06c.13-.04.26-.08.4-.14l.19-.06c.12-.04.24-.08.4-.14l.19-.06c.12-.04.24-.08.39-.14l.18-.06c.13-.04.25-.08.41-.14l.19-.06c.12-.04.24-.08.39-.14l.19-.06c.12-.04.24-.08.4-.14l.18-.06c.13-.04.26-.08.3-.1l.28-.1c.13-.04.25-.08.41-.14l.18-.06c.13-.04.25-.08.4-.14l.19-.06c.12-.04.24-.08.4-.14l.19-.06c.12-.04.24-.08.39-.14l.18-.06c.13-.04.26-.08.41-.14l.19-.06c.12-.04.24-.08.39-.14l.18-.06c.13-.04.26-.08.4-.14l.18-.06c.13-.04.25-.08.41-.14l.19-.06c.12-.04.24-.08.38-.13l.2-.07c.12-.04.25-.08.37-.13,2.68-.99,5.16-2.28,7.39-3.83.62-.35,1.19-.75,1.7-1.18.07-.06.14-.11.22-.17.14-.1.28-.2.42-.31,2.19-1.74,3.85-3.44,5.07-5.19,1.65-2.37,2.48-4.79,2.47-7.19-.01-3.23-1.44-5.32-2.64-6.5-1.7-1.69-3.9-2.58-6.35-2.58ZM177.63,323.05h0s0,0,0,0ZM168.29,309.56h.25s-.26.02-.26.02v-.02ZM168.01,336.76h0s0,0,0,0h0ZM221.99,366.59h0s0,0,0,0Z"/>
  <path class="cls-2" d="M136.17,135.75c4.62-6.19,9.42-10.79,14.39-13.8,4.97-3.01,10.24-4.51,15.83-4.51,3.05,0,5.51.68,7.39,2.03,1.87,1.35,2.81,3.16,2.81,5.43s-1.09,4.49-3.27,6.41c-2.18,1.92-4.67,2.88-7.46,2.88-.7,0-1.18-.07-1.44-.2-.26-.13-.52-.46-.78-.98-.09-.26-.18-.54-.26-.85-.09-.3-.18-.67-.26-1.11,0-.09-.04-.17-.13-.26-.18-.26-.48-.5-.92-.72-.44-.22-.87-.37-1.31-.46h-1.37c-.22,0-.42.05-.59.13-1.83.18-3.62.87-5.36,2.09-1.75,1.22-3.32,2.83-4.71,4.84,8.19,1.13,14.73,4.34,19.62,9.61,4.88,5.28,7.32,11.71,7.32,19.29,0,8.46-2.6,15.83-7.78,22.1-5.19,6.28-11.36,9.42-18.51,9.42-4.36,0-8.04-1.33-11.05-3.99-3.01-2.66-4.51-5.95-4.51-9.87v-1.05c.17-2.79.87-5.36,2.09-7.72,1.22-2.35,2.53-3.7,3.92-4.05h.78c.35,0,.65.09.92.26.26.18.48.44.65.78.09.18.17.37.26.59.09.22.17.46.26.72.26.7.7,1.27,1.31,1.7.61.44,1.26.65,1.96.65,2,0,3.86-1.2,5.56-3.6,1.7-2.4,2.64-5.04,2.81-7.91v-.78c0-3.57-1.13-6.65-3.4-9.22-2.27-2.57-5.32-4.25-9.16-5.04-1.31,3.14-2.33,5.6-3.07,7.39-.74,1.79-1.33,3.47-1.77,5.04-.09.26-.18.52-.26.78-.09.26-.18.48-.26.65-.09.26-.15.5-.2.72-.05.22-.11.42-.2.59-.52,1.66-1.07,3.55-1.63,5.69-.57,2.14-1.2,4.51-1.9,7.13l-2.62,10.46-1.18,5.36c-3.58,14.82-9.48,26.09-17.72,33.81-8.24,7.72-18.42,11.58-30.54,11.58-8.28,0-15.26-2.44-20.93-7.32-5.67-4.88-8.5-10.9-8.5-18.05,0-8.28,3.44-15.54,10.33-21.78,6.89-6.23,14.95-9.35,24.2-9.35,2.18,0,3.94.37,5.3,1.11,1.35.74,2.03,1.72,2.03,2.94v.65c-.09.26-.28.61-.59,1.05-.31.44-.89,1.22-1.77,2.35-.09.18-.2.37-.33.59-.13.22-.2.42-.2.59-.09.26-.15.5-.2.72-.05.22-.07.42-.07.59,0,1.66.7,3.1,2.09,4.32,1.39,1.22,3.05,1.83,4.97,1.83.78,0,1.55-.09,2.29-.26.74-.17,1.55-.39,2.42-.65,1.57-.61,3.12-1.46,4.64-2.55,1.52-1.09,2.86-2.37,3.99-3.86.52-.7,1.05-1.44,1.57-2.22s1-1.61,1.44-2.49c.78-1.31,1.55-2.88,2.29-4.71.74-1.83,1.59-4.01,2.55-6.54.87-2.27,1.55-4.1,2.03-5.49.48-1.39.98-2.62,1.5-3.66,0-.17.04-.33.13-.46.09-.13.13-.28.13-.46.61-1.48,1.37-3.16,2.29-5.04.92-1.87,2.24-4.69,3.99-8.44.09-.17.22-.5.39-.98.17-.48.44-1.02.78-1.63-.35.09-.65.15-.92.2-.26.05-.57.11-.92.2-1.57.26-2.88.57-3.92.92-1.05.35-2.05.78-3.01,1.31-.26.18-.5.31-.72.39-.22.09-.42.22-.59.39-.78.52-1.55,1.16-2.29,1.9-.74.74-1.33,1.5-1.77,2.29-.35.61-.63,1.2-.85,1.77-.22.57-.33,1.07-.33,1.5,0,.61.09,1.09.26,1.44.17.35.48.7.92,1.05.35.26.74.5,1.18.72.44.22,1,.46,1.7.72.35.09.61.31.78.65.17.35.26.74.26,1.18-.09.87-.39,1.88-.92,3.01-.52,1.13-1.35,2.35-2.48,3.66-2.44,2.79-5.15,4.95-8.11,6.47-2.97,1.53-6.06,2.29-9.29,2.29-4.36,0-8.07-1.35-11.12-4.05-3.05-2.7-4.58-6.06-4.58-10.07,0-8.37,5.01-15.58,15.04-21.64,10.03-6.06,22.02-9.09,35.97-9.09h2.62Z"/>
  <path class="cls-1" d="M166.38,117.44c3.05,0,5.51.68,7.39,2.03,1.87,1.35,2.81,3.16,2.81,5.43s-1.09,4.49-3.27,6.41c-2.18,1.92-4.67,2.88-7.46,2.88-.7,0-1.18-.07-1.44-.2-.26-.13-.52-.46-.78-.98-.09-.26-.18-.54-.26-.85-.09-.3-.18-.67-.26-1.11,0-.09-.04-.17-.13-.26-.18-.26-.48-.5-.92-.72-.44-.22-.87-.37-1.31-.46h-1.37c-.22,0-.42.05-.59.13-1.83.18-3.62.87-5.36,2.09-1.75,1.22-3.32,2.83-4.71,4.84,8.19,1.13,14.73,4.34,19.62,9.61,4.88,5.28,7.32,11.71,7.32,19.29,0,8.46-2.6,15.83-7.78,22.1-5.19,6.28-11.36,9.42-18.51,9.42-4.36,0-8.04-1.33-11.05-3.99-3.01-2.66-4.51-5.95-4.51-9.87v-1.05c.17-2.79.87-5.36,2.09-7.72,1.22-2.35,2.53-3.7,3.92-4.05h.78c.35,0,.65.09.92.26.26.18.48.44.65.78.09.18.17.37.26.59.09.22.17.46.26.72.26.7.7,1.27,1.31,1.7.61.44,1.26.65,1.96.65,2,0,3.86-1.2,5.56-3.6,1.7-2.4,2.64-5.04,2.81-7.91v-.78c0-3.57-1.13-6.65-3.4-9.22-2.27-2.57-5.32-4.25-9.16-5.04-1.31,3.14-2.33,5.6-3.07,7.39-.74,1.79-1.33,3.47-1.77,5.04-.09.26-.18.52-.26.79-.09.26-.18.48-.26.65-.09.26-.15.5-.2.72-.05.22-.11.42-.2.59-.52,1.66-1.07,3.55-1.63,5.69-.57,2.14-1.2,4.51-1.9,7.13l-2.62,10.46-1.18,5.36c-3.58,14.82-9.48,26.09-17.72,33.81-8.24,7.72-18.42,11.58-30.54,11.58-8.28,0-15.26-2.44-20.93-7.32-5.67-4.88-8.5-10.9-8.5-18.05,0-8.28,3.44-15.54,10.33-21.78,6.89-6.23,14.95-9.35,24.2-9.35,2.18,0,3.94.37,5.3,1.11,1.35.74,2.03,1.72,2.03,2.94v.65c-.09.26-.28.61-.59,1.05-.31.44-.89,1.22-1.77,2.35-.09.18-.2.37-.33.59-.13.22-.2.42-.2.59-.09.26-.15.5-.2.72-.05.22-.07.41-.07.59,0,1.66.7,3.1,2.09,4.32,1.39,1.22,3.05,1.83,4.97,1.83.78,0,1.55-.09,2.29-.26.74-.17,1.55-.39,2.42-.65,1.57-.61,3.12-1.46,4.64-2.55,1.52-1.09,2.86-2.37,3.99-3.86.52-.7,1.05-1.44,1.57-2.22.52-.79,1-1.61,1.44-2.49.78-1.31,1.55-2.88,2.29-4.71.74-1.83,1.59-4.01,2.55-6.54.87-2.27,1.55-4.1,2.03-5.49.48-1.39.98-2.62,1.5-3.66,0-.17.04-.33.13-.46.09-.13.13-.28.13-.46.61-1.48,1.37-3.16,2.29-5.04.92-1.87,2.24-4.69,3.99-8.44.09-.17.22-.5.39-.98.17-.48.44-1.02.78-1.63-.35.09-.65.15-.92.2-.26.05-.57.11-.92.2-1.57.26-2.88.57-3.92.92-1.05.35-2.05.78-3.01,1.31-.26.18-.5.31-.72.39-.22.09-.42.22-.59.39-.78.52-1.55,1.16-2.29,1.9-.74.74-1.33,1.5-1.77,2.29-.35.61-.63,1.2-.85,1.77-.22.57-.33,1.07-.33,1.5,0,.61.09,1.09.26,1.44.17.35.48.7.92,1.05.35.26.74.5,1.18.72.44.22,1,.46,1.7.72.35.09.61.31.78.65.17.35.26.74.26,1.18-.09.87-.39,1.88-.92,3.01-.52,1.13-1.35,2.35-2.48,3.66-2.44,2.79-5.15,4.95-8.11,6.47-2.97,1.53-6.06,2.29-9.29,2.29-4.36,0-8.07-1.35-11.12-4.05-3.05-2.7-4.58-6.06-4.58-10.07,0-8.37,5.01-15.58,15.04-21.64,10.03-6.06,22.02-9.09,35.97-9.09h2.62c4.62-6.19,9.42-10.79,14.39-13.8,4.97-3.01,10.24-4.51,15.83-4.51M166.38,115.58c-5.9,0-11.55,1.61-16.79,4.78-4.95,2.99-9.77,7.54-14.35,13.53h-1.69c-14.23,0-26.66,3.15-36.93,9.36-10.58,6.39-15.94,14.21-15.94,23.24,0,4.55,1.75,8.41,5.21,11.47.67.6,1.38,1.14,2.11,1.62-.77-.11-1.58-.16-2.45-.16-9.67,0-18.24,3.31-25.45,9.83-7.26,6.57-10.94,14.37-10.94,23.16,0,7.68,3.08,14.23,9.15,19.46,5.99,5.16,13.44,7.78,22.14,7.78,12.55,0,23.25-4.06,31.81-12.08,8.47-7.93,14.61-19.62,18.26-34.73l1.19-5.4.43-1.72c.53,3.4,2.19,6.36,4.95,8.8,3.34,2.96,7.48,4.46,12.28,4.46,7.7,0,14.41-3.4,19.94-10.09,5.45-6.59,8.21-14.43,8.21-23.29,0-8.03-2.63-14.95-7.82-20.56-4.51-4.87-10.4-8.1-17.55-9.64.74-.78,1.52-1.46,2.34-2.03,1.47-1.03,2.97-1.62,4.47-1.77l.34-.03.18-.09h1.05c.22.06.46.15.69.26.05.03.09.05.13.07.07.32.14.61.22.87.09.33.19.64.29.93l.04.12.06.12c.46.91.97,1.49,1.62,1.81.55.27,1.25.39,2.27.39,3.24,0,6.16-1.12,8.68-3.34,2.59-2.28,3.9-4.9,3.9-7.81s-1.24-5.24-3.58-6.94c-2.19-1.58-5.05-2.38-8.48-2.38h0ZM138.16,163.12c.1-.22.2-.47.29-.75l.25-.76.02-.05.02-.07c.41-1.49.98-3.11,1.69-4.82.62-1.5,1.44-3.47,2.46-5.92,2.75.79,4.94,2.14,6.65,4.08,1.97,2.24,2.93,4.86,2.93,7.99v.73c-.16,2.53-.97,4.78-2.47,6.9-1.32,1.87-2.68,2.81-4.04,2.81-.31,0-.59-.1-.88-.3-.31-.22-.52-.49-.65-.84-.08-.23-.18-.5-.27-.75-.11-.28-.22-.51-.32-.73-.33-.66-.76-1.16-1.29-1.51-.57-.38-1.24-.58-1.95-.58h-1.01l-.22.06c-1.27.32-2.41,1.11-3.47,2.42l.18-.66.12-.45c.54-2.04,1.07-3.89,1.58-5.49.12-.27.21-.57.28-.89.02-.12.06-.26.11-.4h0ZM121.43,152.78c.83-.45,1.72-.83,2.64-1.14.56-.19,1.22-.36,1.97-.53-1.63,3.49-2.81,5.99-3.64,7.69-.77,1.57-1.43,3.01-1.99,4.31-.4-.76-1.05-1.3-1.84-1.54-.6-.23-1.08-.43-1.45-.61-.33-.17-.63-.35-.89-.54-.28-.22-.36-.37-.37-.39,0,0-.07-.16-.07-.61,0-.12.03-.38.2-.84.18-.47.43-.98.73-1.51.36-.65.85-1.28,1.47-1.9.65-.65,1.33-1.21,2.01-1.66l.15-.1.13-.13c.28-.1.61-.28.95-.5h0ZM98.24,182.47c3.51,0,6.92-.84,10.14-2.5,2.87-1.48,5.54-3.53,7.95-6.12-.03.07-.05.13-.08.2-.95,2.5-1.8,4.69-2.54,6.51-.71,1.74-1.43,3.24-2.16,4.45l-.04.06-.03.06c-.4.81-.85,1.58-1.32,2.29-.5.75-1.01,1.47-1.51,2.14-1,1.31-2.21,2.48-3.58,3.46-1.37.98-2.78,1.76-4.17,2.3-.82.24-1.57.45-2.24.6-.6.14-1.22.21-1.87.21-1.47,0-2.69-.45-3.74-1.37-1-.87-1.46-1.8-1.46-2.92,0-.02,0-.09.03-.21.03-.16.08-.32.14-.5l.1-.29v-.05c.09-.15.17-.3.24-.43.82-1.07,1.39-1.84,1.71-2.29.42-.6.68-1.08.83-1.52l.1-.29v-.96c0-.99-.29-2.28-1.44-3.44,1.56.39,3.21.59,4.95.59h0Z"/>
  <path class="cls-2" d="M177.63,187.15c.17-.87.31-1.64.39-2.29.09-.65.13-1.29.13-1.9,0-.96-.24-1.81-.72-2.55-.48-.74-1.2-1.37-2.16-1.9,3.05-2.53,6.04-4.42,8.96-5.69,2.92-1.26,5.73-1.9,8.44-1.9,2.27,0,4.05.55,5.36,1.63,1.31,1.09,2,2.6,2.09,4.51v1.37c0,.48-.09.94-.26,1.37l-4.45,20.8c0,.18-.02.35-.06.52-.05.18-.11.35-.2.52-.09.44-.15.87-.2,1.31-.04.44-.06.78-.06,1.05,0,1.4.35,2.51,1.05,3.34.7.83,1.66,1.24,2.88,1.24h.78c.26-.09.54-.17.85-.26.31-.09.54-.17.72-.26.78-.35,1.46-.61,2.03-.78.57-.17,1.02-.26,1.37-.26.44,0,.85.2,1.24.59s.59.94.59,1.64c0,.78-.26,1.66-.78,2.62-.52.96-1.22,1.92-2.09,2.88-.52.44-1.05.89-1.57,1.37-.52.48-1.13.94-1.83,1.37-.96.61-1.94,1.18-2.94,1.7-1,.52-1.98,1-2.94,1.44-1.66.61-3.27,1.09-4.84,1.44-1.57.35-3.05.52-4.45.52-3.58,0-6.52-.98-8.83-2.94-2.31-1.96-3.47-4.51-3.47-7.65,0-.35.02-.72.07-1.11.04-.39.07-.81.07-1.24.09-.17.15-.37.2-.59.04-.22.06-.41.06-.59l4.58-21.32ZM202.21,148.76c1.83,1.61,2.75,3.73,2.75,6.34,0,2.97-1.48,5.62-4.45,7.98-2.97,2.35-6.41,3.53-10.33,3.53-2.7,0-4.9-.78-6.6-2.35-1.7-1.57-2.55-3.57-2.55-6.02,0-3.23,1.37-6.02,4.12-8.37,2.75-2.35,5.99-3.53,9.74-3.53,3.05,0,5.49.81,7.32,2.42Z"/>
  <path class="cls-1" d="M194.89,146.34c3.05,0,5.49.81,7.32,2.42,1.83,1.61,2.75,3.73,2.75,6.34,0,2.97-1.48,5.62-4.45,7.98-2.97,2.35-6.41,3.53-10.33,3.53-2.7,0-4.9-.79-6.6-2.35-1.7-1.57-2.55-3.57-2.55-6.02,0-3.23,1.37-6.02,4.12-8.37,2.75-2.35,5.99-3.53,9.74-3.53M192.67,170.93c2.27,0,4.05.55,5.36,1.63,1.31,1.09,2,2.6,2.09,4.51v1.37c0,.48-.09.94-.26,1.37l-4.45,20.8c0,.18-.02.35-.06.52-.05.18-.11.35-.2.52-.09.44-.15.87-.2,1.31-.04.44-.06.78-.06,1.05,0,1.4.35,2.51,1.05,3.33.7.83,1.66,1.24,2.88,1.24h.78c.26-.09.54-.17.85-.26.31-.09.54-.17.72-.26.78-.35,1.46-.61,2.03-.78.57-.17,1.02-.26,1.37-.26.44,0,.85.2,1.24.59.39.39.59.94.59,1.64,0,.78-.26,1.66-.78,2.62-.52.96-1.22,1.92-2.09,2.88-.52.44-1.05.89-1.57,1.37-.52.48-1.13.94-1.83,1.37-.96.61-1.94,1.18-2.94,1.7-1,.52-1.98,1-2.94,1.44-1.66.61-3.27,1.09-4.84,1.44-1.57.35-3.05.52-4.45.52-3.58,0-6.52-.98-8.83-2.94-2.31-1.96-3.47-4.51-3.47-7.65,0-.35.02-.72.07-1.11.04-.39.07-.81.07-1.24.09-.17.15-.37.2-.59.04-.22.06-.41.06-.59l4.58-21.32c.17-.87.31-1.64.39-2.29.09-.65.13-1.29.13-1.9,0-.96-.24-1.81-.72-2.55-.48-.74-1.2-1.37-2.16-1.9,3.05-2.53,6.04-4.42,8.96-5.69,2.92-1.26,5.73-1.9,8.44-1.9M194.89,144.48c-4.19,0-7.88,1.34-10.96,3.98-3.17,2.71-4.77,6.01-4.77,9.78,0,2.97,1.06,5.45,3.15,7.38,2.05,1.89,4.69,2.85,7.87,2.85,4.34,0,8.2-1.32,11.49-3.93,3.42-2.72,5.15-5.89,5.15-9.44,0-3.16-1.14-5.76-3.38-7.74-2.17-1.91-5.05-2.89-8.56-2.89h0ZM192.67,169.07c-2.94,0-6.03.69-9.18,2.05-3.07,1.33-6.23,3.33-9.41,5.96l.27,1.82.03,1.25c.68.37,1.18.8,1.49,1.28.28.44.42.94.42,1.54,0,.52-.04,1.08-.11,1.65-.08.61-.21,1.34-.37,2.17l-4.57,21.29-.04.19v.2s0,.09-.03.23c-.01.07-.03.11-.04.13l-.19.39v.43c0,.36-.02.71-.05,1.04-.05.44-.08.88-.08,1.31,0,3.7,1.39,6.75,4.12,9.07,2.64,2.25,6.02,3.39,10.03,3.39,1.52,0,3.15-.19,4.85-.57,1.65-.37,3.36-.88,5.08-1.51l.06-.02.06-.03c.97-.44,1.99-.94,3.04-1.48,1.05-.55,2.09-1.15,3.08-1.78.78-.48,1.48-1.02,2.09-1.57.5-.45,1.01-.9,1.51-1.32l.1-.08.09-.1c.97-1.07,1.76-2.16,2.35-3.24.67-1.23,1.01-2.41,1.01-3.51,0-1.5-.62-2.43-1.13-2.95-.94-.94-1.91-1.13-2.56-1.13-.54,0-1.17.11-1.92.34-.64.2-1.37.48-2.23.86l-.04.02-.04.02s-.11.06-.38.13c-.23.07-.44.13-.64.19h-.49c-.86,0-1.23-.31-1.45-.58-.41-.49-.61-1.18-.61-2.14,0-.14,0-.41.06-.86.03-.31.07-.62.13-.93.09-.21.16-.42.21-.63.06-.26.1-.51.12-.76l4.38-20.5c.22-.61.33-1.25.33-1.9v-1.46c-.11-2.45-1.04-4.42-2.76-5.86-1.65-1.37-3.85-2.07-6.56-2.07h0Z"/>
  <path class="cls-2" d="M208.36,221.42l7.46-34.01c.09-.26.13-.52.13-.78s.04-.48.13-.65c.09-.52.15-1.05.2-1.57.04-.52.06-.96.06-1.31,0-1.31-.2-2.29-.59-2.94-.39-.65-1.16-1.24-2.29-1.77,1.48-1.22,2.94-2.31,4.38-3.27,1.44-.96,2.94-1.74,4.51-2.35,1.48-.7,2.96-1.2,4.45-1.5,1.48-.31,2.92-.46,4.32-.46,2.27,0,4.05.65,5.36,1.96,1.31,1.31,2,3.18,2.09,5.62,2.53-2,4.75-3.57,6.67-4.71,1.92-1.13,3.75-1.96,5.49-2.49.87-.26,1.77-.44,2.68-.52.92-.09,1.85-.13,2.81-.13,3.05,0,5.56.68,7.52,2.03,1.96,1.35,3.29,3.29,3.99,5.82,1.92-1.57,3.77-2.88,5.56-3.92,1.79-1.05,3.55-1.87,5.3-2.48,1.22-.44,2.46-.76,3.73-.98,1.26-.22,2.55-.33,3.86-.33,3.49,0,6.34.96,8.57,2.88,2.22,1.92,3.34,4.4,3.34,7.46,0,.44-.02.85-.06,1.24-.05.39-.07.76-.07,1.11-.09.18-.13.37-.13.59s-.04.42-.13.59l-3.53,16.74c0,.09-.02.18-.07.26-.05.09-.07.18-.07.26-.09.52-.18,1.05-.26,1.57-.09.52-.13.92-.13,1.18,0,1.13.37,2.09,1.11,2.88.74.78,1.63,1.18,2.68,1.18h.59c.22,0,.46-.04.72-.13.17,0,.37-.04.59-.13.22-.09.41-.17.59-.26.7-.26,1.31-.48,1.83-.65.52-.17.96-.26,1.31-.26.52,0,.98.22,1.37.65.39.44.59.96.59,1.57-.09.96-.52,2.03-1.31,3.2s-1.92,2.38-3.4,3.6c-.26.26-.55.5-.85.72-.31.22-.63.46-.98.72-1.66,1.22-3.4,2.2-5.23,2.94-1.83.74-3.71,1.29-5.62,1.63-.7.09-1.4.17-2.09.26-.7.09-1.4.13-2.09.13-3.66,0-6.65-.98-8.96-2.94-2.31-1.96-3.47-4.51-3.47-7.65,0-.26.02-.54.07-.85.04-.31.06-.63.06-.98.09-.17.15-.33.2-.46.04-.13.06-.28.06-.46l3.14-13.6c.17-.44.28-.87.33-1.31.04-.44.07-.83.07-1.18,0-1.39-.31-2.42-.92-3.07-.61-.65-1.53-.98-2.75-.98-1.66,0-3.01.65-4.05,1.96-1.05,1.31-1.92,3.49-2.62,6.54l-3.14,14.78-1.7,9.02h-20.4l4.84-25.77c.09-.26.15-.52.2-.78.04-.26.06-.52.06-.78.09-.26.13-.54.13-.85v-1.11c0-.96-.31-1.74-.92-2.35-.61-.61-1.4-.92-2.35-.92-1.66,0-3.05.7-4.18,2.09-1.13,1.4-2.05,3.62-2.75,6.67l-5.1,23.8h-20.93Z"/>
  <path class="cls-1" d="M256.23,170.54c3.05,0,5.56.68,7.52,2.03,1.96,1.35,3.29,3.29,3.99,5.82,1.92-1.57,3.77-2.88,5.56-3.92,1.79-1.05,3.55-1.87,5.3-2.48,1.22-.44,2.46-.76,3.73-.98,1.26-.22,2.55-.33,3.86-.33,3.49,0,6.34.96,8.57,2.88,2.22,1.92,3.34,4.4,3.34,7.46,0,.44-.02.85-.06,1.24-.05.39-.07.76-.07,1.11-.09.18-.13.37-.13.59s-.04.42-.13.59l-3.53,16.74c0,.09-.02.18-.07.26-.05.09-.07.18-.07.26-.09.52-.18,1.05-.26,1.57-.09.52-.13.92-.13,1.18,0,1.13.37,2.09,1.11,2.88.74.78,1.63,1.18,2.68,1.18h.59c.22,0,.46-.04.72-.13.17,0,.37-.04.59-.13.22-.09.41-.17.59-.26.7-.26,1.31-.48,1.83-.65.52-.17.96-.26,1.31-.26.52,0,.98.22,1.37.65.39.44.59.96.59,1.57-.09.96-.52,2.03-1.31,3.2-.78,1.18-1.92,2.38-3.4,3.6-.26.26-.55.5-.85.72-.31.22-.63.46-.98.72-1.66,1.22-3.4,2.2-5.23,2.94-1.83.74-3.71,1.29-5.62,1.63-.7.09-1.4.17-2.09.26-.7.09-1.4.13-2.09.13-3.66,0-6.65-.98-8.96-2.94-2.31-1.96-3.47-4.51-3.47-7.65,0-.26.02-.54.07-.85.04-.31.06-.63.06-.98.09-.17.15-.33.2-.46.04-.13.06-.28.06-.46l3.14-13.6c.17-.44.28-.87.33-1.31.04-.44.07-.83.07-1.18,0-1.39-.31-2.42-.92-3.07-.61-.65-1.53-.98-2.75-.98-1.66,0-3.01.65-4.05,1.96-1.05,1.31-1.92,3.49-2.62,6.54l-3.14,14.78-1.7,9.02h-20.4l4.84-25.77c.09-.26.15-.52.2-.78.04-.26.06-.52.06-.78.09-.26.13-.54.13-.85v-1.11c0-.96-.31-1.74-.92-2.35-.61-.61-1.4-.92-2.35-.92-1.66,0-3.05.7-4.18,2.09-1.13,1.4-2.05,3.62-2.75,6.67l-5.1,23.8h-20.93l7.46-34.01c.09-.26.13-.52.13-.78s.04-.48.13-.65c.09-.52.15-1.05.2-1.57.04-.52.06-.96.06-1.31,0-1.31-.2-2.29-.59-2.94-.39-.65-1.16-1.24-2.29-1.77,1.48-1.22,2.94-2.31,4.38-3.27,1.44-.96,2.94-1.74,4.51-2.35,1.48-.7,2.96-1.2,4.45-1.5,1.48-.31,2.92-.46,4.32-.46,2.27,0,4.05.65,5.36,1.96,1.31,1.31,2,3.18,2.09,5.62,2.53-2,4.75-3.57,6.67-4.71,1.92-1.13,3.75-1.96,5.49-2.49.87-.26,1.77-.44,2.68-.52.92-.09,1.85-.13,2.81-.13M256.23,168.68c-1,0-2.01.05-2.99.14-1.04.1-2.06.3-3.04.59-1.88.56-3.86,1.46-5.9,2.67-1.32.78-2.79,1.77-4.39,2.95-.44-1.41-1.14-2.61-2.11-3.57-1.66-1.66-3.91-2.51-6.68-2.51-1.52,0-3.09.17-4.69.5-1.6.33-3.22.87-4.81,1.62-1.67.65-3.29,1.5-4.81,2.52-1.49.99-3.01,2.13-4.53,3.38l-2.29,1.88,2.69,1.24c1.07.49,1.39.89,1.47,1.03.1.16.32.68.32,1.98,0,.29-.02.68-.06,1.16-.03.4-.08.81-.15,1.22-.12.35-.19.74-.19,1.16,0,.06-.01.13-.04.2l-.03.09-.02.09-7.46,34.01-.5,2.26h24.75l.32-1.47,5.1-23.8c.62-2.73,1.42-4.72,2.37-5.89.78-.96,1.65-1.41,2.74-1.41.59,0,.87.2,1.04.37.17.17.37.45.37,1.04v1.11c0,.1-.01.19-.04.27l-.09.28v.3c0,.16-.01.32-.04.48-.03.15-.07.33-.13.5l-.04.12-.02.12-4.84,25.77-.41,2.21h24.19l.29-1.52,1.7-9.02,3.13-14.74c.78-3.41,1.65-5.02,2.25-5.76.69-.86,1.52-1.26,2.6-1.26.47,0,1.08.07,1.39.39.26.28.42.94.42,1.8,0,.28-.02.61-.06,1-.03.26-.09.52-.2.8l-.05.13-.03.14-3.14,13.6-.05.21v.16s-.04.09-.07.14l-.19.39v.44c0,.26-.02.5-.05.72-.05.37-.08.75-.08,1.11,0,3.7,1.39,6.75,4.12,9.07,2.64,2.25,6.06,3.39,10.16,3.39.75,0,1.53-.05,2.32-.14l2.09-.26h.05s.05-.02.05-.02c2.04-.37,4.05-.96,5.99-1.74,1.97-.8,3.86-1.86,5.64-3.17.35-.26.66-.49.96-.7.36-.26.7-.54,1.02-.85,1.59-1.31,2.83-2.64,3.7-3.95.97-1.45,1.49-2.78,1.61-4.07v-.08s0-.08,0-.08c0-1.06-.37-2.04-1.06-2.81-.75-.83-1.7-1.27-2.76-1.27-.55,0-1.17.12-1.9.36-.55.18-1.18.41-1.9.68l-.1.04-.09.05c-.13.06-.27.13-.43.19,0,0,0,0,0,0h-.21l-.29.1c-.09.03-.13.03-.13.03h-.58c-.53,0-.94-.18-1.33-.59-.41-.44-.6-.95-.6-1.6,0-.06,0-.29.1-.87l.26-1.54c.08-.2.13-.4.15-.6l3.47-16.44c.12-.33.19-.67.21-1.03l.13-.27v-.44c0-.29.02-.59.05-.9.05-.47.08-.96.08-1.46,0-3.6-1.34-6.58-3.98-8.86-2.56-2.21-5.85-3.33-9.78-3.33-1.4,0-2.81.12-4.17.35-1.36.24-2.72.59-4.04,1.06-1.84.65-3.73,1.53-5.61,2.63-1.23.72-2.49,1.56-3.78,2.52-.89-1.77-2.15-3.23-3.77-4.34-2.27-1.56-5.16-2.36-8.58-2.36h0Z"/>
  <path class="cls-2" d="M298.87,253l17.66-74.94c.17-.87.33-1.7.46-2.49.13-.78.2-1.35.2-1.7,0-.61-.09-1.13-.26-1.57-.18-.44-.44-.87-.78-1.31-.26-.26-.52-.5-.78-.72-.26-.22-.57-.46-.92-.72,2.44-1.83,4.64-3.31,6.6-4.45,1.96-1.13,3.9-1.92,5.82-2.35.87-.26,1.72-.43,2.55-.52.83-.09,1.68-.13,2.55-.13,2.44,0,4.36.55,5.75,1.63,1.39,1.09,2,2.55,1.83,4.38,0,.44-.02.89-.07,1.37-.04.48-.15,1.03-.33,1.64l-.92,4.71c1.48-1.05,2.85-1.9,4.12-2.55,1.26-.65,2.5-1.15,3.73-1.5.87-.26,1.72-.44,2.55-.52.83-.09,1.72-.13,2.68-.13,4.62,0,8.39,1.63,11.31,4.9,2.92,3.27,4.38,7.52,4.38,12.75,0,9.24-2.51,17.29-7.52,24.13-5.01,6.85-10.88,10.27-17.59,10.27-2.44,0-4.6-.37-6.47-1.11-1.88-.74-3.64-1.98-5.3-3.73-.26-.17-.5-.39-.72-.65-.22-.26-.46-.52-.72-.78l-3.53,15.43-4.84,20.66h-21.45ZM339.94,181.07c-1.31.61-2.77,2.81-4.38,6.61-1.61,3.79-2.77,8.04-3.47,12.75,0,.18-.02.31-.07.39-.04.09-.06.26-.06.52-.44,3.14-.48,5.73-.13,7.78.35,2.05,1.05,3.12,2.09,3.2,1.39.26,2.94-1.66,4.64-5.75,1.7-4.1,2.94-8.89,3.73-14.39.44-3.14.5-5.67.2-7.59-.31-1.92-.94-3.05-1.9-3.4-.18,0-.39-.04-.65-.13Z"/>
  <path class="cls-1" d="M331.96,161.78c2.44,0,4.36.55,5.75,1.63,1.39,1.09,2,2.55,1.83,4.38,0,.44-.02.89-.07,1.37-.04.48-.15,1.03-.33,1.64l-.92,4.71c1.48-1.05,2.85-1.9,4.12-2.55,1.26-.65,2.5-1.15,3.73-1.5.87-.26,1.72-.44,2.55-.52.83-.09,1.72-.13,2.68-.13,4.62,0,8.39,1.63,11.31,4.9,2.92,3.27,4.38,7.52,4.38,12.75,0,9.24-2.51,17.29-7.52,24.13-5.02,6.85-10.88,10.27-17.59,10.27-2.44,0-4.6-.37-6.47-1.11-1.88-.74-3.64-1.98-5.3-3.73-.26-.17-.5-.39-.72-.65-.22-.26-.46-.52-.72-.78l-3.53,15.43-4.84,20.66h-21.45l17.66-74.94c.17-.87.33-1.7.46-2.49.13-.78.2-1.35.2-1.7,0-.61-.09-1.13-.26-1.57-.18-.44-.44-.87-.78-1.31-.26-.26-.52-.5-.78-.72-.26-.22-.57-.46-.92-.72,2.44-1.83,4.64-3.31,6.6-4.45,1.96-1.13,3.9-1.92,5.82-2.36.87-.26,1.72-.43,2.55-.52.83-.09,1.68-.13,2.55-.13M334.17,212.02c1.33,0,2.79-1.92,4.39-5.78,1.7-4.1,2.94-8.89,3.73-14.39.44-3.14.5-5.67.2-7.59-.31-1.92-.94-3.05-1.9-3.4-.18,0-.39-.04-.65-.13-1.31.61-2.77,2.81-4.38,6.61-1.61,3.79-2.77,8.04-3.47,12.75,0,.18-.02.31-.07.39-.04.09-.06.26-.06.52-.44,3.14-.48,5.73-.13,7.78.35,2.05,1.05,3.12,2.09,3.2.08.02.17.02.25.02M331.96,159.92c-.92,0-1.84.05-2.74.14-.93.1-1.88.29-2.83.57-2.07.48-4.18,1.33-6.28,2.54-2.02,1.17-4.31,2.7-6.79,4.57l-1.98,1.48,1.97,1.49c.32.24.61.47.85.67.19.16.39.34.58.52.2.27.36.52.45.77.06.14.13.41.13.87,0,.11-.02.47-.17,1.39-.13.77-.28,1.58-.45,2.43l-17.64,74.88-.54,2.29h25.28l.34-1.44,4.84-20.66,2.78-12.17c1.56,1.44,3.24,2.52,4.99,3.21,2.09.82,4.49,1.24,7.16,1.24,7.31,0,13.73-3.71,19.09-11.03,5.23-7.14,7.88-15.63,7.88-25.23,0-5.68-1.63-10.39-4.85-13.99-3.28-3.67-7.55-5.53-12.7-5.53-1.01,0-1.98.05-2.87.14-.95.1-1.92.3-2.89.59-1.32.38-2.69.93-4.05,1.63-.2.1-.41.21-.61.33l.08-.4c.19-.68.31-1.32.37-1.9.05-.51.07-1,.07-1.46.2-2.42-.67-4.47-2.54-5.93-1.73-1.35-4.05-2.03-6.9-2.03h0ZM333.95,200.26c.67-4.49,1.79-8.59,3.32-12.18,1.34-3.15,2.32-4.56,2.89-5.18.15.26.34.76.49,1.67.27,1.73.21,4.1-.2,7.04-.76,5.31-1.97,10-3.6,13.93-1.43,3.45-2.37,4.36-2.68,4.58-.11-.18-.33-.62-.5-1.63-.32-1.85-.27-4.28.14-7.21l.02-.13v-.13h0c.07-.24.12-.48.13-.75h0Z"/>
  <path class="cls-2" d="M131.77,243.94h.06c.2,0,.36.08.48.24.12.16.2.34.24.54v.12c0,.32-.1.68-.3,1.09-.2.4-.5.8-.9,1.21-.2.24-.43.48-.69.72-.26.24-.53.46-.81.66-.64.48-1.34.9-2.08,1.27-.74.36-1.5.68-2.26.96-.68.24-1.36.42-2.02.54s-1.28.18-1.84.18c-2.29,0-4.26-.87-5.91-2.62-1.65-1.75-2.47-3.83-2.47-6.24,0-3.1,1.32-5.82,3.95-8.17,2.63-2.35,5.72-3.53,9.26-3.53h1.03c1.41.08,2.87.34,4.4.78,1.53.44,3.3,1.11,5.31,1.99,1.21.52,2.19.91,2.95,1.18.76.26,1.47.43,2.11.51.24,0,.47.01.69.03.22.02.45.03.69.03h.97c.08-.04.17-.06.27-.06s.21-.02.33-.06c.32-.04.6-.07.84-.09.24-.02.44-.03.6-.03.56,0,1,.17,1.3.51.3.34.45.81.45,1.42v.42c-.04.16-.1.38-.18.66-.08.28-.26.84-.54,1.69-.12.36-.23.78-.33,1.27-.1.48-.17.97-.21,1.45-.04.32-.07.62-.09.9-.02.28-.03.56-.03.84,0,.4.02.91.06,1.54.04.62.08,1.32.12,2.08.04.48.07.9.09,1.27.02.36.03.7.03,1.02.04.32.06.64.06.97v1.15c.6-1.17,1.18-2.23,1.72-3.2s1.09-1.87,1.66-2.71c.8-1.29,1.64-2.44,2.5-3.47.86-1.03,1.8-2.02,2.8-2.99l.12-.12.12-.12c.32-.32.66-.63,1.03-.93.36-.3.7-.59,1.03-.87,1.61-1.33,3.18-2.37,4.7-3.14,1.53-.76,2.81-1.15,3.86-1.15.6,0,1.1.15,1.48.45.38.3.57.73.57,1.3v.42c-.04.24-.14.53-.3.87-.16.34-.44.85-.84,1.54-.24.4-.5.88-.78,1.45-.28.56-.56,1.17-.84,1.81-.12.28-.25.58-.39.9-.14.32-.27.62-.39.9-.2.44-.38.88-.54,1.33-.16.44-.32.87-.48,1.27-.6,1.61-1.07,3.08-1.39,4.4-.32,1.33-.54,2.63-.66,3.92,0,.32-.01.64-.03.97-.02.32-.03.64-.03.96,0,1.45.21,2.6.63,3.47.42.87,1,1.32,1.72,1.36.12,0,.25-.02.39-.06.14-.04.29-.1.45-.18.24-.08.46-.15.66-.21.2-.06.34-.09.42-.09.32,0,.58.14.78.42.2.28.3.64.3,1.09,0,.2-.01.4-.03.6-.02.2-.05.4-.09.6-.32,2.33-1.4,4.46-3.23,6.39-1.83,1.93-3.81,3.06-5.94,3.38-.16,0-.32,0-.48.03-.16.02-.32.03-.48.03-1.73,0-3.09-.7-4.07-2.11-.99-1.41-1.48-3.36-1.48-5.85v-.72c.08-2.81.59-5.67,1.54-8.56.94-2.89,2.4-6.07,4.37-9.53-.24.2-.47.39-.69.57-.22.18-.41.37-.57.57-.16.12-.31.26-.45.42-.14.16-.27.32-.39.48-.2.28-.41.58-.63.9-.22.32-.47.7-.75,1.15-.2.28-.38.57-.54.87-.16.3-.32.59-.48.87-.12.12-.22.26-.3.42-.08.16-.16.32-.24.48-.36.6-.72,1.27-1.09,1.99-.36.72-.76,1.55-1.21,2.47-.4.8-.75,1.51-1.06,2.11-.3.6-.59,1.19-.87,1.75-.08.12-.16.25-.24.39-.08.14-.16.29-.24.45-.28.48-.57.98-.87,1.48-.3.5-.65,1.08-1.06,1.72-.44.72-.85,1.31-1.24,1.75-.38.44-.75.76-1.12.96-.16.12-.33.2-.51.24-.18.04-.37.06-.57.06-.56,0-.99-.16-1.27-.48-.28-.32-.42-.8-.42-1.45v-.3c0-.24.02-.5.06-.78.04-.28.1-.78.18-1.51.04-.2.08-.52.12-.96.04-.44.08-.97.12-1.57.04-.92.07-1.7.09-2.32.02-.62.03-1.06.03-1.3,0-.48-.01-1.01-.03-1.6-.02-.58-.07-1.26-.15-2.02-.04-.8-.08-1.58-.12-2.32-.04-.74-.06-1.28-.06-1.6v-1.27c.04-.32.08-.65.12-1,.04-.34.08-.77.12-1.3-.12.2-.22.4-.3.6-.08.2-.16.4-.24.6-.08.16-.15.32-.21.48-.06.16-.13.32-.21.48-.16.44-.32.95-.48,1.51-.16.56-.36,1.27-.6,2.11-.56,2.13-.95,3.56-1.15,4.28-.2.72-.38,1.33-.54,1.81-.08.36-.19.82-.33,1.39-.14.56-.39,1.51-.75,2.83-1.53,5.31-4.11,9.43-7.75,12.36-3.64,2.93-7.95,4.4-12.94,4.4-4.02,0-7.33-1.15-9.92-3.44-2.59-2.29-3.89-5.21-3.89-8.74,0-3.98,1.5-7.32,4.49-10.01,2.99-2.69,6.68-4.04,11.07-4.04,1.41,0,2.52.18,3.35.54.82.36,1.24.88,1.24,1.57,0,.08-.01.16-.03.24-.02.08-.05.16-.09.24-.04.12-.12.24-.24.36s-.3.26-.54.42c-.24.2-.46.44-.66.72-.2.28-.36.58-.48.9-.04.08-.07.18-.09.3-.02.12-.03.24-.03.36,0,.8.37,1.5,1.12,2.08.74.58,1.62.87,2.62.87.8,0,1.54-.14,2.2-.42.66-.28,1.32-.74,1.96-1.39.8-.84,1.62-2,2.44-3.47.82-1.47,1.76-3.37,2.8-5.7.84-1.85,1.49-3.27,1.93-4.25.44-.98.84-1.8,1.21-2.44.08-.16.16-.31.24-.45.08-.14.16-.27.24-.39.2-.32.43-.65.69-1,.26-.34.57-.75.93-1.24-1.25-.36-2.34-.63-3.29-.81-.95-.18-1.74-.27-2.38-.27-.96,0-1.78.25-2.44.75-.66.5-1,1.12-1,1.84,0,.36.11.69.33,1,.22.3.47.45.75.45h.06l1.27-.12Z"/>
  <path class="cls-1" d="M127.49,230.91c1.41.08,2.87.34,4.4.78,1.53.44,3.3,1.11,5.31,1.99,1.21.52,2.19.91,2.95,1.18.76.26,1.47.43,2.11.51.24,0,.47.01.69.03.22.02.45.03.69.03h.97c.08-.04.17-.06.27-.06s.21-.02.33-.06c.32-.04.6-.07.84-.09.24-.02.44-.03.6-.03.56,0,1,.17,1.3.51.3.34.45.81.45,1.42v.42c-.04.16-.1.38-.18.66-.08.28-.26.84-.54,1.69-.12.36-.23.78-.33,1.27-.1.48-.17.97-.21,1.45-.04.32-.07.62-.09.9-.02.28-.03.56-.03.84,0,.4.02.91.06,1.54.04.62.08,1.32.12,2.08.04.48.07.9.09,1.27.02.36.03.7.03,1.02.04.32.06.64.06.97v1.15c.6-1.17,1.18-2.23,1.72-3.2.54-.96,1.09-1.87,1.66-2.71.8-1.29,1.64-2.44,2.5-3.47.86-1.03,1.8-2.02,2.8-2.99.04-.04.08-.08.12-.12.04-.04.08-.08.12-.12.32-.32.66-.63,1.03-.94.36-.3.7-.59,1.03-.87,1.61-1.33,3.18-2.37,4.7-3.14,1.53-.76,2.81-1.15,3.86-1.15.6,0,1.1.15,1.48.45.38.3.57.73.57,1.3v.42c-.04.24-.14.53-.3.87-.16.34-.44.85-.84,1.54-.24.4-.5.88-.78,1.45-.28.56-.56,1.17-.84,1.81-.12.28-.25.58-.39.9-.14.32-.27.62-.39.9-.2.44-.38.88-.54,1.33-.16.44-.32.86-.48,1.27-.6,1.61-1.07,3.08-1.39,4.4-.32,1.33-.54,2.63-.66,3.92,0,.32-.01.64-.03.97-.02.32-.03.64-.03.96,0,1.45.21,2.6.63,3.47.42.86,1,1.32,1.72,1.36.12,0,.25-.02.39-.06.14-.04.29-.1.45-.18.24-.08.46-.15.66-.21.2-.06.34-.09.42-.09.32,0,.58.14.78.42.2.28.3.64.3,1.09,0,.2-.01.4-.03.6-.02.2-.05.4-.09.6-.32,2.33-1.4,4.46-3.23,6.39-1.83,1.93-3.81,3.06-5.94,3.38-.16,0-.32,0-.48.03-.16.02-.32.03-.48.03-1.73,0-3.09-.7-4.07-2.11-.99-1.41-1.48-3.36-1.48-5.85v-.72c.08-2.81.59-5.67,1.54-8.56.94-2.89,2.4-6.07,4.37-9.53-.24.2-.47.39-.69.57-.22.18-.41.37-.57.57-.16.12-.31.26-.45.42-.14.16-.27.32-.39.48-.2.28-.41.58-.63.9-.22.32-.47.7-.75,1.15-.2.28-.38.57-.54.87-.16.3-.32.59-.48.87-.12.12-.22.26-.3.42-.08.16-.16.32-.24.48-.36.6-.72,1.27-1.09,1.99-.36.72-.76,1.55-1.21,2.47-.4.8-.75,1.51-1.06,2.11-.3.6-.59,1.19-.87,1.75-.08.12-.16.25-.24.39-.08.14-.16.29-.24.45-.28.48-.57.98-.87,1.48-.3.5-.65,1.08-1.06,1.72-.44.72-.85,1.31-1.24,1.75-.38.44-.75.76-1.12.96-.16.12-.33.2-.51.24-.18.04-.37.06-.57.06-.56,0-.99-.16-1.27-.48-.28-.32-.42-.8-.42-1.45v-.3c0-.24.02-.5.06-.78.04-.28.1-.78.18-1.51.04-.2.08-.52.12-.96.04-.44.08-.97.12-1.57.04-.92.07-1.7.09-2.32.02-.62.03-1.06.03-1.3,0-.48-.01-1.01-.03-1.6-.02-.58-.07-1.26-.15-2.02-.04-.8-.08-1.58-.12-2.32-.04-.74-.06-1.28-.06-1.6v-1.27c.04-.32.08-.65.12-1,.04-.34.08-.77.12-1.3-.12.2-.22.4-.3.6-.08.2-.16.4-.24.6-.08.16-.15.32-.21.48-.06.16-.13.32-.21.48-.16.44-.32.95-.48,1.51-.16.56-.36,1.27-.6,2.11-.56,2.13-.95,3.56-1.15,4.28-.2.72-.38,1.33-.54,1.81-.08.36-.19.82-.33,1.39-.14.56-.39,1.51-.75,2.83-1.53,5.31-4.11,9.43-7.75,12.36-3.64,2.93-7.95,4.4-12.94,4.4-4.02,0-7.33-1.15-9.92-3.44-2.59-2.29-3.89-5.21-3.89-8.74,0-3.98,1.5-7.32,4.49-10.01,2.99-2.69,6.68-4.04,11.07-4.04,1.41,0,2.52.18,3.35.54.82.36,1.24.88,1.24,1.57,0,.08-.01.16-.03.24-.02.08-.05.16-.09.24-.04.12-.12.24-.24.36-.12.12-.3.26-.54.42-.24.2-.46.44-.66.72-.2.28-.36.58-.48.9-.04.08-.07.18-.09.3-.02.12-.03.24-.03.36,0,.8.37,1.5,1.12,2.08.74.58,1.62.87,2.62.87.8,0,1.54-.14,2.2-.42.66-.28,1.32-.74,1.96-1.39.8-.84,1.62-2,2.44-3.47.82-1.47,1.76-3.37,2.8-5.7.84-1.85,1.49-3.27,1.93-4.25.44-.98.84-1.8,1.21-2.44.08-.16.16-.31.24-.45.08-.14.16-.27.24-.39.2-.32.43-.65.69-1,.26-.34.57-.75.93-1.24-1.25-.36-2.34-.63-3.29-.81-.95-.18-1.74-.27-2.38-.27-.96,0-1.78.25-2.44.75-.66.5-1,1.12-1,1.84,0,.36.11.69.33,1,.22.3.47.45.75.45h.06l1.27-.12h.06c.2,0,.36.08.48.24.12.16.2.34.24.54v.12c0,.32-.1.68-.3,1.09-.2.4-.5.8-.9,1.21-.2.24-.43.48-.69.72-.26.24-.53.46-.81.66-.64.48-1.34.9-2.08,1.27-.74.36-1.5.68-2.26.96-.68.24-1.36.42-2.02.54-.66.12-1.28.18-1.84.18-2.29,0-4.26-.87-5.91-2.62-1.65-1.75-2.47-3.83-2.47-6.24,0-3.1,1.32-5.82,3.95-8.17,2.63-2.35,5.72-3.53,9.26-3.53h1.03M127.54,229.05h-1.08c-3.99,0-7.53,1.35-10.5,4-3.03,2.71-4.57,5.92-4.57,9.56,0,2.89,1,5.42,2.98,7.52.46.49.95.93,1.46,1.31-4.06.34-7.58,1.83-10.49,4.44-3.39,3.05-5.11,6.88-5.11,11.4,0,4.08,1.52,7.49,4.52,10.14,2.93,2.59,6.68,3.9,11.15,3.9,5.4,0,10.14-1.62,14.1-4.81,3.92-3.17,6.74-7.64,8.37-13.3.37-1.37.63-2.33.77-2.9.13-.54.24-.98.32-1.34.06-.19.12-.38.19-.6,0,.16,0,.35-.02.55-.02.62-.05,1.38-.09,2.3-.04.54-.08,1.05-.12,1.48-.05.5-.08.71-.09.77v.07s-.02.08-.02.08c-.08.7-.14,1.18-.17,1.45-.05.36-.08.71-.08,1.04v.3c0,1.11.3,2.01.88,2.68.44.51,1.27,1.12,2.67,1.12.34,0,.67-.04.98-.1.39-.09.77-.25,1.11-.49.52-.31,1.02-.74,1.52-1.32.45-.52.91-1.18,1.42-2,.4-.64.76-1.22,1.06-1.73.3-.51.6-1.01.89-1.5l.03-.05.03-.05c.06-.13.13-.25.19-.36.06-.1.11-.19.17-.28l.07-.1.04-.08c-.07.7-.12,1.41-.14,2.1v.41s0,.36,0,.36c0,2.87.61,5.2,1.81,6.92,1.33,1.9,3.26,2.9,5.6,2.9.24,0,.47-.02.71-.04.09-.01.17-.02.25-.02h.14l.14-.02c2.54-.38,4.9-1.71,7.01-3.94,2.08-2.19,3.33-4.67,3.71-7.37.05-.24.08-.48.11-.72.03-.27.04-.53.04-.79,0-.83-.22-1.56-.65-2.17-.56-.78-1.37-1.2-2.3-1.2-.28,0-.56.05-.96.17-.21.06-.45.14-.71.23l-.13.04-.04.02c-.04-.05-.08-.13-.13-.23-.2-.42-.44-1.21-.44-2.65,0-.28,0-.56.03-.84.02-.34.03-.66.03-.99.11-1.17.32-2.37.61-3.57.3-1.24.75-2.65,1.32-4.19.15-.38.32-.82.49-1.28.14-.39.31-.8.49-1.19.14-.31.26-.61.4-.93.14-.33.28-.64.4-.92.26-.6.53-1.18.8-1.71.26-.51.5-.96.72-1.32.45-.76.75-1.31.93-1.7.24-.5.38-.95.45-1.36l.03-.15v-.58c0-1.13-.45-2.11-1.28-2.76-.72-.57-1.6-.85-2.63-.85-1.35,0-2.88.44-4.69,1.34-1.65.82-3.35,1.96-5.06,3.37-.35.31-.68.59-1.03.88-.41.34-.79.69-1.15,1.05l-.07.07-.05.05-.06.06-.06.06c-1.02.98-2.01,2.03-2.91,3.1-.91,1.08-1.81,2.32-2.66,3.68-.08.12-.16.24-.24.36,0-.02,0-.04,0-.07-.04-.58-.06-1.05-.06-1.42,0-.24,0-.47.03-.71.02-.26.05-.52.08-.81v-.04s0-.04,0-.04c.03-.4.09-.81.18-1.22.08-.41.18-.76.28-1.06.29-.88.48-1.47.57-1.76.09-.31.15-.55.2-.72l.06-.22v-.65c0-1.07-.31-1.96-.92-2.65-.46-.52-1.3-1.14-2.69-1.14-.2,0-.45.01-.75.04-.27.02-.57.06-.92.1l-.19.02-.09.03c-.13,0-.26.03-.38.05h-.68c-.18,0-.35,0-.52-.02-.24-.02-.49-.03-.74-.04-.49-.07-1.04-.21-1.64-.41-.72-.24-1.66-.62-2.82-1.12-2.07-.91-3.93-1.61-5.53-2.07-1.65-.48-3.27-.77-4.81-.85h-.05ZM131.78,242.08c.28-.13.62-.2,1.02-.2.52,0,1.21.08,2.03.24.16.03.33.07.51.1-.03.04-.05.08-.08.13-.07.1-.17.27-.28.45-.09.16-.18.33-.27.5-.13.23-.26.48-.4.76-.11-.36-.28-.7-.5-1-.47-.63-1.19-.99-1.97-.99h-.05ZM123.33,253.21c.16-.02.32-.05.48-.08.76-.14,1.53-.35,2.31-.62.84-.31,1.66-.66,2.46-1.05.85-.41,1.65-.9,2.38-1.45.31-.22.64-.49.96-.78,0,0,0,0,.01-.01-.13.28-.26.58-.4.88-1.03,2.28-1.94,4.15-2.73,5.56-.74,1.32-1.47,2.37-2.17,3.1-.44.44-.9.77-1.34.96-.44.19-.92.27-1.48.27-.59,0-1.06-.15-1.47-.48-.4-.32-.4-.51-.4-.62,0,0,0,0,0,0h0c.06-.18.15-.33.25-.48.09-.13.19-.24.29-.33.3-.2.53-.4.72-.59.29-.29.5-.61.64-.96.07-.16.13-.33.18-.5.06-.24.09-.47.09-.7,0-.8-.27-1.53-.77-2.13h0Z"/>
  <path class="cls-2" d="M194.55,262.27c-.12.52-.21.96-.27,1.3-.06.34-.09.61-.09.81-.04.4.12.77.48,1.12.36.34.78.51,1.27.51.16,0,.31,0,.45-.03.14-.02.27-.05.39-.09.08,0,.15,0,.21-.03.06-.02.13-.05.21-.09.32-.12.6-.21.84-.27.24-.06.44-.09.6-.09.24,0,.46.11.66.33.2.22.3.47.3.75,0,.32-.1.67-.3,1.06-.2.38-.5.75-.9,1.12l-.33.33c-.1.1-.21.19-.33.27-.76.68-1.6,1.27-2.5,1.75-.9.48-1.82.84-2.74,1.09-.48.12-.98.22-1.48.3-.5.08-1,.12-1.48.12-1.45,0-2.63-.45-3.56-1.36-.93-.9-1.39-2.06-1.39-3.47v-.63c0-.22.02-.47.06-.75-.72.88-1.27,1.56-1.63,2.02-.36.46-.7.85-1.03,1.18-.04.04-.09.08-.15.12-.06.04-.11.08-.15.12-.08.12-.16.22-.24.3s-.18.16-.3.24c-.44.44-.93.82-1.45,1.15-.52.32-1.07.58-1.63.78-.4.12-.78.22-1.15.3-.36.08-.72.12-1.09.12-1.77,0-3.24-.73-4.4-2.2-1.17-1.47-1.75-3.37-1.75-5.7,0-4.06,1.38-7.75,4.13-11.07,2.75-3.32,5.8-4.98,9.14-4.98,1.17,0,2.24.21,3.23.63.98.42,1.86,1.08,2.62,1.96,1.09-.76,1.94-1.32,2.56-1.66.62-.34,1.22-.57,1.78-.69.16-.04.34-.07.54-.09.2-.02.4-.03.6-.03.8,0,1.45.21,1.93.63.48.42.72.98.72,1.66,0,.12-.01.28-.03.48-.02.2-.07.42-.15.66l-2.23,10.01ZM183.88,252.2c-.6.28-1.28,1.3-2.02,3.05-.74,1.75-1.28,3.71-1.6,5.88,0,.08-.01.14-.03.18-.02.04-.03.12-.03.24-.2,1.45-.22,2.64-.06,3.59.16.95.48,1.44.96,1.48.64.12,1.36-.76,2.14-2.65.78-1.89,1.36-4.1,1.72-6.63.2-1.45.23-2.61.09-3.5-.14-.88-.43-1.41-.87-1.57-.08,0-.18-.02-.3-.06Z"/>
  <path class="cls-1" d="M182.97,248.7c1.17,0,2.24.21,3.23.63.98.42,1.86,1.08,2.62,1.96,1.09-.76,1.94-1.32,2.56-1.66.62-.34,1.22-.57,1.78-.69.16-.04.34-.07.54-.09.2-.02.4-.03.6-.03.8,0,1.45.21,1.93.63.48.42.72.98.72,1.66,0,.12-.01.28-.03.48-.02.2-.07.42-.15.66l-2.23,10.01c-.12.52-.21.96-.27,1.3-.06.34-.09.61-.09.81-.04.4.12.77.48,1.12.36.34.78.51,1.27.51.16,0,.31,0,.45-.03.14-.02.27-.05.39-.09.08,0,.15,0,.21-.03.06-.02.13-.05.21-.09.32-.12.6-.21.84-.27.24-.06.44-.09.6-.09.24,0,.46.11.66.33.2.22.3.47.3.75,0,.32-.1.67-.3,1.06-.2.38-.5.75-.9,1.12-.12.12-.23.23-.33.33-.1.1-.21.19-.33.27-.76.68-1.6,1.27-2.5,1.75-.9.48-1.82.84-2.74,1.09-.48.12-.98.22-1.48.3-.5.08-1,.12-1.48.12-1.45,0-2.63-.45-3.56-1.36-.93-.9-1.39-2.06-1.39-3.47v-.63c0-.22.02-.47.06-.75-.72.88-1.27,1.56-1.63,2.02-.36.46-.7.85-1.03,1.18-.04.04-.09.08-.15.12-.06.04-.11.08-.15.12-.08.12-.16.22-.24.3s-.18.16-.3.24c-.44.44-.93.82-1.45,1.15-.52.32-1.07.58-1.63.78-.4.12-.78.22-1.15.3-.36.08-.72.12-1.09.12-1.77,0-3.24-.73-4.4-2.2-1.17-1.47-1.75-3.37-1.75-5.7,0-4.06,1.38-7.75,4.13-11.07,2.75-3.32,5.8-4.98,9.14-4.98M181.22,266.62c.61,0,1.29-.89,2.02-2.66.78-1.89,1.36-4.1,1.72-6.63.2-1.45.23-2.61.09-3.5-.14-.88-.43-1.41-.87-1.57-.08,0-.18-.02-.3-.06-.6.28-1.28,1.3-2.02,3.05-.74,1.75-1.28,3.71-1.6,5.88,0,.08-.01.14-.03.18-.02.04-.03.12-.03.24-.2,1.45-.22,2.64-.06,3.59.16.95.48,1.44.96,1.48.04,0,.08.01.12.01M182.97,246.84c-3.9,0-7.46,1.9-10.57,5.65-3.03,3.64-4.56,7.77-4.56,12.26,0,2.75.72,5.06,2.15,6.86,1.51,1.9,3.53,2.9,5.86,2.9.49,0,.99-.06,1.49-.16.42-.09.85-.21,1.28-.34h.05s.05-.03.05-.03c.69-.25,1.35-.57,1.98-.95.59-.37,1.16-.8,1.67-1.29.16-.11.3-.23.42-.36.09-.09.18-.19.27-.3.1-.07.19-.16.28-.24.03-.03.05-.05.08-.08.32.64.74,1.23,1.28,1.76,1.28,1.25,2.91,1.89,4.86,1.89.57,0,1.17-.05,1.77-.14.56-.09,1.11-.2,1.64-.33,1.08-.28,2.14-.7,3.17-1.25,1-.53,1.93-1.18,2.78-1.93.18-.13.34-.27.49-.42l.3-.3c.55-.5.97-1.04,1.27-1.6.34-.65.52-1.3.52-1.92,0-.75-.27-1.44-.78-2-.56-.61-1.28-.94-2.04-.94-.32,0-.66.05-1.06.15-.31.08-.65.19-1.04.33h0s-.07,0-.07,0l-.29.1s-.04,0-.06.01c-.02,0-.04,0-.05,0,0-.07.02-.15.04-.25.06-.31.14-.71.25-1.2l2.22-9.94c.1-.33.17-.65.2-.96.03-.28.04-.51.04-.67,0-1.22-.47-2.28-1.36-3.06-.83-.73-1.89-1.09-3.16-1.09-.26,0-.52.01-.78.04-.3.03-.56.08-.81.14-.68.14-1.45.44-2.23.87-.41.22-.89.52-1.46.9-.65-.53-1.35-.96-2.09-1.28-1.22-.52-2.55-.78-3.96-.78h0ZM182.12,261.31c.22-1.47.55-2.85.98-4.1-.25,1.71-.61,3.28-1.07,4.67,0-.02,0-.04,0-.07l.02-.13h0c.03-.13.05-.25.05-.37h0Z"/>
  <path class="cls-2" d="M210.17,271.92c-.04.12-.08.26-.12.42-.04.16-.08.32-.12.48-.44,1.89-.9,3.41-1.39,4.55-.48,1.15-1.11,2.16-1.87,3.05-1.01,1.25-2.25,2.2-3.74,2.86-1.49.66-3.04,1-4.64,1-2.01,0-3.66-.52-4.95-1.57-1.29-1.05-1.93-2.39-1.93-4.04v-.45c0-.1.02-.21.06-.33.64.28,1.17.49,1.57.63.4.14.78.23,1.15.27h.48c.12,0,.24-.01.36-.03.12-.02.24-.03.36-.03.68-.12,1.34-.37,1.96-.75.62-.38,1.16-.85,1.6-1.42.08-.12.14-.22.18-.3.04-.08.1-.18.18-.3.16-.24.29-.5.39-.78.1-.28.21-.64.33-1.09.08-.28.16-.6.24-.96.08-.36.16-.76.24-1.21l3.26-15.8c.08-.44.15-.85.21-1.24.06-.38.09-.65.09-.81,0-.12-.01-.23-.03-.33-.02-.1-.05-.21-.09-.33-.08-.16-.22-.32-.42-.48-.2-.16-.5-.38-.9-.66,1.21-.96,2.31-1.71,3.32-2.23,1-.52,1.99-.88,2.95-1.09.32-.08.62-.13.9-.15.28-.02.58-.03.9-.03,1.09,0,1.95.26,2.59.78.64.52.96,1.23.96,2.11,0,.12-.01.27-.03.45-.02.18-.05.37-.09.57,0,.04-.01.09-.03.15-.02.06-.03.11-.03.15l-3.92,18.94ZM215.12,238.42c.84.74,1.27,1.72,1.27,2.93,0,1.37-.68,2.59-2.05,3.68-1.37,1.09-2.95,1.63-4.76,1.63-1.25,0-2.26-.36-3.05-1.09-.78-.72-1.18-1.65-1.18-2.77,0-1.49.63-2.77,1.9-3.86,1.27-1.09,2.76-1.63,4.49-1.63,1.41,0,2.53.37,3.38,1.12Z"/>
  <path class="cls-1" d="M211.74,237.3c1.41,0,2.53.37,3.38,1.12.84.74,1.27,1.72,1.27,2.93,0,1.37-.68,2.59-2.05,3.68-1.37,1.09-2.95,1.63-4.76,1.63-1.25,0-2.26-.36-3.05-1.09-.78-.72-1.18-1.65-1.18-2.77,0-1.49.63-2.77,1.9-3.86,1.27-1.09,2.76-1.63,4.49-1.63M210.71,248.76c1.09,0,1.95.26,2.59.78.64.52.96,1.23.96,2.11,0,.12-.01.27-.03.45-.02.18-.05.37-.09.57,0,.04-.01.09-.03.15-.02.06-.03.11-.03.15l-3.92,18.94c-.04.12-.08.26-.12.42-.04.16-.08.32-.12.48-.44,1.89-.9,3.41-1.39,4.55-.48,1.15-1.11,2.16-1.87,3.05-1.01,1.25-2.25,2.2-3.74,2.86-1.49.66-3.04.99-4.64.99-2.01,0-3.66-.52-4.95-1.57-1.29-1.05-1.93-2.39-1.93-4.04v-.45c0-.1.02-.21.06-.33.64.28,1.17.49,1.57.63.4.14.78.23,1.15.27h.48c.12,0,.24-.01.36-.03.12-.02.24-.03.36-.03.68-.12,1.34-.37,1.96-.75.62-.38,1.16-.85,1.6-1.42.08-.12.14-.22.18-.3.04-.08.1-.18.18-.3.16-.24.29-.5.39-.78.1-.28.21-.64.33-1.09.08-.28.16-.6.24-.96.08-.36.16-.76.24-1.21l3.26-15.8c.08-.44.15-.85.21-1.24.06-.38.09-.65.09-.81,0-.12-.01-.23-.03-.33-.02-.1-.05-.21-.09-.33-.08-.16-.22-.32-.42-.48-.2-.16-.5-.38-.9-.66,1.21-.96,2.31-1.71,3.32-2.23,1-.52,1.99-.88,2.95-1.09.32-.08.62-.13.9-.15.28-.02.58-.03.9-.03M211.74,235.44c-2.18,0-4.1.7-5.7,2.08-1.67,1.43-2.55,3.25-2.55,5.27,0,1.64.61,3.07,1.77,4.14.36.33.74.61,1.16.83-.44.18-.88.38-1.33.61-1.11.58-2.33,1.39-3.62,2.43l-1.94,1.55,2.03,1.43c.26.18.47.34.64.46-.01.08-.03.19-.05.35-.06.37-.13.77-.2,1.2l-3.25,15.76c-.08.46-.16.84-.24,1.18-.07.32-.14.61-.21.86-.11.41-.21.73-.3.97-.05.13-.11.26-.19.38-.13.2-.23.37-.3.51,0,0,0,.01-.01.02-.3.37-.65.67-1.06.93-.39.24-.78.4-1.19.48-.16,0-.31.02-.47.05h-.29s-.12,0-.12,0c-.2-.03-.42-.09-.65-.17-.36-.13-.84-.32-1.44-.58l-1.87-.82-.64,1.94c-.1.31-.15.62-.15.91v.45c0,2.2.9,4.09,2.62,5.49,1.62,1.32,3.68,1.98,6.12,1.98,1.86,0,3.68-.39,5.4-1.16,1.75-.78,3.24-1.92,4.43-3.4.85-.98,1.58-2.17,2.14-3.49.53-1.25,1.01-2.84,1.48-4.85l.11-.45c.03-.12.05-.21.08-.29l.04-.11.02-.11,3.92-18.94.02-.1c.03-.11.05-.22.06-.32.04-.22.07-.42.09-.62.03-.27.04-.49.04-.67,0-1.45-.57-2.68-1.65-3.55-.24-.19-.49-.36-.76-.51.62-.3,1.21-.67,1.77-1.11,1.83-1.45,2.75-3.18,2.75-5.14,0-1.73-.66-3.23-1.9-4.32-1.19-1.05-2.74-1.58-4.61-1.58h0Z"/>
  <path class="cls-2" d="M270.36,256.48c3.05-4.46,6.65-8.2,10.79-11.21,4.14-3.02,8.44-5.01,12.88-5.97.96-.26,1.96-.46,3.01-.59,1.05-.13,2.05-.2,3.01-.2,3.4,0,6.12.72,8.17,2.16,2.05,1.44,3.07,3.34,3.07,5.69s-1.09,4.34-3.27,6.21c-2.18,1.88-4.58,2.81-7.19,2.81-1.13,0-1.9-.2-2.29-.59-.39-.39-.63-1.2-.72-2.42,0-.44-.33-.85-.98-1.24-.65-.39-1.42-.59-2.29-.59-1.48,0-2.94.31-4.38.92s-2.86,1.57-4.25,2.89c-.52.44-1.03.9-1.5,1.38-.48.48-.94,1.03-1.37,1.64,7.15,1.05,12.69,3.19,16.61,6.43,3.92,3.24,5.89,7.3,5.89,12.2,0,3.32-.87,6.43-2.62,9.32-1.75,2.89-4.1,5.16-7.06,6.82-.35.18-.68.35-.98.52-.31.18-.63.31-.98.39-1.31.61-2.7,1.09-4.18,1.44-1.48.35-3.4.61-5.75.78,3.57.43,6.08,1.6,7.52,3.51,1.44,1.91,2.16,5.03,2.16,9.36l-.13,3.9c0,1.13.22,2.02.65,2.66.44.65,1.05.97,1.83.97.17,0,.35-.02.52-.06.17-.04.39-.11.65-.2.35-.09.67-.15.98-.2.3-.04.54-.07.72-.07.61,0,1.13.28,1.57.85.44.57.65,1.2.65,1.9,0,.87-.26,2.12-.78,3.73-.52,1.61-1.22,3.25-2.09,4.9-.26.44-.5.87-.72,1.31-.22.44-.46.87-.72,1.31-1.74,2.97-3.97,5.49-6.67,7.59-2.7,2.09-5.49,3.45-8.37,4.05-.61.17-1.26.3-1.96.39-.7.09-1.35.13-1.96.13-2.7,0-5.01-1.02-6.93-3.07-1.92-2.04-2.88-4.63-2.88-7.76,0-1.48.26-3.7.78-6.65.52-2.96,1.22-6.35,2.09-10.18.35-1.3.61-2.57.78-3.78.17-1.22.26-2.22.26-3,0-1.65-.5-3.02-1.5-4.11-1-1.09-2.29-1.63-3.86-1.63h-.98c-.13,0-.33.04-.59.13-.35.78-.61,1.44-.78,1.96-.18.52-.31.87-.39,1.04l-1.31,4.31-1.31,4.43-1.44,4.31c-3.84,12.44-9.94,22.14-18.31,29.11-8.37,6.97-18.14,10.45-29.3,10.45-7.93,0-14.67-2.55-20.21-7.65-5.54-5.1-8.3-11.26-8.3-18.48,0-8,3.42-15.02,10.27-21.07,6.84-6.04,14.8-9.07,23.87-9.07,2.7,0,4.75.33,6.15.98,1.39.65,2.09,1.59,2.09,2.8v.52c0,.17-.05.3-.13.39,0,.35-.18.72-.52,1.11-.35.39-.92,1.15-1.7,2.28-.18.35-.33.74-.46,1.17-.13.44-.2,1-.2,1.7,0,1.83.63,3.28,1.9,4.37,1.26,1.09,2.99,1.63,5.17,1.63.35,0,.7-.02,1.05-.07.35-.04.74-.07,1.18-.07,1.74-.35,3.51-1.06,5.3-2.15,1.79-1.09,3.47-2.5,5.04-4.24.09-.09.17-.2.26-.33.09-.13.17-.24.26-.33.61-.69,1.2-1.43,1.77-2.21.57-.78,1.11-1.61,1.63-2.48.96-1.65,1.96-3.61,3.01-5.87,1.05-2.26,2.27-5.17,3.66-8.74.52-1.31,1-2.46,1.44-3.47.43-1,.87-1.98,1.31-2.94,0-.09.02-.2.07-.33.04-.13.11-.24.2-.33.78-1.74,1.66-3.66,2.62-5.75.96-2.09,2.35-5.06,4.19-8.89-3.84.61-7.22,1.81-10.14,3.6-2.92,1.79-4.69,3.68-5.3,5.69-.09.18-.15.37-.2.59-.05.22-.07.46-.07.72,0,.87.26,1.59.78,2.16.52.57,1.31.98,2.35,1.24.78.18,1.35.41,1.7.72.35.31.52.72.52,1.24,0,.61-.24,1.44-.72,2.49-.48,1.05-1.16,2.14-2.03,3.27-.18.18-.35.37-.52.59-.18.22-.35.46-.52.72-1.66,1.92-3.75,3.55-6.28,4.9-2.53,1.35-5.1,2.25-7.72,2.68-.61.09-1.2.15-1.77.2-.57.04-1.16.06-1.77.06-4.1,0-7.63-1.39-10.59-4.18-2.97-2.79-4.45-6.06-4.45-9.81v-.79c.26-4.63,2.22-9.07,5.89-13.31,3.66-4.24,8.46-7.63,14.39-10.17,3.49-1.57,7.56-2.82,12.23-3.74,4.66-.92,9.44-1.51,14.32-1.77h7.19ZM274.28,288.61c1.31-.35,2.53-.87,3.66-1.57,1.22-.87,2.29-2.03,3.2-3.47.92-1.44,1.59-2.94,2.03-4.51.09-.44.17-.92.26-1.44.09-.52.13-1,.13-1.44,0-2.01-.61-3.64-1.83-4.9-1.22-1.26-3.05-2.07-5.49-2.42-.52,1.05-.96,1.94-1.31,2.68-.35.74-.65,1.5-.92,2.29-.09.18-.18.37-.26.59-.09.22-.18.42-.26.59-.44,1.13-.94,2.53-1.5,4.19-.57,1.66-1.33,4.01-2.29,7.06-.09.35-.22.81-.39,1.37-.18.57-.39,1.2-.65,1.9,2.44-.26,4.32-.57,5.62-.92Z"/>
  <path class="cls-1" d="M300.05,238.52c3.4,0,6.12.72,8.17,2.16,2.05,1.44,3.07,3.34,3.07,5.69s-1.09,4.34-3.27,6.21c-2.18,1.88-4.58,2.81-7.19,2.81-1.13,0-1.9-.2-2.29-.59-.39-.39-.63-1.2-.72-2.42,0-.44-.33-.85-.98-1.24-.65-.39-1.42-.59-2.29-.59-1.48,0-2.94.31-4.38.92-1.44.61-2.86,1.57-4.25,2.89-.52.44-1.03.9-1.5,1.38-.48.48-.94,1.03-1.37,1.64,7.15,1.05,12.69,3.19,16.61,6.43,3.92,3.24,5.89,7.3,5.89,12.2,0,3.32-.87,6.43-2.62,9.32-1.75,2.89-4.1,5.16-7.06,6.82-.35.18-.68.35-.98.52-.31.18-.63.31-.98.39-1.31.61-2.7,1.09-4.18,1.44-1.48.35-3.4.61-5.75.79,3.57.43,6.08,1.6,7.52,3.51,1.44,1.91,2.16,5.03,2.16,9.36l-.13,3.9c0,1.13.22,2.02.65,2.66.44.65,1.05.97,1.83.97.17,0,.35-.02.52-.06.17-.04.39-.11.65-.2.35-.09.67-.15.98-.2.3-.04.54-.07.72-.07.61,0,1.13.28,1.57.85.44.57.65,1.2.65,1.9,0,.87-.26,2.12-.78,3.73-.52,1.61-1.22,3.25-2.09,4.9-.26.44-.5.87-.72,1.31-.22.44-.46.87-.72,1.31-1.74,2.97-3.97,5.49-6.67,7.59-2.7,2.09-5.49,3.45-8.37,4.05-.61.17-1.26.3-1.96.39-.7.09-1.35.13-1.96.13-2.7,0-5.02-1.02-6.93-3.07-1.92-2.04-2.88-4.63-2.88-7.76,0-1.48.26-3.7.78-6.65.52-2.96,1.22-6.35,2.09-10.18.35-1.3.61-2.57.78-3.78.17-1.22.26-2.22.26-3,0-1.65-.5-3.02-1.5-4.11-1-1.09-2.29-1.63-3.86-1.63h-.98c-.13,0-.33.04-.59.13-.35.78-.61,1.44-.78,1.96-.18.52-.31.87-.39,1.04l-1.31,4.31-1.31,4.43-1.44,4.31c-3.84,12.44-9.94,22.14-18.31,29.11-8.37,6.97-18.14,10.45-29.3,10.45-7.93,0-14.67-2.55-20.21-7.65-5.54-5.1-8.3-11.26-8.3-18.48,0-8,3.42-15.02,10.27-21.07,6.84-6.04,14.8-9.07,23.87-9.07,2.7,0,4.75.33,6.15.98,1.39.65,2.09,1.59,2.09,2.8v.52c0,.17-.05.3-.13.39,0,.35-.18.72-.52,1.11-.35.39-.92,1.15-1.7,2.28-.18.35-.33.74-.46,1.17-.13.44-.2,1-.2,1.7,0,1.83.63,3.28,1.9,4.37,1.26,1.09,2.99,1.63,5.17,1.63.35,0,.7-.02,1.05-.07.35-.04.74-.07,1.18-.07,1.74-.35,3.51-1.06,5.3-2.15,1.79-1.09,3.47-2.5,5.04-4.24.09-.09.17-.2.26-.33.09-.13.17-.24.26-.33.61-.69,1.2-1.43,1.77-2.21.57-.78,1.11-1.61,1.63-2.48.96-1.65,1.96-3.61,3.01-5.87,1.05-2.26,2.27-5.17,3.66-8.74.52-1.31,1-2.46,1.44-3.47.43-1,.87-1.98,1.31-2.94,0-.09.02-.2.07-.33.04-.13.11-.24.2-.33.78-1.74,1.66-3.66,2.62-5.75.96-2.09,2.35-5.06,4.19-8.89-3.84.61-7.22,1.81-10.14,3.6-2.92,1.79-4.69,3.68-5.3,5.69-.09.18-.15.37-.2.59-.05.22-.07.46-.07.72,0,.87.26,1.59.78,2.16.52.57,1.31.98,2.35,1.24.78.18,1.35.41,1.7.72.35.31.52.72.52,1.24,0,.61-.24,1.44-.72,2.49-.48,1.05-1.16,2.14-2.03,3.27-.18.18-.35.37-.52.59-.18.22-.35.46-.52.72-1.66,1.92-3.75,3.55-6.28,4.9-2.53,1.35-5.1,2.25-7.72,2.68-.61.09-1.2.15-1.77.2-.57.04-1.16.06-1.77.06-4.1,0-7.63-1.39-10.59-4.18-2.97-2.79-4.45-6.06-4.45-9.81v-.79c.26-4.63,2.22-9.07,5.89-13.31,3.66-4.24,8.46-7.63,14.39-10.17,3.49-1.57,7.56-2.82,12.23-3.74,4.66-.92,9.44-1.51,14.32-1.77h7.19c3.05-4.46,6.65-8.2,10.79-11.21,4.14-3.02,8.44-5.01,12.88-5.97.96-.26,1.96-.46,3.01-.59,1.05-.13,2.05-.2,3.01-.2M268.66,289.52c2.44-.26,4.32-.57,5.62-.92,1.31-.35,2.53-.87,3.66-1.57,1.22-.87,2.29-2.03,3.2-3.47.92-1.44,1.59-2.94,2.03-4.51.09-.44.17-.92.26-1.44.09-.52.13-1,.13-1.44,0-2.01-.61-3.64-1.83-4.9-1.22-1.26-3.05-2.07-5.49-2.42-.52,1.05-.96,1.94-1.31,2.68-.35.74-.65,1.5-.92,2.29-.09.18-.18.37-.26.59-.09.22-.18.41-.26.59-.44,1.13-.94,2.53-1.5,4.19-.57,1.66-1.33,4.01-2.29,7.06-.09.35-.22.81-.39,1.37-.18.57-.39,1.2-.65,1.9M300.05,236.65c-1.02,0-2.11.07-3.24.21-1.11.14-2.19.35-3.22.63-4.67,1.02-9.22,3.13-13.54,6.27-4.04,2.94-7.62,6.59-10.66,10.86h-6.32c-4.95.27-9.85.88-14.58,1.81-4.79.94-9.04,2.24-12.64,3.87-6.13,2.62-11.2,6.21-15.03,10.65-3.92,4.54-6.05,9.39-6.33,14.42v.05s0,.05,0,.05v.79c0,4.27,1.69,8.02,5.03,11.17.61.58,1.25,1.1,1.9,1.57-1.07-.16-2.28-.23-3.63-.23-9.49,0-17.94,3.21-25.1,9.53-7.23,6.38-10.9,13.94-10.9,22.46,0,7.73,3,14.41,8.91,19.85,5.86,5.4,13.09,8.14,21.47,8.14,11.55,0,21.81-3.66,30.49-10.89,8.61-7.17,14.97-17.26,18.9-29.99l1.43-4.26v-.03s.02-.03.02-.03l1.31-4.43,1.26-4.17c.09-.2.21-.52.41-1.12.08-.24.18-.51.31-.82h.28c1.05,0,1.84.33,2.49,1.03.68.74,1.01,1.67,1.01,2.85,0,.69-.08,1.61-.24,2.74-.16,1.14-.41,2.34-.74,3.57v.03s-.02.03-.02.03c-.87,3.82-1.58,7.27-2.11,10.27-.55,3.09-.81,5.37-.81,6.98,0,3.61,1.14,6.65,3.38,9.04,2.27,2.42,5.06,3.65,8.29,3.65.68,0,1.4-.05,2.19-.15.77-.1,1.5-.24,2.18-.43,3.12-.67,6.16-2.15,9.06-4.39,2.88-2.23,5.28-4.96,7.14-8.11.28-.46.54-.95.78-1.42.19-.38.41-.78.65-1.18l.03-.04.02-.05c.92-1.75,1.67-3.5,2.22-5.2.59-1.82.87-3.22.87-4.3s-.35-2.13-1.04-3.03c-1.01-1.31-2.21-1.58-3.05-1.58-.26,0-.57.03-.98.08-.37.06-.76.13-1.17.23l-.08.02-.07.02c-.21.07-.38.12-.51.16-.03,0-.05,0-.07,0-.17,0-.2-.02-.28-.15-.16-.23-.34-.7-.34-1.63l.13-3.84c0-4.85-.83-8.28-2.53-10.54-.47-.62-1.02-1.17-1.66-1.66,1.12-.32,2.2-.72,3.23-1.19.45-.13.87-.31,1.27-.54.27-.16.57-.31.89-.47l.04-.02.04-.02c3.23-1.81,5.84-4.33,7.75-7.48,1.91-3.17,2.88-6.63,2.88-10.28,0-5.46-2.21-10.04-6.56-13.64-3.52-2.9-8.26-4.99-14.13-6.23.13-.12.27-.24.41-.35l.04-.04.04-.04c1.22-1.15,2.47-2,3.7-2.53,1.22-.52,2.41-.77,3.65-.77.53,0,.97.11,1.33.32.04.02.08.05.11.07.14,1.56.54,2.62,1.23,3.31.76.76,1.94,1.13,3.61,1.13,3.06,0,5.89-1.1,8.41-3.26,2.6-2.24,3.92-4.8,3.92-7.62s-1.34-5.44-3.86-7.21c-2.36-1.66-5.47-2.5-9.24-2.5h0ZM275.21,275.75c.09-.19.19-.4.28-.64.07-.17.13-.32.2-.45l.06-.12.04-.13c.24-.72.52-1.42.83-2.08.19-.41.41-.87.66-1.38,1.36.34,2.4.88,3.12,1.62.88.91,1.31,2.09,1.31,3.61,0,.33-.04.71-.11,1.14-.08.47-.16.91-.24,1.31-.39,1.37-.99,2.69-1.79,3.94-.77,1.21-1.67,2.19-2.66,2.91-.96.58-2.01,1.03-3.11,1.32-.65.17-1.47.34-2.45.49.06-.2.11-.38.15-.54.96-3.07,1.7-5.35,2.26-6.97.56-1.64,1.04-2.97,1.45-4.04h0ZM254.25,283.83c-.19-.43-.48-.81-.84-1.13-.6-.52-1.42-.89-2.52-1.14-.63-.16-1.13-.4-1.39-.69-.14-.15-.29-.38-.29-.9,0-.17.01-.28.03-.34.02-.09.03-.13.04-.13l.07-.14.05-.15c.47-1.55,1.98-3.11,4.49-4.64,1.75-1.07,3.71-1.92,5.85-2.54-1.06,2.24-1.91,4.05-2.56,5.48-.92,2.01-1.76,3.86-2.52,5.55-.16.22-.28.47-.37.74,0,.01-.01.03-.02.04h0ZM231.39,302.11c.67,0,1.31-.02,1.91-.07.61-.05,1.25-.12,1.89-.21,2.84-.47,5.63-1.44,8.33-2.88,2.62-1.4,4.84-3.12,6.61-5.11-.83,2.02-1.58,3.77-2.25,5.21-1.02,2.19-2,4.12-2.93,5.72-.48.8-1,1.59-1.53,2.33-.52.71-1.07,1.4-1.63,2.04-.16.17-.31.36-.45.56,0,.01-.02.04-.04.05l-.03.03-.02.02c-1.44,1.59-2.99,2.9-4.62,3.9-1.53.93-3.06,1.57-4.53,1.88-.43,0-.83.03-1.21.08-.27.03-.54.05-.82.05-1.71,0-3.04-.4-3.95-1.18-.85-.73-1.25-1.67-1.25-2.96,0-.67.07-1.02.12-1.16.09-.29.18-.54.28-.76.87-1.24,1.28-1.77,1.48-1.99.5-.57.81-1.16.94-1.76.12-.3.19-.63.19-.98v-.52c0-.71-.17-1.81-.99-2.84,1.42.37,2.92.55,4.49.55h0Z"/>
  <path class="cls-2" d="M359.82,319.35c-.26,1.13-.46,2.07-.59,2.81-.13.74-.2,1.33-.2,1.77-.09.87.26,1.68,1.05,2.42.78.74,1.7,1.11,2.75,1.11.35,0,.67-.02.98-.06.3-.04.59-.11.85-.2.17,0,.33-.02.46-.06.13-.04.28-.11.46-.2.7-.26,1.31-.46,1.83-.59.52-.13.96-.2,1.31-.2.52,0,1,.24,1.44.72.43.48.65,1.03.65,1.63,0,.7-.22,1.46-.65,2.29-.44.83-1.09,1.64-1.96,2.42l-.72.72c-.22.22-.46.42-.72.59-1.66,1.48-3.47,2.75-5.43,3.79-1.96,1.05-3.95,1.83-5.95,2.35-1.05.26-2.12.48-3.2.65-1.09.17-2.16.26-3.2.26-3.14,0-5.71-.98-7.72-2.94-2.01-1.96-3.01-4.47-3.01-7.52v-1.37c0-.48.04-1.02.13-1.63-1.57,1.92-2.75,3.38-3.53,4.38-.78,1-1.53,1.85-2.22,2.55-.09.09-.2.18-.33.26-.13.09-.24.18-.33.26-.18.26-.35.48-.52.65s-.39.35-.65.52c-.96.96-2.01,1.79-3.14,2.48-1.13.7-2.31,1.26-3.53,1.7-.87.26-1.7.48-2.49.65-.78.17-1.57.26-2.35.26-3.84,0-7.02-1.59-9.55-4.77-2.53-3.18-3.79-7.3-3.79-12.36,0-8.81,2.99-16.81,8.96-24,5.97-7.19,12.58-10.79,19.81-10.79,2.53,0,4.86.46,7,1.37,2.14.92,4.03,2.33,5.69,4.25,2.35-1.66,4.21-2.86,5.56-3.6,1.35-.74,2.64-1.24,3.86-1.5.35-.09.74-.15,1.18-.2.44-.04.87-.07,1.31-.07,1.74,0,3.14.46,4.18,1.37,1.05.92,1.57,2.11,1.57,3.6,0,.26-.02.61-.07,1.05-.05.44-.15.92-.33,1.44l-4.84,21.71ZM336.67,297.5c-1.31.61-2.77,2.81-4.38,6.6-1.61,3.79-2.77,8.04-3.47,12.75,0,.18-.02.31-.07.39-.05.09-.07.26-.07.52-.44,3.14-.48,5.73-.13,7.78.35,2.05,1.05,3.12,2.09,3.2,1.39.26,2.94-1.66,4.64-5.75,1.7-4.1,2.94-8.89,3.73-14.39.44-3.14.5-5.67.2-7.59-.31-1.92-.94-3.05-1.9-3.4-.18,0-.39-.04-.65-.13Z"/>
  <path class="cls-1" d="M334.71,289.92c2.53,0,4.86.46,7,1.37,2.14.92,4.03,2.33,5.69,4.25,2.35-1.66,4.21-2.86,5.56-3.6,1.35-.74,2.64-1.24,3.86-1.5.35-.09.74-.15,1.18-.2.44-.04.87-.07,1.31-.07,1.74,0,3.14.46,4.18,1.37,1.05.92,1.57,2.11,1.57,3.6,0,.26-.02.61-.07,1.05-.05.44-.15.92-.33,1.44l-4.84,21.71c-.26,1.13-.46,2.07-.59,2.81-.13.74-.2,1.33-.2,1.77-.09.87.26,1.68,1.05,2.42.78.74,1.7,1.11,2.75,1.11.35,0,.67-.02.98-.06.3-.04.59-.11.85-.2.17,0,.33-.02.46-.06.13-.04.28-.11.46-.2.7-.26,1.31-.46,1.83-.59.52-.13.96-.2,1.31-.2.52,0,1,.24,1.44.72.43.48.65,1.03.65,1.63,0,.7-.22,1.46-.65,2.29-.44.83-1.09,1.64-1.96,2.42-.26.26-.5.5-.72.72-.22.22-.46.42-.72.59-1.66,1.48-3.47,2.75-5.43,3.79-1.96,1.05-3.95,1.83-5.95,2.35-1.05.26-2.12.48-3.2.65-1.09.17-2.16.26-3.2.26-3.14,0-5.71-.98-7.72-2.94-2.01-1.96-3.01-4.47-3.01-7.52v-1.37c0-.48.04-1.02.13-1.63-1.57,1.92-2.75,3.38-3.53,4.38-.78,1-1.53,1.85-2.22,2.55-.09.09-.2.18-.33.26-.13.09-.24.18-.33.26-.18.26-.35.48-.52.65-.18.18-.39.35-.65.52-.96.96-2.01,1.79-3.14,2.48-1.13.7-2.31,1.26-3.53,1.7-.87.26-1.7.48-2.49.65-.78.17-1.57.26-2.35.26-3.84,0-7.02-1.59-9.55-4.77-2.53-3.18-3.79-7.3-3.79-12.36,0-8.81,2.99-16.81,8.96-24,5.97-7.19,12.58-10.79,19.81-10.79M330.91,328.79c1.33,0,2.79-1.92,4.39-5.78,1.7-4.1,2.94-8.89,3.73-14.39.44-3.14.5-5.67.2-7.59-.31-1.92-.94-3.05-1.9-3.4-.18,0-.39-.04-.65-.13-1.31.61-2.77,2.81-4.38,6.6-1.61,3.79-2.77,8.04-3.47,12.75,0,.18-.02.31-.07.39-.05.09-.07.26-.07.52-.44,3.14-.48,5.73-.13,7.78.35,2.05,1.05,3.12,2.09,3.2.08.02.17.02.25.02M334.71,288.06c-7.78,0-14.93,3.86-21.25,11.46-6.23,7.5-9.39,15.98-9.39,25.19,0,5.47,1.41,10.01,4.2,13.52,2.88,3.63,6.59,5.48,11,5.48.91,0,1.84-.1,2.76-.3.85-.19,1.73-.42,2.62-.69h.05s.05-.03.05-.03c1.35-.48,2.65-1.11,3.88-1.87,1.2-.74,2.33-1.62,3.35-2.63.3-.21.55-.42.78-.65.2-.2.39-.43.59-.7.21-.14.41-.3.59-.48.75-.75,1.55-1.67,2.37-2.72.08-.1.15-.2.24-.3.4,2.59,1.54,4.82,3.4,6.63,2.35,2.3,5.39,3.47,9.02,3.47,1.13,0,2.3-.1,3.5-.28,1.15-.19,2.28-.42,3.36-.69,2.16-.56,4.3-1.41,6.38-2.52,2.05-1.09,3.97-2.43,5.7-3.96.32-.22.61-.47.89-.74l.34-.34.35-.35c1.01-.92,1.8-1.9,2.33-2.9.58-1.1.87-2.16.87-3.16,0-1.07-.39-2.06-1.14-2.88-1.01-1.1-2.09-1.33-2.82-1.33-.51,0-1.09.08-1.76.25-.59.15-1.25.36-2.03.65l-.1.04-.09.05s-.09.04-.13.06h-.24l-.3.1c-.15.05-.33.09-.52.12-.21.03-.45.05-.72.05-.57,0-1.03-.19-1.47-.6-.51-.48-.49-.76-.47-.88v-.09s0-.09,0-.09c0-.22.03-.65.17-1.44.13-.71.32-1.62.57-2.72l4.82-21.64c.2-.61.32-1.2.38-1.74.05-.51.08-.91.08-1.24,0-2.01-.76-3.74-2.21-5-1.39-1.22-3.21-1.83-5.41-1.83-.48,0-.98.03-1.49.07-.54.06-1.01.13-1.44.24-1.33.28-2.8.85-4.3,1.68-1.15.63-2.6,1.54-4.41,2.79-1.56-1.52-3.31-2.7-5.21-3.52-2.36-1.01-4.96-1.52-7.73-1.52h0ZM330.68,317.02c.67-4.49,1.79-8.59,3.32-12.18,1.34-3.15,2.32-4.56,2.89-5.18.15.26.34.76.49,1.67.27,1.73.21,4.09-.2,7.04-.76,5.31-1.97,10-3.6,13.93-1.43,3.45-2.37,4.36-2.68,4.58-.11-.18-.33-.62-.5-1.63-.32-1.86-.27-4.28.14-7.21l.02-.13v-.15c.07-.23.12-.47.13-.74h0Z"/>
  <path class="cls-2" d="M393.7,340.27c-.09.26-.18.57-.26.92-.09.35-.18.7-.26,1.05-.96,4.1-1.96,7.39-3.01,9.87-1.05,2.48-2.4,4.69-4.06,6.6-2.18,2.7-4.88,4.77-8.11,6.21-3.23,1.44-6.58,2.16-10.07,2.16-4.36,0-7.93-1.13-10.72-3.4-2.79-2.27-4.19-5.19-4.19-8.76v-.98c0-.22.05-.46.13-.72,1.4.61,2.53,1.07,3.4,1.37.87.31,1.7.5,2.49.59h1.05c.26,0,.52-.02.78-.07.26-.04.52-.06.78-.06,1.48-.26,2.9-.81,4.25-1.64,1.35-.83,2.51-1.85,3.47-3.07.18-.26.3-.48.39-.65.09-.18.22-.39.39-.65.35-.52.63-1.09.85-1.7.22-.61.46-1.4.72-2.35.17-.61.35-1.31.52-2.09.17-.78.35-1.66.52-2.62l7.06-34.27c.17-.96.33-1.85.46-2.68.13-.83.2-1.42.2-1.77,0-.26-.02-.5-.07-.72-.05-.22-.11-.46-.2-.72-.18-.35-.48-.7-.92-1.05-.44-.35-1.09-.83-1.96-1.44,2.62-2.09,5.01-3.7,7.19-4.84,2.18-1.13,4.32-1.92,6.41-2.35.7-.17,1.35-.28,1.96-.33.61-.04,1.26-.07,1.96-.07,2.35,0,4.23.57,5.62,1.7,1.39,1.13,2.09,2.66,2.09,4.58,0,.26-.02.59-.07.98-.05.39-.11.81-.2,1.24,0,.09-.02.2-.07.33-.04.13-.06.24-.06.33l-8.5,41.07ZM404.42,267.62c1.83,1.61,2.75,3.73,2.75,6.34,0,2.97-1.48,5.62-4.45,7.98-2.97,2.35-6.41,3.53-10.33,3.53-2.7,0-4.9-.78-6.6-2.35-1.7-1.57-2.55-3.57-2.55-6.02,0-3.23,1.37-6.02,4.12-8.37,2.75-2.35,5.99-3.53,9.74-3.53,3.05,0,5.49.81,7.32,2.42Z"/>
  <path class="cls-1" d="M397.1,265.2c3.05,0,5.49.81,7.32,2.42,1.83,1.61,2.75,3.73,2.75,6.34,0,2.97-1.48,5.62-4.45,7.98-2.97,2.35-6.41,3.53-10.33,3.53-2.7,0-4.9-.78-6.6-2.35-1.7-1.57-2.55-3.57-2.55-6.02,0-3.22,1.37-6.02,4.12-8.37,2.75-2.35,5.99-3.53,9.74-3.53M394.87,290.05c2.35,0,4.23.57,5.62,1.7,1.39,1.13,2.09,2.66,2.09,4.58,0,.26-.02.59-.07.98-.05.39-.11.81-.2,1.24,0,.09-.02.2-.07.33-.04.13-.06.24-.06.33l-8.5,41.07c-.09.26-.18.57-.26.92-.09.35-.18.7-.26,1.05-.96,4.1-1.96,7.39-3.01,9.87-1.05,2.48-2.4,4.69-4.06,6.6-2.18,2.7-4.88,4.77-8.11,6.21-3.23,1.44-6.58,2.16-10.07,2.16-4.36,0-7.93-1.13-10.72-3.4-2.79-2.27-4.19-5.19-4.19-8.76v-.98c0-.22.05-.46.13-.72,1.4.61,2.53,1.07,3.4,1.37.87.31,1.7.5,2.49.59h1.05c.26,0,.52-.02.78-.07.26-.04.52-.06.78-.06,1.48-.26,2.9-.81,4.25-1.64,1.35-.83,2.51-1.85,3.47-3.07.18-.26.3-.48.39-.65.09-.18.22-.39.39-.65.35-.52.63-1.09.85-1.7.22-.61.46-1.4.72-2.36.17-.61.35-1.31.52-2.09.17-.79.35-1.66.52-2.62l7.06-34.27c.17-.96.33-1.85.46-2.68.13-.83.2-1.42.2-1.77,0-.26-.02-.5-.07-.72-.05-.22-.11-.46-.2-.72-.18-.35-.48-.7-.92-1.05-.44-.35-1.09-.83-1.96-1.44,2.62-2.09,5.01-3.7,7.19-4.84,2.18-1.13,4.32-1.92,6.41-2.35.7-.17,1.35-.28,1.96-.33.61-.04,1.26-.07,1.96-.07M397.1,263.34c-4.19,0-7.88,1.34-10.96,3.98-3.17,2.71-4.77,6.01-4.77,9.78,0,2.97,1.06,5.45,3.15,7.38,2.05,1.89,4.69,2.85,7.87,2.85,4.34,0,8.2-1.32,11.49-3.93,3.42-2.72,5.15-5.89,5.15-9.44,0-3.16-1.14-5.77-3.38-7.74-2.17-1.91-5.05-2.88-8.55-2.88h0ZM394.87,288.19c-.74,0-1.44.02-2.09.07-.71.05-1.46.18-2.25.37-2.24.47-4.54,1.32-6.85,2.52-2.28,1.19-4.8,2.88-7.5,5.04l-1.94,1.55,2.03,1.43c.83.58,1.46,1.04,1.88,1.37.2.16.31.28.36.35.04.12.06.23.09.34.02.08.03.2.03.34,0,.11-.02.48-.17,1.48-.13.82-.28,1.7-.45,2.64l-7.05,34.22c-.18.99-.35,1.84-.52,2.59-.17.75-.34,1.42-.5,1.98-.25.92-.48,1.67-.68,2.24-.17.46-.38.9-.65,1.29-.22.33-.39.61-.51.86-.02.04-.09.17-.23.38-.81,1.02-1.79,1.88-2.93,2.58-1.1.68-2.27,1.13-3.46,1.36-.31,0-.62.04-.91.09-.16.03-.32.04-.47.04h-.94c-.62-.08-1.28-.24-1.98-.48-.83-.29-1.93-.74-3.27-1.32l-1.87-.82-.64,1.94c-.15.46-.22.88-.22,1.3v.98c0,4.14,1.64,7.58,4.87,10.21,3.12,2.53,7.12,3.82,11.9,3.82,3.73,0,7.38-.78,10.83-2.32,3.48-1.55,6.44-3.82,8.8-6.74,1.74-2.01,3.21-4.4,4.32-7.05,1.08-2.56,2.12-5.99,3.1-10.17l.25-1.02c.07-.3.15-.56.22-.78l.04-.11.02-.11,8.5-41.07.04-.19v-.03c.06-.2.1-.39.12-.58.08-.43.15-.86.2-1.27.05-.48.08-.86.08-1.19,0-2.46-.96-4.54-2.78-6.02-1.73-1.41-4.02-2.12-6.8-2.12h0Z"/>
  <path class="cls-2" d="M444.97,290.7c1.31,0,2.29.28,2.94.85.65.57.98,1.42.98,2.55,0,3.14-.52,5.47-1.57,7-1.05,1.53-2.66,2.29-4.84,2.29h-6.8c-.09.26-.15.46-.2.59-.05.13-.07.28-.07.46-.09.35-.22.87-.39,1.57-.18.7-.52,2.31-1.05,4.84-.09.52-.26,1.33-.52,2.42-.26,1.09-.57,2.38-.92,3.86-.26.96-.46,1.9-.59,2.81-.13.92-.2,1.77-.2,2.55,0,1.66.5,2.97,1.5,3.92,1,.96,2.46,1.44,4.38,1.44.7,0,1.46-.11,2.29-.33.83-.22,1.81-.54,2.94-.98.61-.26,1.18-.46,1.7-.59.52-.13.96-.2,1.31-.2.61,0,1.11.2,1.5.59s.59.94.59,1.63c0,.96-.42,2.03-1.24,3.2-.83,1.18-2.07,2.42-3.73,3.73-.26.18-.52.37-.78.59-.26.22-.57.42-.92.59-1.83,1.31-3.88,2.38-6.15,3.2-2.27.83-4.54,1.37-6.8,1.63-.61.09-1.2.15-1.77.2-.57.04-1.16.07-1.77.07-4.45,0-8.15-1.22-11.12-3.66-2.97-2.44-4.45-5.54-4.45-9.29v-2.09c.17-1.22.5-2.7.98-4.45.48-1.74,1.46-4.84,2.94-9.29.35-1.13.63-2.09.85-2.88.22-.78.46-1.57.72-2.35.09-.35.17-.7.26-1.05.09-.35.17-.74.26-1.18,0-.26.02-.52.06-.78.04-.26.11-.52.2-.78-1.57-.17-2.73-.61-3.47-1.31-.74-.7-1.11-1.74-1.11-3.14,0-.26.02-.5.06-.72.04-.22.07-.46.07-.72.35-1.13,1.29-2.46,2.81-3.99,1.52-1.52,4.29-3.99,8.31-7.39,4.18-3.57,7.63-6.19,10.33-7.85,2.7-1.66,4.75-2.49,6.15-2.49.96,0,1.74.28,2.35.85.61.57.87,1.29.78,2.16,0,.44-.07.92-.2,1.44-.13.52-.33,1.13-.59,1.83-.09.26-.2.57-.33.92-.13.35-.24.7-.33,1.05-.09.26-.18.55-.26.85-.09.31-.18.59-.26.85-.26.96-.5,1.9-.72,2.81-.22.92-.37,1.63-.46,2.16h6.28Z"/>
  <path class="cls-1" d="M438.69,275.79c.96,0,1.74.28,2.35.85.61.57.87,1.29.78,2.16,0,.44-.07.92-.2,1.44-.13.52-.33,1.13-.59,1.83-.09.26-.2.57-.33.92-.13.35-.24.7-.33,1.05-.09.26-.18.55-.26.85-.09.31-.18.59-.26.85-.26.96-.5,1.9-.72,2.81-.22.92-.37,1.63-.46,2.16h6.28c1.31,0,2.29.28,2.94.85.65.57.98,1.42.98,2.55,0,3.14-.52,5.47-1.57,7-1.05,1.53-2.66,2.29-4.84,2.29h-6.8c-.09.26-.15.46-.2.59-.05.13-.07.28-.07.46-.09.35-.22.87-.39,1.57-.18.7-.52,2.31-1.05,4.84-.09.52-.26,1.33-.52,2.42-.26,1.09-.57,2.38-.92,3.86-.26.96-.46,1.9-.59,2.81-.13.92-.2,1.77-.2,2.55,0,1.66.5,2.97,1.5,3.92,1,.96,2.46,1.44,4.38,1.44.7,0,1.46-.11,2.29-.33.83-.22,1.81-.54,2.94-.98.61-.26,1.18-.46,1.7-.59.52-.13.96-.2,1.31-.2.61,0,1.11.2,1.5.59.39.39.59.94.59,1.63,0,.96-.42,2.03-1.24,3.2-.83,1.18-2.07,2.42-3.73,3.73-.26.18-.52.37-.78.59-.26.22-.57.41-.92.59-1.83,1.31-3.88,2.38-6.15,3.2-2.27.83-4.54,1.37-6.8,1.63-.61.09-1.2.15-1.77.2-.57.04-1.16.07-1.77.07-4.45,0-8.15-1.22-11.12-3.66-2.97-2.44-4.45-5.54-4.45-9.29v-2.09c.17-1.22.5-2.7.98-4.45.48-1.74,1.46-4.84,2.94-9.29.35-1.13.63-2.09.85-2.88.22-.79.46-1.57.72-2.35.09-.35.17-.7.26-1.05.09-.35.17-.74.26-1.18,0-.26.02-.52.06-.79.04-.26.11-.52.2-.78-1.57-.17-2.73-.61-3.47-1.31-.74-.7-1.11-1.74-1.11-3.14,0-.26.02-.5.06-.72.04-.22.07-.46.07-.72.35-1.13,1.29-2.46,2.81-3.99,1.52-1.52,4.29-3.99,8.31-7.39,4.18-3.57,7.63-6.19,10.33-7.85,2.7-1.66,4.75-2.49,6.15-2.49M438.69,273.93c-1.78,0-4.05.88-7.12,2.76-2.77,1.7-6.33,4.4-10.57,8.02-4.02,3.41-6.85,5.93-8.41,7.49-1.76,1.76-2.83,3.32-3.28,4.76l-.08.27v.28c0,.17-.02.29-.03.35-.07.33-.1.69-.1,1.09,0,1.92.57,3.44,1.7,4.5.68.64,1.54,1.11,2.6,1.43-.06.3-.13.58-.19.83l-.24.97c-.27.81-.51,1.61-.73,2.38-.21.77-.49,1.71-.84,2.83-1.47,4.41-2.47,7.57-2.96,9.34-.51,1.84-.84,3.37-1.03,4.68l-.02.13v2.22c0,4.32,1.72,7.92,5.13,10.72,3.29,2.71,7.43,4.09,12.3,4.09.65,0,1.29-.02,1.91-.07.6-.05,1.23-.12,1.88-.21,2.36-.27,4.79-.86,7.18-1.73,2.37-.86,4.54-1.99,6.48-3.36.42-.22.8-.47,1.14-.75.21-.17.42-.33.63-.47l.06-.04.06-.04c1.81-1.43,3.15-2.78,4.1-4.12,1.07-1.52,1.58-2.91,1.58-4.28,0-1.5-.62-2.43-1.13-2.95-.74-.74-1.72-1.13-2.82-1.13-.51,0-1.08.08-1.76.25-.61.15-1.27.38-1.95.67-1.05.41-1.97.71-2.71.9-.67.18-1.28.27-1.82.27-1.42,0-2.46-.31-3.09-.92-.63-.6-.93-1.44-.93-2.58,0-.69.06-1.46.18-2.29.12-.83.3-1.7.54-2.59v-.03s.02-.03.02-.03c.35-1.48.65-2.76.91-3.85.26-1.09.45-1.94.54-2.51.53-2.54.86-4.09,1.02-4.73l.3-1.21h5.35c3.51,0,5.41-1.68,6.38-3.1,1.28-1.86,1.9-4.49,1.9-8.05,0-2.11-.88-3.31-1.62-3.96-1-.87-2.4-1.31-4.16-1.31h-3.98c.2-.82.41-1.66.66-2.57.09-.27.18-.56.27-.87.08-.28.16-.53.24-.77l.02-.07.02-.07c.07-.27.16-.55.26-.84.14-.37.25-.7.35-.98.26-.7.48-1.38.63-1.97.16-.65.24-1.24.25-1.8.11-1.42-.36-2.66-1.38-3.61-.97-.9-2.18-1.35-3.62-1.35h0Z"/>
</svg>