<?xml version="1.0" encoding="UTF-8"?>
<svg id="Vrstva_1" data-name="Vrstva 1" xmlns="http://www.w3.org/2000/svg" viewBox="0 0 1500 1000">
  <defs>
    <style>
      .cls-1 {
        fill: #353463;
      }

      .cls-1, .cls-2, .cls-3 {
        stroke-width: 0px;
      }

      .cls-2 {
        fill: #ff3e3e;
      }

      .cls-3 {
        fill: #ffd710;
      }
    </style>
  </defs>
  <path class="cls-1" d="m1268.21,679.7h-.02c-2.49,0-5.09.37-7.96,1.09-2.24.57-4.61,1.39-6.87,2.36-1.43.56-2.75,1.02-3.89,1.39.23-1.46.56-3,1-4.65l.14-.55c.89-3.88,1.68-7.25,2.35-10.11.69-2.91,1.17-5.19,1.47-6.85.16-.07.3-.14.41-.19.66-.26,1.28-.53,1.59-.69.65-.25,1.27-.52,1.59-.68.59-.23,1.17-.48,1.72-.74.59-.23,1.14-.47,1.45-.63.59-.23,1.17-.48,1.72-.74.6-.24,1.15-.48,1.44-.63.64-.25,1.26-.52,1.59-.68.59-.23,1.17-.48,1.72-.74.59-.23,1.14-.48,1.45-.63.65-.26,1.28-.53,1.58-.69.64-.25,1.26-.52,1.58-.68,7.46-2.95,12.01-7.95,14.5-11.63,4.91-7.21,7.27-16.63,7.22-28.81-.04-10.58-4.89-16.96-8.95-20.45-3.52-3.03-7.75-5.03-12.62-5.99.71-2,1.29-3.9,1.73-5.66.64-2.62.98-5.06,1.01-7.27.49-7.69-2.33-14.77-7.94-19.96-5.01-4.61-11.42-7.05-18.66-7.05-6.51.03-13.62,2.37-22.28,7.32l-15.49,8.5c-.43.23-.86.46-1.2.66l-7.95,4.36c-.42.22-.83.45-1.16.64l-7.95,4.36c-.41.22-.82.44-1.15.63l-.4.22c-.4.22-.8.43-1.34.74-.45.24-.91.49-1.29.71l-4.93,2.7c-.41.22-.82.44-1.14.63l-3.67,2.01c3.34-6.11,5.01-12.74,4.98-19.82-.05-12.16-4.74-22.66-13.55-30.36-8.21-7.17-18.7-10.81-31.43-10.81-12.52.05-23.8,3.65-33.4,10.6l-.43.28c-.34.21-.67.43-.89.59l-.41.27c-.35.23-.7.45-.88.59l-.41.27c-.35.22-.71.45-.93.62l-.43.28c-.34.21-.67.43-.89.59l-.44.28c-.33.21-.67.43-.87.58l-.42.27c-.35.22-.7.45-.89.59l-.42.27c-.35.22-.7.45-.93.62l-.43.28c-.34.21-.67.43-.89.59l-.43.28c-.34.22-.67.44-.86.57l-.42.27c-.35.22-.7.45-.93.62l-.43.28c-.34.22-.68.43-.87.58l-.42.27c-.35.22-.7.45-.9.6l-.42.27c-.35.22-.7.45-.92.61l-.43.28c-.34.22-.68.43-.9.59l-.44.28c-.33.21-.67.43-.86.58l-.42.27c-.35.22-.7.45-.92.61l-.43.27c-.34.22-.68.44-.9.6l-.43.28c-.34.22-.67.44-.86.57l-.41.27c-.36.22-.71.45-.94.62l-.43.28c-.34.22-.68.43-.88.59l-.43.28c-.34.22-.67.43-.88.58l-.42.27c-.35.22-.7.45-.92.61l-.43.28c-.34.21-.67.43-.89.59l-.45.29c-.33.21-.65.42-.87.58l-.44.28c-.33.21-.67.43-.87.58l-.42.27c-.35.22-.7.45-.91.61l-.43.28c-.34.22-.68.44-.88.59l-.42.27c-.35.22-.69.44-.89.59l-.41.27c-.35.22-.71.45-.93.62l-.43.28c-.34.22-.68.44-.87.58l-.41.27c-.35.22-.71.45-.91.6l-.41.27c-.35.22-.71.45-.93.62l-.43.28c-.34.22-.68.43-.88.59l-.43.28c-.34.22-.67.43-.88.58l-.42.27c-.35.22-.69.44-.92.61l-.43.28c-.34.22-.68.43-.88.59l-.43.28c-.34.22-.67.43-.88.58l-.42.27c-.35.22-.7.45-.92.61l-.43.28c-.34.22-.68.43-.89.59l-.43.28c-.34.22-.68.43-.87.58l-.42.27c-.35.22-.7.45-.92.61l-.43.28c-.34.22-.67.43-.88.58l-.43.28c-.34.21-.67.43-.9.6l-.43.28c-.34.22-.68.44-.89.6l-.43.28c-.34.22-.68.44-.88.59l-.42.27c-.35.22-.69.44-.9.6l-.42.27c-.35.22-.7.45-.89.59l-.4.26c-.36.23-.73.47-.93.62l-.42.27c-.35.22-.7.45-.91.6l-.43.28c-.34.22-.68.44-.9.6l-.43.27c-.34.22-.68.44-.87.58l-.41.27c-.35.22-.7.45-.92.62l-.43.28c-.34.22-.68.44-.87.58l-.41.27c-.35.22-.71.45-.91.6l-.42.27c-.35.22-.7.45-.92.61l-.43.28c-.34.22-.68.44-.87.58l-.4.26c-.37.23-.73.47-.9.6l-.4.26c-.36.23-.73.47-.96.64l-.43.28c-.34.22-.68.43-.88.58l-.42.27c-.35.22-.7.45-.89.59l-.41.26c-.36.23-.72.46-.92.62l-.42.27c-.35.22-.7.45-.89.59l-.41.27c-.35.22-.71.45-.91.6l-.41.27c-.35.22-.7.45-.92.62l-.43.28c-.34.22-.68.44-.87.58l-.41.27c-.35.22-.71.45-.91.6l-.41.27c-.35.22-.71.45-.93.62l-.43.28c-.34.22-.68.44-.87.58l-.41.26c-.36.23-.72.46-.9.6l-.4.26c-.36.23-.73.47-.92.62l-.42.27c-.35.22-.71.45-.91.61l-.41.27c-.35.22-.7.45-.9.6l-.42.27c-.35.22-.7.45-.93.62l-.44.28c-.29.19-.59.38-.79.52-2.6-1.64-5.15-2.99-7.75-4.09-7.83-3.31-16.37-4.99-25.68-4.99-16.99.07-32.97,5.79-47.46,16.96l-.36.26c-.25.18-.5.36-.68.49l-1.39,1.02c-.25.18-.5.36-.65.48l-1.42,1.04c-.25.18-.49.35-.66.49l-5.53,4.04c-.25.18-.49.35-.66.49l-3.43,2.51c-.25.18-.5.36-.7.51l-1.41,1.03c-.24.17-.48.35-.66.48l-.36.26c-.25.18-.49.35-.65.48l-3.48,2.54c-.25.18-.49.35-.66.49l-1.36,1c-.26.18-.51.37-.7.51l-3.44,2.51c-.25.18-.5.36-.69.5l-7.57,5.54c-.25.18-.5.36-.67.49l-2.41,1.76c-.26.18-.51.37-.7.51l-1.36,1c-.26.18-.51.37-.7.51l-1.4,1.02c-.15.11-.3.22-.44.32-.59-2.76-1.33-5.34-2.23-7.76l7.55-5.8c7.28-5.38,13.36-12.08,18.05-19.92,6.28-10.5,9.44-21.96,9.4-34.07-.03-6.18-.95-12.18-2.75-17.88.22-.18.43-.37.63-.56.37-.29.71-.59,1.06-.9.36-.29.71-.59,1.05-.9.37-.28.71-.59,1.06-.9.37-.29.72-.59,1.07-.91.36-.28.71-.58,1.05-.89.37-.28.72-.59,1.06-.9.37-.28.71-.59,1.06-.9.36-.28.71-.59,1.06-.9.36-.28.71-.58,1.05-.9.37-.28.71-.59,1.06-.9.37-.28.72-.59,1.06-.9.36-.28.71-.59,1.06-.9.36-.28.71-.58,1.05-.9.37-.28.72-.59,1.06-.9.37-.28.71-.59,1.06-.9.36-.28.71-.59,1.05-.89.36-.28.71-.59,1.05-.9.37-.29.72-.59,1.06-.9.36-.28.71-.59,1.06-.9.36-.28.71-.59,1.05-.9.37-.29.71-.59,1.06-.9.37-.29.72-.59,1.06-.9.36-.28.71-.59,1.06-.9.36-.28.71-.59,1.05-.9.37-.29.72-.59,1.06-.9.36-.28.71-.59,1.05-.9.37-.29.71-.59,1.06-.9.36-.28.71-.59,1.05-.9.37-.29.72-.6,1.07-.91.36-.28.71-.59,1.05-.89.36-.29.71-.59,1.06-.9.36-.28.71-.59,1.05-.9,3.34-2.57,5.69-6.23,6.63-10.33l2.5-10.87.28-.25c.34-.28.67-.58,1-.87l1.41-1.24c.33-.27.65-.56.98-.85l.2-.18c.32-.26.63-.54.94-.81l.28-.25c.33-.27.65-.56.98-.85l.21-.19c.31-.26.62-.53.93-.81l2.68-2.35c.3-.25.6-.52.9-.79l.28-.25c.32-.26.63-.54.94-.82l.27-.24c.32-.26.63-.54.94-.81l.28-.25c.31-.26.62-.54.93-.81l.26-.23c.31-.25.61-.52.91-.79l3.88-3.4c.33-.27.65-.56.97-.85l.23-.2c.34-.28.67-.58,1-.87l.2-.18c.3-.25.6-.52.9-.78l7.51-6.57c.31-.26.61-.53.92-.8l3.89-3.4c.33-.27.66-.57.99-.86l.21-.19c.3-.25.6-.51.9-.78l.31-.28c.31-.25.61-.52.91-.79l.3-.27c.32-.26.63-.54.94-.82l.24-.22c.3-.25.6-.52.9-.78l1.5-1.31c.31-.26.61-.53.92-.8l.28-.25c.29-.24.58-.5.87-.76l1.53-1.34c.31-.26.61-.53.92-.8l.28-.25c.31-.26.62-.53.93-.81l3.88-3.4c.33-.27.66-.57.99-.86l.21-.19c.32-.26.63-.54.94-.81l.28-.25c.3-.25.6-.52.9-.78l.29-.26c.32-.27.64-.55.96-.83l.25-.22c.31-.25.61-.52.91-.79l.28-.25c.29-.24.58-.5.87-.76l1.55-1.36c.29-.25.59-.51.88-.77l.3-.27c.3-.25.6-.51.9-.78l.31-.28c.3-.25.59-.51.88-.77l3.91-3.42c.3-.25.6-.51.9-.78l.31-.28c.28-.23.55-.47.83-.72l.38-.34c.31-.26.62-.54.93-.81l.26-.23c.31-.26.61-.53.92-.8l3.88-3.39c.29-.24.58-.5.87-.76l3.95-3.46c5.94-4.96,11.58-11.09,16.75-18.21,15.43-21.25,23.19-46.34,23.07-74.59-.07-18.36-5.59-33.75-16.39-45.75-11.28-12.51-25.83-18.85-43.54-18.85-3.12.01-6.13.17-8.97.48-1.56.17-3.14.42-4.72.74-1.65-6.59-5.46-12.41-11.06-16.76-6.93-5.36-15.75-8.08-26.46-8.08-2.88.01-5.78.17-8.63.48-3.19.35-6.42,1.01-9.35,1.89-6.65,1.6-13.36,4.35-19.92,8.17-5.79,3.38-12.26,7.76-19.2,13.02-1.33,1-2.54,2.27-3.69,3.88-.36.41-.68.84-1,1.29-.36.42-.69.85-1,1.29-.36.42-.68.84-1,1.28-.36.42-.68.85-1,1.29-.36.41-.68.84-1,1.29-.36.42-.69.85-1,1.3-.35.41-.68.84-.99,1.28-.36.42-.68.85-1,1.29-.36.42-.69.85-1,1.29-.36.42-.68.85-1,1.29-.36.41-.68.84-1,1.28-.36.41-.69.85-1,1.29-.36.42-.68.84-1,1.29-.36.41-.68.84-1,1.29-.36.41-.68.84-1,1.28-.25.29-.48.58-.7.88-2.46-4.4-5.71-8.35-9.73-11.78-9.23-7.88-20.76-11.88-34.58-11.88-4.46.02-8.92.41-13.27,1.18-4.34.77-8.67,1.93-12.83,3.43-5.64,2-11.38,4.72-17.07,8.08-.07.04-.15.09-.23.13-1.69-1.6-3.51-3.07-5.46-4.4-8.21-5.6-18.28-8.44-30.23-8.44-3.04.01-6.11.17-9.14.46-3.61.36-7.17,1.07-10.6,2.12-5.98,1.82-12.2,4.64-18.5,8.4-.28.17-.57.34-.86.51-.04-.04-.08-.08-.13-.13-6.97-6.9-16.01-10.4-27.09-10.4-4.9.02-9.97.58-15.06,1.65-5.15,1.08-10.32,2.83-15.11,5.07-5.18,2.08-10.2,4.74-14.93,7.92-4.3,2.9-8.68,6.19-13,9.78-2.34,1.94-4.16,4.44-5.29,7.26-.09.19-.18.38-.27.56-.38-3.8-1.32-7.41-2.78-10.76l.02-.05c.17-.37.33-.74.39-.91l.17-.38c.17-.38.34-.76.41-.96l.17-.39c.16-.36.33-.73.39-.91l.17-.38c.17-.37.33-.74.4-.93l.17-.38c.17-.37.33-.74.4-.94l.17-.39c.16-.36.33-.73.39-.92l.17-.39c.16-.36.32-.72.39-.9l.17-.38c.17-.37.33-.74.4-.94l.17-.39c.17-.37.33-.74.38-.9l.17-.38c.17-.38.34-.76.41-.96l.17-.39c.16-.36.33-.73.39-.91l.17-.38c.17-.37.33-.74.4-.93l.17-.38c.17-.37.33-.74.41-.96l.17-.4c.16-.36.32-.71.38-.89l.17-.38c.17-.37.33-.74.4-.94l.17-.39c.16-.36.33-.73.39-.91l.17-.39c.16-.36.32-.72.4-.93l.17-.39c.16-.36.33-.73.39-.92l.17-.39c.16-.36.33-.73.39-.91l.17-.38c.17-.37.33-.74.4-.95l.17-.39c.16-.36.33-.73.4-.93l.17-.4c.16-.36.32-.71.38-.89,2.15-5.11,3.23-10.48,3.2-15.97-.05-12.15-4.73-22.66-13.55-30.36-8.21-7.17-18.7-10.81-31.43-10.81-14.33.06-26.96,4.73-37.53,13.87-2.81,2.43-5.29,5.02-7.42,7.77-.44-.75-.89-1.49-1.36-2.23,0,0,0-.01,0-.02.17-.51.33-1.02.47-1.51.16-.49.31-.97.44-1.42.16-.49.32-.98.44-1.42.16-.5.32-1,.47-1.51.15-.48.31-.96.42-1.38.16-.5.33-1.01.48-1.54.15-.47.3-.95.46-1.48.15-.46.29-.92.43-1.4.15-.48.3-.96.44-1.45.15-.47.3-.95.44-1.44.16-.48.31-.96.45-1.48.15-.47.3-.95.44-1.42.16-.48.31-.96.45-1.46.16-.48.31-.96.45-1.46.15-.47.3-.94.41-1.35.16-.5.32-1,.5-1.61.14-.45.29-.9.42-1.38.15-.47.3-.95.46-1.48.11-.32.22-.64.25-.75.19-.58.37-1.16.47-1.51.18-.56.36-1.11.45-1.45.19-.57.36-1.13.44-1.44.19-.56.36-1.12.44-1.44.19-.57.36-1.13.45-1.46.19-.57.36-1.13.45-1.45.19-.57.36-1.12.45-1.45.19-.57.36-1.12.45-1.45.18-.56.35-1.11.45-1.45.19-.57.36-1.13.45-1.45.18-.56.36-1.12.44-1.44.19-.57.36-1.13.45-1.45.19-.57.36-1.13.45-1.45,1.27-3.87,1.91-7.86,1.9-11.87-.05-11.96-5.27-22.01-15.11-29.05-8.06-5.76-18.13-8.67-30.21-8.67-18.04.07-35.26,5.04-51.16,14.76-12.94,7.9-25.48,19.32-37.32,33.96-39.21.46-73.63,9.55-102.3,27.05-32.11,19.59-48.33,44.13-48.22,72.97l.02.61c-.01.22-.02.44-.02.63l.02.65c-.01.22-.02.44-.02.63l.02.67-.02.66.02.63-.02.65.02.63-.02.61.02.65c-.01.22-.02.44-.02.63l.02.65c-.01.22-.02.44-.02.68l.02.62-.02.62.02.65c-.01.22-.02.44-.02.63l.02.65c-.01.22-.02.44-.02.63l.02.67-.02.66.02.63-.02.65.02.61c-.01.22-.02.44-.02.63l.02.65c-.01.22-.02.44-.02.68l.02.63-.02.66.02.62-.02.62.02.65c-.01.22-.02.44-.02.63l.02.65c-.01.22-.02.44-.02.63l.02.67v.03c-18.36,4.34-35.07,13.3-49.71,26.66-22,20.08-33.1,44.02-32.99,71.15.01,3.19.22,6.48.6,9.71l13.02,107.02c1.78,17.56,9.91,32.64,24.18,44.83,15.4,13.16,34.36,19.84,56.38,19.84h.4c13.21-.05,25.74-2,37.38-5.8l-5.09,49.35c-.21,1.94-.3,3.73-.3,5.46.05,12.58,4.81,23.11,14.14,31.28,8.69,7.62,19.56,11.48,32.57,11.48h.02c14.71-.06,27.7-4.58,38.59-13.44,4.54-3.7,8.55-8.06,11.97-13,2.52,1.11,5.32,1.68,8.28,1.68,1.7,0,3.28-.18,4.81-.54,1.78-.4,3.48-1.05,4.99-1.9.25.39.5.77.77,1.15,5.2,7.36,13.03,11.41,22.08,11.41.96,0,1.84-.05,2.7-.15.66-.02,1.33-.09,1.93-.18,6.26-.97,12.08-3.58,17.35-7.79,5.19,4.7,11.59,7.15,18.78,7.15,2.05,0,4-.22,5.98-.67,1.21-.28,2.44-.61,3.68-.98.27-.08.54-.17.78-.26,1.84-.66,3.62-1.49,5.33-2.45.94.58,1.92,1.09,2.93,1.55l-.27.02c.04,8.56,3.59,15.94,10.27,21.33,4.92,3.96,10.78,6.25,17.57,6.83l-30.98,44.17c-9.06,12.87-13.61,27.27-13.55,42.79.09,20.54,8.07,38.22,23.74,52.52,15.19,13.88,33.76,20.92,55.2,20.92h.4c24.88-.1,47.4-7.16,66.89-20.96l46.18-31.93c1.38,2.22,2.97,4.29,4.77,6.19,7.25,7.67,16.56,11.73,26.92,11.73,2.11,0,4.15-.15,6.44-.44,2.19-.28,4.32-.7,6.09-1.2,6.46-1.45,12.8-4.13,19.01-8.06.26-.14.51-.29.96-.56.23-.13.46-.26.9-.52.25-.14.49-.28.92-.54.25-.14.49-.28.93-.55.23-.13.46-.26.9-.52.25-.14.5-.28.92-.54.25-.14.5-.28.92-.53.25-.14.5-.28.93-.54.25-.14.49-.28.9-.53.25-.14.5-.28.93-.54.25-.14.49-.28.94-.55.23-.13.46-.26.9-.52.25-.14.49-.28.91-.54.25-.14.5-.28.89-.51.26-.14.51-.29.96-.56.25-.14.5-.28.92-.54.23-.13.46-.26.9-.53.25-.14.5-.28.93-.54.25-.14.5-.28.88-.51.26-.14.51-.29.96-.56.25-.14.5-.28.92-.54.23-.13.47-.26.92-.54.24-.14.49-.27.91-.53.23-.13.46-.26.82-.47,1.36,2.44,2.88,4.71,4.54,6.78,8.63,10.77,20.22,16.47,33.72,16.47,2.88-.01,5.79-.34,8.67-.99,2.15-.49,4.37-1.09,6.62-1.77.27-.08.54-.17.8-.27,1.95-.71,3.94-1.58,5.98-2.6.4-.19.8-.38,1.12-.55l1.03-.5c.4-.19.8-.38,1.12-.55l1.03-.5c.4-.19.8-.39,1.08-.53.4-.19.8-.39,1.08-.53.4-.19.8-.38,1.09-.53.4-.19.8-.38,1.07-.52l1.11-.54c.4-.19.8-.38,1.05-.51l3.59-1.75c.27.28.55.56.83.83,6.72,6.52,15.02,10.16,24.85,10.84-1.1,1.43-1.96,3.05-2.52,4.8-.71,2.21-1.07,4.43-1.06,6.6v2.17c.06,12.73,5.35,23.71,15.31,31.75,9.04,7.27,20.33,10.96,33.85,10.96,7.57-.03,15.1-1.3,22.31-3.76l128.6-41.43c3.17-1.01,6.24-2.19,9.12-3.48,11.06-4.99,20.46-12.25,27.88-21.47,1.54-1.81,3.09-3.86,4.72-6.22l.25-.08c.34-.11.67-.22,1.04-.36l.48-.16c.34-.11.67-.22,1.06-.37l.45-.15c.35-.12.71-.23,1.12-.39l.5-.17c.32-.11.63-.21,1.01-.36l.47-.16c.34-.11.68-.22,1.07-.37l.46-.15c.35-.11.7-.23,1.11-.39l.5-.17c.32-.11.64-.21,1.01-.36l.46-.15c.35-.11.7-.23,1.12-.39l.5-.17c.32-.1.64-.21,1.03-.36l.5-.17c.32-.11.64-.21,1.01-.36l.47-.16c.34-.11.68-.22,1.1-.38l.47-.16c.34-.11.67-.22,1.05-.37l.48-.16c.34-.11.67-.22,1.09-.38l.47-.16c.34-.11.67-.22,1.06-.37l.5-.17c.32-.11.64-.21,1.01-.36l.48-.16c.34-.11.67-.22,1.09-.38l.47-.16c.34-.11.67-.22,1.07-.37l.5-.17c.32-.11.64-.21,1.01-.36l.45-.15c.35-.12.71-.23,1.12-.39l.48-.16c.34-.11.67-.22,1.07-.37l.5-.17c.32-.11.63-.21,1.01-.36l.47-.16c.34-.11.68-.22,1.1-.38l.47-.16c.34-.11.67-.22,1.04-.36l.48-.16c.34-.11.67-.22,1.09-.38l.47-.16c.34-.11.67-.22,1.06-.37l.5-.17c.32-.11.64-.21,1.02-.36l.48-.16c.33-.11.66-.22,1.08-.38l.47-.16c.34-.11.68-.22,1.08-.37l.5-.17c.32-.1.63-.21,1.03-.36l.47-.16c.34-.11.67-.22,1.07-.37l.51-.17c.32-.1.63-.2,1.04-.36l.5-.17c.32-.11.64-.21,1.02-.36l.46-.15c.35-.11.7-.23,1.11-.39l.5-.17c.32-.11.63-.21,1.01-.36l.48-.16c.34-.11.67-.22,1.09-.38l.5-.17c.32-.11.63-.21,1.04-.36l.5-.17c.32-.11.64-.21,1.02-.36l.48-.16c.33-.11.66-.22,1.09-.38l.47-.16c.34-.11.68-.22,1.07-.37l.5-.17c.32-.1.63-.21,1.03-.36l.47-.16c.34-.11.68-.22,1.07-.37l.5-.17c.32-.11.64-.21,1.05-.36l.5-.17c.32-.1.64-.21,1.04-.36l.47-.16c.34-.11.67-.22,1.06-.37l.5-.17c.32-.11.64-.21,1.05-.37l.47-.16c.34-.11.67-.22,1.07-.37l.5-.17c.32-.11.63-.21,1.05-.36l.5-.17c.32-.1.63-.21,1.03-.36l.49-.16c.32-.11.64-.21,1.05-.37l.47-.16c.34-.11.68-.22,1.08-.37l.5-.17c.32-.1.63-.21,1.03-.36l.47-.16c.34-.11.68-.22,1.07-.37l.5-.17c.32-.11.63-.21,1.04-.36l.5-.17c.32-.11.64-.21,1.05-.37l.47-.16c.34-.11.67-.22,1.08-.37l.5-.17c.32-.1.64-.21,1.04-.36l.47-.16c.34-.11.67-.22,1.06-.37l.5-.17c.32-.11.64-.21,1.05-.36l.5-.17c.32-.1.63-.21,1.04-.36l.47-.16c.34-.11.68-.22,1.07-.37l.5-.17c.32-.11.64-.21,1.05-.37l.5-.17c.32-.1.64-.2,1.04-.36l.48-.16c.34-.11.67-.22,1.08-.37l.5-.17c.32-.1.64-.21,1.03-.36l.5-.17c.32-.11.64-.21,1.05-.37l.47-.16c.34-.11.67-.22.79-.27l.73-.25c.34-.11.67-.22,1.09-.38l.47-.16c.34-.11.67-.22,1.06-.37l.5-.17c.32-.11.64-.21,1.05-.36l.5-.17c.32-.1.63-.21,1.04-.36l.47-.16c.34-.11.68-.22,1.07-.37l.5-.17c.32-.1.63-.21,1.03-.36l.47-.16c.34-.11.67-.22,1.07-.37l.48-.16c.34-.11.67-.22,1.08-.37l.5-.17c.32-.1.64-.21,1.01-.35l.52-.17c.32-.11.65-.21.97-.33,7.07-2.62,13.63-6.02,19.5-10.12,1.63-.93,3.15-1.98,4.49-3.11.18-.15.37-.29.59-.44.38-.26.75-.53,1.11-.82,5.78-4.61,10.16-9.09,13.39-13.7,4.36-6.26,6.56-12.65,6.53-18.99-.04-8.52-3.81-14.04-6.96-17.17-4.5-4.46-10.3-6.82-16.78-6.82Zm-709.33,13.2h0s0,0,0,0Zm-24.66-35.62h.67s-.69.05-.69.05l.02-.05Zm-.74,71.84h0s0,0,0,0h0Zm142.54,78.78h0s0,0,0,0Z"/>
  <path class="cls-3" d="m449.39,198.29c12.2-16.34,24.87-28.49,37.99-36.44,13.13-7.95,27.05-11.92,41.79-11.92,8.06,0,14.56,1.79,19.51,5.35,4.95,3.57,7.43,8.35,7.43,14.33s-2.88,11.86-8.63,16.93c-5.76,5.07-12.32,7.6-19.69,7.6-1.85,0-3.11-.17-3.8-.52-.69-.35-1.38-1.21-2.07-2.59-.23-.69-.46-1.44-.69-2.25-.23-.8-.46-1.78-.69-2.93,0-.23-.12-.46-.34-.69-.46-.69-1.27-1.32-2.42-1.9-1.15-.57-2.3-.98-3.45-1.21h-3.63c-.58,0-1.1.12-1.56.34-4.83.46-9.56,2.3-14.16,5.53-4.61,3.23-8.76,7.48-12.44,12.78,21.64,2.99,38.91,11.46,51.81,25.39,12.89,13.93,19.34,30.91,19.34,50.94,0,22.34-6.85,41.79-20.55,58.37-13.7,16.58-29.99,24.87-48.87,24.87-11.51,0-21.24-3.51-29.19-10.53-7.94-7.02-11.92-15.71-11.92-26.08v-2.76c.46-7.37,2.3-14.16,5.53-20.38,3.22-6.22,6.68-9.78,10.36-10.71h2.07c.92,0,1.73.23,2.42.69.69.46,1.26,1.15,1.73,2.07.23.46.46.98.69,1.55.23.58.46,1.21.69,1.9.69,1.85,1.84,3.34,3.45,4.49,1.61,1.15,3.34,1.73,5.18,1.73,5.29,0,10.19-3.16,14.68-9.5,4.49-6.33,6.96-13.3,7.43-20.9v-2.07c0-9.44-3-17.56-8.98-24.35-5.99-6.79-14.05-11.22-24.18-13.3-3.45,8.29-6.16,14.8-8.12,19.51-1.96,4.72-3.51,9.15-4.66,13.3-.23.69-.46,1.38-.69,2.07-.23.69-.46,1.27-.69,1.73-.23.69-.41,1.33-.52,1.9-.12.58-.29,1.1-.52,1.56-1.38,4.38-2.82,9.39-4.32,15.02-1.5,5.64-3.17,11.92-5.01,18.83l-6.91,27.63-3.11,14.16c-9.44,39.15-25.04,68.9-46.8,89.28-21.76,20.38-48.65,30.57-80.65,30.57-21.88,0-40.3-6.45-55.26-19.34-14.97-12.9-22.45-28.78-22.45-47.66,0-21.87,9.1-41.04,27.29-57.51,18.19-16.46,39.49-24.7,63.9-24.7,5.75,0,10.42.98,13.99,2.93,3.57,1.96,5.35,4.55,5.35,7.77v1.73c-.23.69-.75,1.61-1.55,2.76-.81,1.15-2.36,3.23-4.66,6.22-.23.46-.52.98-.86,1.56-.35.58-.52,1.1-.52,1.55-.23.69-.4,1.33-.52,1.9-.12.58-.17,1.1-.17,1.56,0,4.38,1.84,8.18,5.53,11.4,3.68,3.23,8.06,4.83,13.12,4.83,2.07,0,4.08-.22,6.05-.69,1.95-.46,4.08-1.04,6.39-1.73,4.15-1.61,8.23-3.85,12.26-6.73,4.03-2.88,7.54-6.27,10.54-10.19,1.38-1.84,2.76-3.8,4.14-5.87s2.64-4.26,3.8-6.56c2.07-3.45,4.08-7.6,6.05-12.43,1.95-4.83,4.2-10.59,6.73-17.27,2.3-5.98,4.08-10.82,5.35-14.51,1.26-3.68,2.59-6.91,3.97-9.67,0-.46.11-.86.35-1.21.22-.34.34-.74.34-1.21,1.61-3.91,3.63-8.34,6.05-13.3,2.42-4.95,5.92-12.37,10.53-22.28.23-.46.57-1.32,1.04-2.59.46-1.26,1.15-2.7,2.07-4.32-.92.23-1.73.41-2.42.52-.69.12-1.5.29-2.42.52-4.15.69-7.6,1.5-10.36,2.42-2.76.92-5.41,2.07-7.94,3.45-.69.46-1.33.81-1.9,1.04-.58.23-1.1.58-1.56,1.04-2.07,1.38-4.09,3.05-6.04,5.01-1.96,1.96-3.51,3.97-4.66,6.04-.92,1.61-1.67,3.17-2.25,4.66-.58,1.5-.86,2.82-.86,3.97,0,1.61.23,2.88.69,3.8.46.92,1.26,1.85,2.42,2.76.92.69,1.95,1.33,3.11,1.9,1.15.58,2.64,1.21,4.49,1.9.92.23,1.61.81,2.07,1.73.46.92.69,1.96.69,3.11-.23,2.3-1.04,4.95-2.42,7.94-1.38,3-3.57,6.22-6.56,9.67-6.45,7.37-13.59,13.07-21.42,17.1-7.83,4.03-16.01,6.05-24.52,6.05-11.52,0-21.3-3.57-29.36-10.71-8.06-7.13-12.09-16-12.09-26.6,0-22.1,13.24-41.15,39.72-57.16,26.48-16,58.14-24.01,94.98-24.01h6.91Z"/>
  <path class="cls-2" d="m529.17,149.94c8.06,0,14.56,1.79,19.51,5.35,4.95,3.57,7.43,8.35,7.43,14.33s-2.88,11.86-8.63,16.93c-5.76,5.07-12.32,7.6-19.69,7.6-1.85,0-3.11-.17-3.8-.52-.69-.35-1.38-1.21-2.07-2.59-.23-.69-.46-1.44-.69-2.25-.23-.8-.46-1.78-.69-2.93,0-.23-.12-.46-.34-.69-.46-.69-1.27-1.32-2.42-1.9-1.15-.57-2.3-.98-3.45-1.21h-3.63c-.58,0-1.1.12-1.56.34-4.83.46-9.56,2.3-14.16,5.53-4.61,3.23-8.76,7.48-12.44,12.78,21.64,2.99,38.91,11.46,51.81,25.39,12.89,13.93,19.34,30.91,19.34,50.94,0,22.34-6.85,41.79-20.55,58.37-13.7,16.58-29.99,24.87-48.87,24.87-11.51,0-21.24-3.51-29.19-10.53-7.94-7.02-11.92-15.71-11.92-26.08v-2.76c.46-7.37,2.3-14.16,5.53-20.38,3.22-6.22,6.68-9.78,10.36-10.71h2.07c.92,0,1.73.23,2.42.69.69.46,1.26,1.15,1.73,2.07.23.46.46.98.69,1.55.23.58.46,1.21.69,1.9.69,1.85,1.84,3.34,3.45,4.49,1.61,1.15,3.34,1.73,5.18,1.73,5.29,0,10.19-3.16,14.68-9.5,4.49-6.33,6.96-13.3,7.43-20.9v-2.07c0-9.44-3-17.56-8.98-24.35-5.99-6.79-14.05-11.22-24.18-13.3-3.45,8.29-6.16,14.8-8.12,19.51-1.96,4.72-3.51,9.15-4.66,13.3-.23.69-.46,1.38-.69,2.07-.23.69-.46,1.27-.69,1.73-.23.69-.41,1.33-.52,1.9-.12.58-.29,1.1-.52,1.56-1.38,4.38-2.82,9.39-4.32,15.02-1.5,5.65-3.17,11.92-5.01,18.83l-6.91,27.63-3.11,14.16c-9.44,39.15-25.04,68.9-46.8,89.28-21.76,20.38-48.65,30.57-80.65,30.57-21.88,0-40.3-6.45-55.26-19.34-14.97-12.9-22.45-28.78-22.45-47.66,0-21.87,9.1-41.04,27.29-57.51,18.19-16.46,39.49-24.7,63.9-24.7,5.75,0,10.42.98,13.99,2.93,3.57,1.96,5.35,4.55,5.35,7.77v1.73c-.23.69-.75,1.61-1.55,2.76-.81,1.15-2.36,3.23-4.66,6.22-.23.46-.52.98-.86,1.56-.35.58-.52,1.1-.52,1.55-.23.69-.4,1.33-.52,1.9-.12.58-.17,1.1-.17,1.56,0,4.38,1.84,8.18,5.53,11.4,3.68,3.23,8.06,4.83,13.12,4.83,2.07,0,4.09-.22,6.05-.69,1.95-.46,4.09-1.04,6.39-1.73,4.15-1.61,8.23-3.85,12.26-6.73,4.03-2.88,7.54-6.27,10.54-10.19,1.38-1.84,2.76-3.8,4.14-5.87,1.38-2.07,2.64-4.26,3.8-6.56,2.07-3.45,4.08-7.6,6.05-12.43,1.95-4.83,4.2-10.59,6.73-17.27,2.3-5.98,4.09-10.82,5.35-14.51,1.26-3.68,2.59-6.91,3.97-9.67,0-.46.11-.86.35-1.21.22-.34.34-.74.34-1.21,1.61-3.91,3.63-8.34,6.05-13.3,2.42-4.95,5.92-12.37,10.53-22.28.23-.46.57-1.32,1.04-2.59.46-1.26,1.15-2.7,2.07-4.32-.92.23-1.73.41-2.42.52-.69.12-1.5.29-2.42.52-4.15.69-7.6,1.5-10.36,2.42-2.76.92-5.41,2.07-7.94,3.45-.69.46-1.33.81-1.9,1.04-.58.23-1.1.58-1.56,1.04-2.07,1.38-4.09,3.05-6.04,5.01-1.96,1.96-3.51,3.97-4.66,6.04-.92,1.61-1.67,3.17-2.25,4.66-.58,1.5-.86,2.82-.86,3.97,0,1.61.23,2.88.69,3.8.46.92,1.26,1.85,2.42,2.76.92.69,1.95,1.33,3.11,1.9,1.15.58,2.64,1.21,4.49,1.9.92.23,1.61.81,2.07,1.73.46.92.69,1.96.69,3.11-.23,2.3-1.04,4.95-2.42,7.94-1.38,3-3.57,6.22-6.56,9.67-6.45,7.37-13.59,13.07-21.42,17.1-7.83,4.03-16.01,6.05-24.52,6.05-11.52,0-21.3-3.57-29.36-10.71-8.06-7.13-12.09-16-12.09-26.6,0-22.1,13.24-41.15,39.72-57.16,26.48-16,58.14-24.01,94.98-24.01h6.91c12.2-16.34,24.87-28.49,37.99-36.44,13.13-7.95,27.05-11.92,41.79-11.92m0-4.92c-15.58,0-30.5,4.25-44.34,12.63-13.06,7.91-25.8,19.92-37.89,35.73h-4.46c-37.58,0-70.39,8.32-97.52,24.72-27.93,16.88-42.09,37.53-42.09,61.37,0,12.02,4.63,22.21,13.75,30.28,1.78,1.58,3.64,3,5.58,4.27-2.02-.29-4.18-.43-6.47-.43-25.55,0-48.16,8.74-67.2,25.97-19.18,17.36-28.9,37.94-28.9,61.15,0,20.29,8.13,37.58,24.16,51.39,15.81,13.63,35.49,20.53,58.47,20.53,33.14,0,61.41-10.73,84.01-31.9,22.37-20.95,38.59-51.8,48.22-91.72l3.13-14.26,1.14-4.55c1.4,8.99,5.79,16.79,13.08,23.24,8.83,7.81,19.74,11.77,32.44,11.77,20.33,0,38.05-8.97,52.66-26.65,14.38-17.41,21.68-38.1,21.68-61.5,0-21.21-6.95-39.48-20.65-54.28-11.91-12.86-27.47-21.4-46.35-25.44,1.96-2.05,4.02-3.84,6.18-5.35,3.88-2.71,7.85-4.28,11.81-4.66l.89-.09.48-.24h2.78c.59.15,1.2.39,1.83.7.14.07.25.13.34.18.18.85.38,1.62.57,2.3.24.86.5,1.68.75,2.45l.11.33.15.31c1.21,2.41,2.56,3.93,4.26,4.79,1.45.72,3.3,1.04,6,1.04,8.56,0,16.28-2.97,22.93-8.82,6.84-6.02,10.3-12.95,10.3-20.62s-3.27-13.85-9.46-18.32c-5.79-4.17-13.32-6.28-22.39-6.28h0Zm-74.52,125.56c.27-.58.52-1.23.78-1.99l.67-2.01.04-.12.06-.19c1.09-3.94,2.6-8.22,4.47-12.73,1.64-3.95,3.8-9.16,6.5-15.63,7.26,2.09,13.04,5.64,17.57,10.78,5.21,5.92,7.75,12.82,7.75,21.1v1.92c-.43,6.67-2.57,12.63-6.52,18.21-3.49,4.93-7.08,7.43-10.67,7.43-.81,0-1.55-.26-2.31-.8-.83-.59-1.37-1.29-1.72-2.22-.2-.62-.46-1.32-.72-1.97-.3-.74-.58-1.36-.85-1.92-.88-1.74-2.01-3.06-3.4-3.99-1.51-1-3.28-1.53-5.16-1.53h-2.68l-.59.15c-3.34.84-6.38,2.94-9.17,6.38l.47-1.75.32-1.19c1.43-5.4,2.83-10.27,4.16-14.51.32-.72.57-1.51.74-2.34.06-.33.16-.69.28-1.07h0Zm-44.18-27.31c2.2-1.19,4.54-2.2,6.96-3.01,1.49-.5,3.23-.96,5.19-1.39-4.29,9.2-7.43,15.83-9.61,20.3-2.02,4.14-3.78,7.96-5.25,11.38-1.07-2.02-2.78-3.44-4.86-4.06-1.58-.6-2.86-1.14-3.82-1.62-.88-.44-1.67-.92-2.36-1.44-.74-.59-.94-.98-.97-1.02,0-.01-.18-.43-.18-1.61,0-.3.07-1,.54-2.21.48-1.25,1.13-2.59,1.92-3.99.95-1.72,2.25-3.38,3.87-5,1.72-1.72,3.5-3.2,5.3-4.4l.41-.27.34-.34c.73-.27,1.61-.74,2.51-1.33h0Zm-61.25,78.41c9.27,0,18.28-2.22,26.77-6.59,7.59-3.9,14.64-9.33,20.99-16.16-.07.17-.13.35-.2.52-2.51,6.6-4.76,12.38-6.7,17.19-1.86,4.59-3.78,8.54-5.7,11.74l-.1.16-.08.17c-1.07,2.13-2.24,4.16-3.49,6.04-1.32,1.98-2.66,3.89-3.99,5.65-2.65,3.47-5.84,6.55-9.46,9.14-3.63,2.59-7.33,4.64-11,6.08-2.16.64-4.15,1.18-5.91,1.59-1.57.37-3.23.56-4.93.56-3.88,0-7.11-1.18-9.88-3.61-2.63-2.3-3.85-4.74-3.85-7.7,0-.06,0-.25.07-.56.08-.42.2-.85.36-1.33l.26-.76v-.13c.24-.4.45-.78.63-1.14,2.16-2.82,3.68-4.85,4.52-6.04,1.1-1.58,1.8-2.86,2.19-4.02l.26-.76v-2.53c0-2.62-.76-6.03-3.82-9.08,4.12,1.04,8.48,1.56,13.06,1.56h0Z"/>
  <path class="cls-3" d="m558.87,334.03c.46-2.3.81-4.32,1.04-6.05.23-1.73.34-3.39.34-5.01,0-2.53-.64-4.78-1.9-6.73-1.27-1.96-3.17-3.63-5.7-5.01,8.06-6.68,15.94-11.68,23.66-15.02,7.71-3.34,15.14-5.01,22.28-5.01,5.98,0,10.71,1.44,14.16,4.32,3.45,2.88,5.29,6.85,5.53,11.92v3.63c0,1.27-.23,2.48-.69,3.63l-11.74,54.92c0,.47-.06.92-.17,1.38-.12.46-.29.92-.52,1.38-.23,1.15-.4,2.3-.52,3.45-.12,1.15-.17,2.07-.17,2.76,0,3.69.92,6.62,2.76,8.81,1.84,2.19,4.37,3.28,7.6,3.28h2.07c.69-.22,1.44-.46,2.24-.69.81-.22,1.44-.46,1.9-.69,2.07-.92,3.86-1.61,5.35-2.07,1.49-.46,2.7-.69,3.63-.69,1.15,0,2.25.52,3.28,1.55,1.04,1.04,1.56,2.48,1.56,4.32,0,2.07-.69,4.38-2.07,6.91-1.38,2.54-3.23,5.07-5.53,7.6-1.38,1.15-2.76,2.36-4.15,3.63-1.38,1.27-3,2.48-4.83,3.63-2.54,1.61-5.13,3.11-7.77,4.49-2.65,1.38-5.24,2.65-7.77,3.8-4.38,1.61-8.63,2.88-12.78,3.8-4.14.92-8.06,1.38-11.74,1.38-9.44,0-17.22-2.59-23.31-7.77-6.1-5.18-9.15-11.92-9.15-20.2,0-.92.05-1.9.17-2.93.11-1.04.17-2.13.17-3.28.22-.46.4-.98.52-1.56.11-.57.17-1.09.17-1.55l12.09-56.3Zm64.93-101.37c4.83,4.26,7.25,9.84,7.25,16.75,0,7.83-3.92,14.85-11.74,21.07-7.83,6.22-16.92,9.32-27.29,9.32-7.14,0-12.95-2.07-17.44-6.22-4.49-4.15-6.74-9.44-6.74-15.89,0-8.52,3.63-15.89,10.88-22.1,7.25-6.22,15.83-9.33,25.73-9.33,8.06,0,14.51,2.13,19.34,6.39Z"/>
  <path class="cls-2" d="m604.47,226.27c8.06,0,14.51,2.13,19.34,6.39,4.83,4.26,7.25,9.84,7.25,16.75,0,7.83-3.92,14.85-11.74,21.07-7.83,6.22-16.92,9.32-27.29,9.32-7.14,0-12.95-2.07-17.44-6.22-4.49-4.15-6.74-9.44-6.74-15.89,0-8.52,3.63-15.89,10.88-22.1,7.25-6.22,15.83-9.33,25.73-9.33m-5.87,64.93c5.98,0,10.71,1.44,14.16,4.32,3.45,2.88,5.29,6.85,5.53,11.92v3.63c0,1.27-.23,2.48-.69,3.63l-11.74,54.92c0,.47-.06.92-.17,1.38-.12.46-.29.92-.52,1.38-.23,1.15-.4,2.3-.52,3.45-.12,1.15-.17,2.07-.17,2.76,0,3.69.92,6.62,2.76,8.81,1.84,2.19,4.37,3.28,7.6,3.28h2.07c.69-.22,1.44-.46,2.24-.69.81-.22,1.44-.46,1.9-.69,2.07-.92,3.86-1.61,5.35-2.07,1.49-.46,2.7-.69,3.63-.69,1.15,0,2.25.52,3.28,1.55,1.04,1.04,1.56,2.48,1.56,4.32,0,2.07-.69,4.38-2.07,6.91-1.38,2.54-3.23,5.07-5.53,7.6-1.38,1.15-2.76,2.36-4.15,3.63-1.38,1.27-3,2.48-4.83,3.63-2.54,1.61-5.13,3.11-7.77,4.49-2.65,1.38-5.24,2.65-7.77,3.8-4.38,1.61-8.63,2.88-12.78,3.8-4.14.92-8.06,1.38-11.74,1.38-9.44,0-17.22-2.59-23.31-7.77-6.1-5.18-9.15-11.92-9.15-20.2,0-.92.05-1.9.17-2.93.11-1.04.17-2.13.17-3.28.22-.46.4-.98.52-1.56.11-.57.17-1.09.17-1.55l12.09-56.3c.46-2.3.81-4.32,1.04-6.05.23-1.73.34-3.39.34-5.01,0-2.53-.64-4.78-1.9-6.73-1.27-1.96-3.17-3.63-5.7-5.01,8.06-6.68,15.94-11.68,23.66-15.02,7.71-3.34,15.14-5.01,22.28-5.01m5.87-69.85c-11.06,0-20.8,3.54-28.93,10.51-8.36,7.17-12.6,15.86-12.6,25.84,0,7.84,2.8,14.4,8.32,19.5,5.41,4.99,12.4,7.52,20.78,7.52,11.45,0,21.66-3.5,30.34-10.39,9.03-7.17,13.6-15.56,13.6-24.92,0-8.34-3-15.22-8.92-20.44-5.74-5.06-13.34-7.62-22.59-7.62h0Zm-5.87,64.93c-7.78,0-15.93,1.82-24.23,5.41-8.11,3.51-16.46,8.81-24.84,15.75l.7,4.81.08,3.29c1.79.98,3.11,2.11,3.93,3.37.74,1.15,1.11,2.49,1.11,4.06,0,1.37-.1,2.84-.3,4.37-.22,1.6-.55,3.53-.98,5.72l-12.07,56.23-.11.51v.52s0,.23-.08.6c-.04.18-.09.3-.11.34l-.5,1.02v1.14c0,.94-.05,1.87-.14,2.75-.13,1.15-.2,2.33-.2,3.46,0,9.76,3.66,17.82,10.89,23.95,6.98,5.93,15.89,8.94,26.49,8.94,4.01,0,8.32-.5,12.81-1.5,4.37-.97,8.88-2.31,13.42-3.99l.17-.06.16-.07c2.56-1.16,5.26-2.48,8.02-3.92,2.78-1.45,5.52-3.03,8.14-4.7,2.05-1.28,3.92-2.68,5.52-4.15,1.31-1.2,2.65-2.37,3.98-3.48l.26-.22.23-.25c2.56-2.82,4.65-5.7,6.2-8.55,1.77-3.25,2.67-6.36,2.67-9.26,0-3.97-1.63-6.43-2.99-7.8-2.47-2.47-5.04-2.99-6.76-2.99-1.42,0-3.08.3-5.07.91-1.69.52-3.61,1.26-5.9,2.27l-.12.05-.12.06s-.3.15-1,.34c-.61.17-1.16.34-1.69.51h-1.3c-2.26,0-3.24-.82-3.83-1.53-1.09-1.29-1.61-3.13-1.61-5.65,0-.38.03-1.08.15-2.27.08-.82.2-1.64.34-2.45.23-.55.42-1.1.56-1.66.17-.69.27-1.35.31-2.01l11.58-54.12c.58-1.6.88-3.29.88-5.02v-3.85c-.3-6.47-2.75-11.67-7.29-15.46-4.35-3.62-10.18-5.46-17.31-5.46h0Z"/>
  <path class="cls-3" d="m640.04,424.52l19.69-89.8c.23-.69.35-1.38.35-2.07s.11-1.26.34-1.73c.23-1.38.4-2.76.52-4.14.11-1.38.17-2.53.17-3.45,0-3.45-.52-6.04-1.55-7.77-1.04-1.73-3.05-3.28-6.05-4.66,3.91-3.22,7.77-6.1,11.57-8.63,3.8-2.53,7.77-4.6,11.92-6.22,3.91-1.84,7.83-3.16,11.74-3.97,3.91-.81,7.71-1.21,11.4-1.21,5.98,0,10.71,1.73,14.16,5.18,3.45,3.45,5.29,8.41,5.53,14.85,6.68-5.29,12.55-9.44,17.61-12.43,5.06-2.99,9.9-5.18,14.51-6.56,2.3-.69,4.66-1.15,7.08-1.38,2.42-.23,4.89-.34,7.43-.34,8.06,0,14.68,1.78,19.86,5.35,5.18,3.57,8.69,8.69,10.54,15.37,5.06-4.14,9.95-7.6,14.68-10.36,4.72-2.76,9.38-4.95,13.99-6.56,3.22-1.15,6.5-2.01,9.84-2.59,3.34-.57,6.73-.86,10.19-.86,9.21,0,16.75,2.54,22.62,7.6,5.87,5.07,8.81,11.63,8.81,19.69,0,1.15-.06,2.25-.17,3.28-.12,1.04-.17,2.02-.17,2.93-.23.46-.35.98-.35,1.56s-.12,1.1-.34,1.55l-9.32,44.21c0,.23-.06.46-.17.69-.12.23-.17.46-.17.69-.23,1.38-.46,2.76-.69,4.14-.23,1.38-.34,2.42-.34,3.11,0,3,.98,5.53,2.93,7.6,1.95,2.07,4.32,3.11,7.08,3.11h1.56c.57,0,1.21-.11,1.9-.34.46,0,.98-.11,1.55-.35.57-.22,1.09-.46,1.56-.69,1.84-.69,3.45-1.26,4.83-1.73,1.38-.46,2.53-.69,3.45-.69,1.38,0,2.59.58,3.63,1.73,1.04,1.15,1.55,2.53,1.55,4.14-.23,2.54-1.38,5.35-3.45,8.46-2.07,3.11-5.07,6.28-8.98,9.5-.69.69-1.44,1.33-2.24,1.9-.81.58-1.67,1.21-2.59,1.9-4.38,3.23-8.98,5.82-13.82,7.77-4.83,1.96-9.79,3.39-14.85,4.32-1.85.23-3.69.46-5.53.69-1.85.22-3.69.34-5.53.34-9.67,0-17.56-2.59-23.66-7.77-6.1-5.18-9.15-11.92-9.15-20.2,0-.69.05-1.44.17-2.24.11-.81.17-1.67.17-2.59.23-.46.4-.86.52-1.21.11-.35.17-.74.17-1.21l8.29-35.92c.46-1.15.74-2.3.86-3.45.11-1.15.17-2.19.17-3.11,0-3.68-.81-6.39-2.42-8.12-1.61-1.73-4.03-2.59-7.25-2.59-4.38,0-7.95,1.73-10.71,5.18-2.76,3.45-5.07,9.21-6.91,17.27l-8.29,39.03-4.49,23.83h-53.88l12.78-68.04c.23-.69.4-1.38.52-2.07.11-.69.17-1.38.17-2.07.23-.69.35-1.44.35-2.25v-2.93c0-2.53-.81-4.6-2.42-6.22-1.61-1.61-3.69-2.42-6.22-2.42-4.38,0-8.06,1.85-11.05,5.53-3,3.68-5.41,9.56-7.25,17.61l-13.47,62.86h-55.26Z"/>
  <path class="cls-2" d="m766.45,290.17c8.06,0,14.68,1.78,19.86,5.35,5.18,3.57,8.69,8.69,10.54,15.37,5.06-4.14,9.95-7.6,14.68-10.36,4.72-2.76,9.38-4.95,13.99-6.56,3.22-1.15,6.5-2.01,9.84-2.59,3.34-.57,6.73-.86,10.19-.86,9.21,0,16.75,2.54,22.62,7.6,5.87,5.07,8.81,11.63,8.81,19.69,0,1.16-.06,2.25-.17,3.28-.12,1.04-.17,2.02-.17,2.93-.23.46-.35.98-.35,1.56s-.12,1.1-.34,1.55l-9.32,44.21c0,.23-.06.46-.17.69-.12.23-.17.46-.17.69-.23,1.38-.46,2.76-.69,4.14-.23,1.38-.34,2.42-.34,3.11,0,3,.98,5.53,2.93,7.6,1.95,2.07,4.32,3.11,7.08,3.11h1.56c.57,0,1.21-.11,1.9-.34.46,0,.98-.11,1.55-.35.57-.22,1.09-.46,1.56-.69,1.84-.69,3.45-1.26,4.83-1.73,1.38-.46,2.53-.69,3.45-.69,1.38,0,2.59.58,3.63,1.73,1.04,1.15,1.55,2.53,1.55,4.14-.23,2.54-1.38,5.35-3.45,8.46-2.07,3.11-5.07,6.28-8.98,9.5-.69.69-1.44,1.33-2.24,1.9-.81.58-1.67,1.21-2.59,1.9-4.38,3.23-8.98,5.82-13.82,7.77-4.83,1.96-9.79,3.39-14.85,4.32-1.85.23-3.69.46-5.53.69-1.85.22-3.69.34-5.53.34-9.67,0-17.56-2.59-23.66-7.77-6.1-5.18-9.15-11.92-9.15-20.2,0-.69.05-1.44.17-2.24.11-.81.17-1.67.17-2.59.23-.46.4-.86.52-1.21.11-.35.17-.74.17-1.21l8.29-35.92c.46-1.15.74-2.3.86-3.45.11-1.15.17-2.19.17-3.11,0-3.68-.81-6.39-2.42-8.12-1.61-1.73-4.03-2.59-7.25-2.59-4.38,0-7.95,1.73-10.71,5.18-2.76,3.45-5.07,9.21-6.91,17.27l-8.29,39.03-4.49,23.83h-53.88l12.78-68.04c.23-.69.4-1.38.52-2.07.11-.69.17-1.38.17-2.07.23-.69.35-1.44.35-2.25v-2.93c0-2.53-.81-4.6-2.42-6.22-1.61-1.61-3.69-2.42-6.22-2.42-4.38,0-8.06,1.85-11.05,5.53-3,3.68-5.41,9.56-7.25,17.61l-13.47,62.86h-55.26l19.69-89.8c.23-.69.35-1.38.35-2.07s.11-1.26.34-1.73c.23-1.38.4-2.76.52-4.14.11-1.38.17-2.53.17-3.45,0-3.45-.52-6.04-1.55-7.77-1.04-1.73-3.05-3.28-6.05-4.66,3.91-3.22,7.77-6.1,11.57-8.63,3.8-2.53,7.77-4.61,11.92-6.22,3.91-1.84,7.83-3.16,11.74-3.97,3.91-.81,7.71-1.21,11.4-1.21,5.98,0,10.71,1.73,14.16,5.18,3.45,3.45,5.29,8.41,5.53,14.85,6.68-5.29,12.55-9.44,17.61-12.43,5.06-2.99,9.9-5.18,14.51-6.56,2.3-.69,4.66-1.15,7.08-1.38,2.42-.23,4.89-.34,7.43-.34m0-4.92c-2.65,0-5.3.12-7.89.37-2.75.26-5.45.79-8.04,1.57-4.96,1.49-10.21,3.86-15.59,7.04-3.49,2.06-7.37,4.67-11.59,7.78-1.16-3.73-3.02-6.89-5.57-9.44-4.4-4.39-10.33-6.62-17.64-6.62-4,0-8.17.44-12.39,1.31-4.22.87-8.49,2.31-12.69,4.26-4.4,1.73-8.68,3.96-12.7,6.65-3.93,2.62-7.96,5.63-11.97,8.93l-6.04,4.98,7.11,3.28c2.81,1.3,3.66,2.34,3.89,2.73.26.43.85,1.79.85,5.24,0,.77-.05,1.79-.15,3.06-.09,1.06-.22,2.14-.39,3.22-.33.93-.49,1.95-.49,3.05,0,.15-.03.33-.1.53l-.08.24-.05.25-19.69,89.8-1.31,5.97h65.35l.83-3.89,13.47-62.86c1.65-7.22,3.76-12.47,6.26-15.54,2.06-2.53,4.36-3.71,7.24-3.71,1.56,0,2.29.53,2.75.98.45.45.97,1.18.97,2.73v2.93c0,.27-.03.5-.1.71l-.25.75v.79c0,.41-.04.84-.11,1.28-.07.41-.19.87-.34,1.33l-.1.31-.06.32-12.78,68.04-1.09,5.82h63.88l.75-4.01,4.49-23.83,8.27-38.92c2.06-9.01,4.36-13.25,5.94-15.22,1.82-2.28,4-3.34,6.87-3.34,1.23,0,2.86.18,3.66,1.03.7.75,1.1,2.48,1.1,4.76,0,.73-.05,1.61-.15,2.63-.07.68-.25,1.38-.54,2.11l-.14.35-.08.37-8.29,35.92-.13.55v.42c-.05.1-.11.24-.18.38l-.51,1.03v1.15c0,.68-.04,1.32-.12,1.91-.14.97-.22,1.97-.22,2.92,0,9.76,3.66,17.82,10.89,23.95,6.98,5.93,16.01,8.94,26.84,8.94,1.99,0,4.05-.13,6.12-.38l5.53-.69.14-.02.14-.03c5.39-.98,10.71-2.53,15.81-4.6,5.19-2.1,10.2-4.92,14.89-8.37.92-.69,1.75-1.3,2.52-1.85.95-.68,1.85-1.43,2.7-2.26,4.19-3.47,7.47-6.98,9.77-10.42,2.55-3.83,3.95-7.35,4.26-10.74l.02-.22v-.22c0-2.81-.97-5.38-2.81-7.43-1.98-2.2-4.5-3.36-7.29-3.36-1.46,0-3.1.31-5,.94-1.44.48-3.11,1.08-5.01,1.79l-.25.09-.24.12c-.34.17-.72.34-1.14.5,0,0,0,0-.01,0h-.54l-.76.26c-.24.08-.35.09-.35.09h-1.54c-1.4,0-2.48-.48-3.5-1.56-1.09-1.15-1.6-2.5-1.6-4.23,0-.15.02-.77.28-2.3l.68-4.06c.2-.53.33-1.06.39-1.59l9.16-43.42c.33-.86.51-1.77.54-2.73l.35-.7v-1.16c0-.76.05-1.56.14-2.37.14-1.25.2-2.54.2-3.84,0-9.51-3.54-17.39-10.51-23.41-6.77-5.84-15.46-8.79-25.83-8.79-3.71,0-7.41.32-11.02.94-3.6.62-7.19,1.57-10.66,2.81-4.86,1.7-9.86,4.04-14.82,6.95-3.24,1.9-6.59,4.12-9.99,6.65-2.36-4.68-5.69-8.52-9.95-11.46-6-4.13-13.62-6.22-22.65-6.22h0Z"/>
  <path class="cls-3" d="m879.05,507.07l46.63-197.91c.46-2.3.86-4.49,1.21-6.56.35-2.07.52-3.57.52-4.49,0-1.61-.23-2.99-.69-4.14-.46-1.15-1.15-2.3-2.07-3.45-.69-.69-1.38-1.32-2.07-1.9-.69-.57-1.5-1.21-2.42-1.9,6.44-4.83,12.26-8.75,17.44-11.74,5.18-2.99,10.3-5.06,15.37-6.22,2.3-.69,4.54-1.15,6.73-1.38,2.19-.23,4.43-.35,6.74-.35,6.44,0,11.51,1.44,15.2,4.32,3.68,2.88,5.29,6.74,4.83,11.57,0,1.15-.06,2.36-.17,3.63-.12,1.27-.4,2.71-.86,4.32l-2.42,12.43c3.91-2.76,7.54-5.01,10.88-6.73,3.33-1.73,6.61-3.05,9.84-3.97,2.3-.69,4.54-1.15,6.73-1.38,2.19-.23,4.54-.34,7.08-.34,12.2,0,22.16,4.32,29.88,12.95,7.71,8.64,11.57,19.86,11.57,33.68,0,24.41-6.62,45.65-19.86,63.72-13.24,18.08-28.73,27.11-46.46,27.11-6.45,0-12.15-.98-17.1-2.93-4.95-1.95-9.62-5.24-13.99-9.84-.69-.46-1.33-1.04-1.9-1.73-.58-.69-1.21-1.38-1.9-2.07l-9.32,40.76-12.78,54.57h-56.64Zm108.45-189.96c-3.45,1.61-7.31,7.43-11.57,17.44-4.26,10.02-7.31,21.24-9.15,33.68,0,.46-.06.81-.17,1.04-.12.23-.17.69-.17,1.38-1.15,8.29-1.27,15.14-.35,20.55.92,5.41,2.76,8.24,5.53,8.46,3.68.69,7.77-4.37,12.26-15.2,4.49-10.82,7.77-23.49,9.84-37.99,1.15-8.29,1.32-14.97.52-20.03-.81-5.06-2.48-8.06-5.01-8.98-.46,0-1.04-.11-1.73-.35Z"/>
  <path class="cls-2" d="m966.43,267.02c6.44,0,11.51,1.44,15.2,4.32,3.68,2.88,5.29,6.74,4.83,11.57,0,1.15-.06,2.36-.17,3.63-.12,1.27-.4,2.71-.86,4.32l-2.42,12.43c3.91-2.76,7.54-5.01,10.88-6.73,3.33-1.73,6.61-3.05,9.84-3.97,2.3-.69,4.54-1.15,6.73-1.38,2.19-.23,4.54-.34,7.08-.34,12.2,0,22.16,4.32,29.88,12.95,7.71,8.64,11.57,19.86,11.57,33.68,0,24.41-6.62,45.65-19.86,63.72-13.24,18.08-28.73,27.11-46.46,27.11-6.45,0-12.15-.98-17.1-2.93-4.95-1.95-9.62-5.24-13.99-9.84-.69-.46-1.33-1.04-1.9-1.73-.58-.69-1.21-1.38-1.9-2.07l-9.32,40.76-12.78,54.57h-56.64l46.63-197.91c.46-2.3.86-4.49,1.21-6.56.35-2.07.52-3.57.52-4.49,0-1.61-.23-2.99-.69-4.14-.46-1.15-1.15-2.3-2.07-3.45-.69-.69-1.38-1.32-2.07-1.9-.69-.57-1.5-1.21-2.42-1.9,6.44-4.83,12.26-8.75,17.44-11.74,5.18-2.99,10.3-5.06,15.37-6.22,2.3-.69,4.54-1.15,6.73-1.38,2.19-.23,4.43-.35,6.74-.35m5.85,132.69c3.5,0,7.37-5.08,11.59-15.26,4.49-10.82,7.77-23.49,9.84-37.99,1.15-8.29,1.32-14.97.52-20.03-.81-5.06-2.48-8.06-5.01-8.98-.46,0-1.04-.11-1.73-.35-3.45,1.61-7.31,7.43-11.57,17.44-4.26,10.02-7.31,21.24-9.15,33.68,0,.46-.06.81-.17,1.04-.12.23-.17.69-.17,1.38-1.15,8.29-1.27,15.14-.35,20.55.92,5.41,2.76,8.24,5.53,8.46.22.04.44.06.67.06m-5.85-137.61c-2.43,0-4.86.13-7.24.37-2.46.26-4.97.77-7.48,1.51-5.47,1.27-11.04,3.53-16.57,6.72-5.34,3.08-11.37,7.14-17.93,12.07l-5.23,3.92,5.22,3.94c.85.64,1.6,1.23,2.24,1.76.5.42,1.02.89,1.52,1.38.54.71.94,1.39,1.2,2.02.15.37.33,1.09.33,2.3,0,.3-.04,1.25-.45,3.68-.34,2.03-.73,4.17-1.18,6.41l-46.59,197.74-1.42,6.04h66.75l.89-3.8,12.78-54.57,7.35-32.14c4.13,3.81,8.55,6.66,13.17,8.48,5.51,2.17,11.87,3.28,18.9,3.28,19.3,0,36.26-9.8,50.42-29.12,13.81-18.85,20.81-41.27,20.81-66.63,0-14.99-4.31-27.43-12.82-36.95-8.66-9.68-19.94-14.59-33.54-14.59-2.67,0-5.22.12-7.59.37-2.5.26-5.06.79-7.64,1.56-3.48.99-7.1,2.45-10.69,4.32-.53.27-1.07.56-1.62.86l.21-1.06c.5-1.81.83-3.49.97-5.01.12-1.34.19-2.63.19-3.85.54-6.39-1.78-11.8-6.72-15.67-4.56-3.56-10.69-5.36-18.23-5.36h0Zm5.25,106.54c1.78-11.85,4.73-22.68,8.77-32.17,3.54-8.32,6.12-12.03,7.64-13.67.39.7.91,2.01,1.29,4.41.72,4.56.54,10.82-.53,18.58-2,14.01-5.21,26.4-9.52,36.78-3.78,9.1-6.25,11.5-7.07,12.09-.3-.46-.88-1.65-1.33-4.3-.84-4.89-.71-11.3.37-19.05l.05-.34v-.38c.19-.6.3-1.25.34-1.96h0Z"/>
  <path class="cls-3" d="m437.79,483.99h.16c.53,0,.96.21,1.27.64.32.43.53.9.64,1.43v.32c0,.85-.27,1.81-.8,2.87-.53,1.06-1.33,2.13-2.39,3.19-.53.64-1.14,1.27-1.83,1.91-.69.64-1.41,1.22-2.15,1.75-1.7,1.27-3.53,2.39-5.49,3.34-1.97.95-3.96,1.81-5.97,2.55-1.81.64-3.58,1.11-5.34,1.43-1.75.32-3.37.48-4.86.48-6.05,0-11.26-2.31-15.61-6.93-4.35-4.62-6.53-10.11-6.53-16.48,0-8.17,3.48-15.37,10.43-21.58,6.95-6.21,15.1-9.32,24.45-9.32h2.71c3.72.21,7.59.9,11.63,2.07,4.03,1.17,8.7,2.92,14.01,5.26,3.19,1.38,5.78,2.42,7.8,3.11,2.02.69,3.87,1.14,5.57,1.35.64,0,1.25.03,1.83.08.58.06,1.19.08,1.83.08h2.55c.21-.1.45-.16.72-.16s.56-.05.88-.16c.85-.1,1.59-.18,2.23-.24.64-.05,1.17-.08,1.59-.08,1.49,0,2.63.45,3.42,1.35.8.9,1.19,2.15,1.19,3.74v1.11c-.11.43-.27,1.01-.48,1.75-.21.74-.69,2.23-1.43,4.46-.32.96-.61,2.07-.88,3.34-.27,1.27-.45,2.55-.56,3.82-.11.85-.19,1.65-.24,2.39-.06.74-.08,1.49-.08,2.23,0,1.06.05,2.42.16,4.06.1,1.65.21,3.48.32,5.49.1,1.27.18,2.39.24,3.34.05.95.08,1.86.08,2.71.1.85.16,1.7.16,2.55v3.03c1.59-3.08,3.11-5.89,4.54-8.44,1.43-2.55,2.89-4.94,4.38-7.17,2.12-3.4,4.33-6.45,6.61-9.16,2.28-2.71,4.75-5.34,7.4-7.88l.32-.32.32-.32c.85-.85,1.75-1.67,2.71-2.47.96-.8,1.86-1.56,2.71-2.31,4.24-3.5,8.39-6.26,12.42-8.28,4.03-2.02,7.43-3.03,10.19-3.03,1.59,0,2.89.4,3.9,1.19,1.01.8,1.51,1.94,1.51,3.42v1.11c-.11.64-.37,1.41-.8,2.31-.43.9-1.17,2.26-2.23,4.06-.64,1.06-1.33,2.34-2.07,3.82-.74,1.49-1.49,3.08-2.23,4.78-.32.74-.66,1.54-1.03,2.39-.37.85-.72,1.65-1.04,2.39-.53,1.17-1.01,2.34-1.43,3.5-.43,1.17-.85,2.28-1.27,3.34-1.59,4.25-2.81,8.12-3.66,11.63-.85,3.5-1.43,6.95-1.75,10.35,0,.85-.03,1.7-.08,2.55-.06.85-.08,1.7-.08,2.55,0,3.82.56,6.88,1.67,9.16,1.11,2.28,2.63,3.48,4.54,3.58.32,0,.66-.05,1.04-.16.37-.1.77-.26,1.19-.48.64-.21,1.22-.4,1.75-.56.53-.16.9-.24,1.12-.24.85,0,1.54.37,2.07,1.12.53.74.8,1.7.8,2.87,0,.53-.03,1.06-.08,1.59-.06.53-.13,1.06-.24,1.59-.85,6.16-3.69,11.79-8.52,16.88-4.83,5.1-10.06,8.07-15.69,8.92-.43,0-.85.02-1.27.08-.43.05-.85.08-1.27.08-4.57,0-8.15-1.86-10.75-5.57-2.6-3.72-3.9-8.86-3.9-15.45v-1.91c.21-7.43,1.57-14.97,4.06-22.61,2.49-7.64,6.34-16.03,11.55-25.16-.64.53-1.25,1.03-1.83,1.51-.58.48-1.09.98-1.51,1.51-.43.32-.82.69-1.19,1.12-.37.43-.72.85-1.04,1.27-.53.74-1.09,1.54-1.67,2.39-.59.85-1.25,1.86-1.99,3.03-.53.74-1.01,1.51-1.43,2.31-.43.8-.85,1.57-1.27,2.31-.32.32-.59.69-.8,1.11-.21.43-.43.85-.64,1.27-.96,1.59-1.91,3.34-2.87,5.26-.96,1.91-2.02,4.09-3.19,6.53-1.06,2.12-1.99,3.98-2.79,5.57-.8,1.59-1.57,3.13-2.31,4.62-.21.32-.43.66-.64,1.03-.21.37-.43.77-.64,1.19-.74,1.27-1.51,2.58-2.31,3.9-.8,1.33-1.73,2.84-2.79,4.54-1.17,1.91-2.26,3.45-3.26,4.62-1.01,1.17-1.99,2.02-2.95,2.55-.43.32-.88.53-1.35.64-.48.11-.98.16-1.51.16-1.49,0-2.6-.42-3.34-1.27-.74-.85-1.11-2.12-1.11-3.82v-.8c0-.64.05-1.33.16-2.07.1-.74.26-2.07.48-3.98.1-.53.21-1.38.32-2.55.1-1.17.21-2.55.32-4.14.1-2.44.18-4.48.24-6.13.05-1.64.08-2.79.08-3.42,0-1.27-.03-2.68-.08-4.22-.06-1.54-.19-3.32-.4-5.34-.11-2.12-.21-4.17-.32-6.13-.11-1.96-.16-3.37-.16-4.22v-3.34c.1-.85.21-1.72.32-2.63.1-.9.21-2.04.32-3.42-.32.53-.59,1.06-.8,1.59-.21.53-.43,1.06-.64,1.59-.21.43-.4.85-.56,1.27-.16.43-.35.85-.56,1.27-.43,1.17-.85,2.5-1.27,3.98-.43,1.49-.96,3.34-1.59,5.57-1.49,5.63-2.5,9.4-3.03,11.31-.53,1.91-1.01,3.5-1.43,4.78-.21.96-.5,2.18-.88,3.66-.37,1.49-1.03,3.98-1.99,7.48-4.04,14.01-10.86,24.9-20.46,32.65-9.61,7.75-21,11.63-34.16,11.63-10.62,0-19.35-3.03-26.2-9.08-6.85-6.05-10.27-13.75-10.27-23.09,0-10.51,3.95-19.32,11.87-26.44,7.91-7.11,17.65-10.67,29.22-10.67,3.72,0,6.66.48,8.84,1.43,2.17.95,3.26,2.34,3.26,4.14,0,.21-.03.43-.08.64-.06.21-.14.43-.24.64-.11.32-.32.64-.64.96s-.8.69-1.43,1.11c-.64.53-1.22,1.17-1.75,1.91-.53.74-.96,1.54-1.27,2.39-.11.21-.19.48-.24.8-.06.32-.08.64-.08.96,0,2.12.98,3.96,2.95,5.49,1.96,1.54,4.27,2.31,6.93,2.31,2.12,0,4.06-.37,5.81-1.11,1.75-.74,3.48-1.96,5.18-3.66,2.12-2.23,4.27-5.28,6.45-9.16,2.18-3.87,4.64-8.89,7.41-15.05,2.23-4.88,3.93-8.63,5.1-11.23,1.17-2.6,2.23-4.75,3.19-6.45.21-.42.42-.82.64-1.19.21-.37.42-.72.64-1.03.53-.85,1.14-1.72,1.83-2.63.69-.9,1.51-1.99,2.47-3.26-3.29-.96-6.19-1.67-8.68-2.15-2.5-.48-4.59-.72-6.29-.72-2.55,0-4.7.66-6.45,1.99-1.75,1.33-2.63,2.95-2.63,4.86,0,.96.29,1.83.88,2.63.58.8,1.25,1.19,1.99,1.19h.16l3.34-.32Z"/>
  <path class="cls-2" d="m426.48,449.59c3.72.21,7.59.9,11.63,2.07,4.03,1.17,8.7,2.92,14.01,5.26,3.18,1.38,5.78,2.42,7.8,3.11,2.02.69,3.87,1.14,5.57,1.35.64,0,1.25.03,1.83.08.58.06,1.19.08,1.83.08h2.55c.21-.11.45-.16.72-.16s.56-.05.88-.16c.85-.1,1.59-.18,2.23-.24.64-.05,1.17-.08,1.59-.08,1.49,0,2.63.45,3.42,1.35.8.9,1.19,2.15,1.19,3.74v1.11c-.11.43-.27,1.01-.48,1.75-.21.74-.69,2.23-1.43,4.46-.32.96-.61,2.07-.88,3.34-.27,1.27-.45,2.55-.56,3.82-.11.85-.19,1.65-.24,2.39-.06.74-.08,1.49-.08,2.23,0,1.06.05,2.42.16,4.06.1,1.65.21,3.48.32,5.49.1,1.27.18,2.39.24,3.34.05.95.08,1.86.08,2.71.1.85.16,1.7.16,2.55v3.03c1.59-3.08,3.11-5.89,4.54-8.44,1.43-2.55,2.89-4.94,4.38-7.17,2.12-3.4,4.33-6.45,6.61-9.16,2.28-2.71,4.75-5.34,7.4-7.88.1-.11.21-.21.32-.32.1-.1.21-.21.32-.32.85-.85,1.75-1.67,2.71-2.47.96-.8,1.86-1.56,2.71-2.31,4.24-3.5,8.39-6.26,12.42-8.28,4.03-2.02,7.43-3.03,10.19-3.03,1.59,0,2.89.4,3.9,1.19,1.01.8,1.51,1.94,1.51,3.42v1.11c-.11.64-.37,1.41-.8,2.31-.43.9-1.17,2.26-2.23,4.06-.64,1.06-1.33,2.34-2.07,3.82-.74,1.49-1.49,3.08-2.23,4.78-.32.74-.66,1.54-1.03,2.39-.37.85-.72,1.65-1.04,2.39-.53,1.17-1.01,2.34-1.43,3.5-.43,1.17-.85,2.28-1.27,3.34-1.59,4.25-2.81,8.12-3.66,11.63-.85,3.5-1.43,6.95-1.75,10.35,0,.85-.03,1.7-.08,2.55-.06.85-.08,1.7-.08,2.55,0,3.82.56,6.88,1.67,9.16,1.11,2.28,2.63,3.48,4.54,3.58.32,0,.66-.05,1.04-.16.37-.1.77-.26,1.19-.48.64-.21,1.22-.4,1.75-.56.53-.16.9-.24,1.12-.24.85,0,1.54.37,2.07,1.12.53.74.8,1.7.8,2.87,0,.53-.03,1.06-.08,1.59-.06.53-.13,1.06-.24,1.59-.85,6.16-3.69,11.79-8.52,16.88-4.83,5.1-10.06,8.07-15.69,8.92-.43,0-.85.02-1.27.08-.43.05-.85.08-1.27.08-4.57,0-8.15-1.86-10.75-5.57-2.6-3.72-3.9-8.86-3.9-15.45v-1.91c.21-7.43,1.57-14.97,4.06-22.62,2.49-7.64,6.34-16.03,11.55-25.16-.64.53-1.25,1.03-1.83,1.51-.58.48-1.09.98-1.51,1.51-.43.32-.82.69-1.19,1.12-.37.43-.72.85-1.04,1.27-.53.74-1.09,1.54-1.67,2.39-.59.85-1.25,1.86-1.99,3.03-.53.74-1.01,1.51-1.43,2.31-.43.8-.85,1.57-1.27,2.31-.32.32-.59.69-.8,1.11-.21.43-.43.85-.64,1.27-.96,1.59-1.91,3.34-2.87,5.26-.96,1.91-2.02,4.09-3.19,6.53-1.06,2.12-1.99,3.98-2.79,5.57-.8,1.59-1.57,3.13-2.31,4.62-.21.32-.43.66-.64,1.03-.21.37-.43.77-.64,1.19-.74,1.27-1.51,2.58-2.31,3.9-.8,1.33-1.73,2.84-2.79,4.54-1.17,1.91-2.26,3.45-3.26,4.62-1.01,1.17-1.99,2.02-2.95,2.55-.43.32-.88.53-1.35.64-.48.11-.98.16-1.51.16-1.49,0-2.6-.42-3.34-1.27-.74-.85-1.11-2.12-1.11-3.82v-.8c0-.64.05-1.33.16-2.07.1-.74.26-2.07.48-3.98.1-.53.21-1.38.32-2.55.1-1.17.21-2.55.32-4.14.1-2.44.18-4.48.24-6.13.05-1.65.08-2.79.08-3.42,0-1.27-.03-2.68-.08-4.22-.06-1.54-.19-3.32-.4-5.34-.11-2.12-.21-4.17-.32-6.13-.11-1.96-.16-3.37-.16-4.22v-3.34c.1-.85.21-1.72.32-2.63.1-.9.21-2.04.32-3.42-.32.53-.59,1.06-.8,1.59-.21.53-.43,1.06-.64,1.59-.21.43-.4.85-.56,1.27-.16.43-.35.85-.56,1.27-.43,1.17-.85,2.5-1.27,3.98-.43,1.49-.96,3.34-1.59,5.57-1.49,5.63-2.5,9.4-3.03,11.31-.53,1.91-1.01,3.5-1.43,4.78-.21.96-.5,2.18-.88,3.66-.37,1.49-1.03,3.98-1.99,7.48-4.04,14.01-10.86,24.9-20.46,32.65-9.61,7.75-21,11.63-34.16,11.63-10.62,0-19.35-3.03-26.2-9.08-6.85-6.05-10.27-13.75-10.27-23.09,0-10.51,3.95-19.32,11.87-26.44,7.91-7.11,17.65-10.67,29.22-10.67,3.72,0,6.66.48,8.84,1.43,2.17.95,3.26,2.34,3.26,4.14,0,.21-.03.43-.08.64-.06.22-.13.43-.24.64-.11.32-.32.64-.64.96-.32.32-.8.69-1.43,1.11-.64.53-1.22,1.17-1.75,1.91-.53.74-.96,1.54-1.27,2.39-.11.22-.19.48-.24.8-.06.32-.08.64-.08.96,0,2.12.98,3.96,2.95,5.49,1.96,1.54,4.27,2.31,6.93,2.31,2.12,0,4.06-.37,5.81-1.11,1.75-.74,3.48-1.96,5.18-3.66,2.12-2.23,4.27-5.28,6.45-9.16,2.18-3.87,4.64-8.89,7.41-15.05,2.23-4.88,3.93-8.63,5.1-11.23,1.17-2.6,2.23-4.75,3.19-6.45.21-.42.42-.82.64-1.19.21-.37.42-.72.64-1.03.53-.85,1.14-1.72,1.83-2.63.69-.9,1.51-1.99,2.47-3.26-3.29-.96-6.19-1.67-8.68-2.15-2.5-.48-4.59-.72-6.29-.72-2.55,0-4.7.66-6.45,1.99-1.75,1.33-2.63,2.95-2.63,4.86,0,.96.29,1.83.88,2.63.58.8,1.25,1.19,1.99,1.19h.16l3.34-.32h.16c.53,0,.96.21,1.27.64.32.43.53.9.64,1.43v.32c0,.85-.27,1.81-.8,2.87-.53,1.06-1.33,2.13-2.39,3.19-.53.64-1.14,1.27-1.83,1.91-.69.64-1.41,1.22-2.15,1.75-1.7,1.27-3.53,2.39-5.49,3.34-1.97.95-3.96,1.81-5.97,2.55-1.81.64-3.58,1.11-5.34,1.43-1.75.32-3.37.48-4.86.48-6.05,0-11.26-2.31-15.61-6.93-4.35-4.62-6.53-10.11-6.53-16.48,0-8.17,3.48-15.37,10.43-21.58,6.95-6.21,15.1-9.32,24.45-9.32h2.71m.14-4.92h-2.85c-10.55,0-19.87,3.56-27.72,10.57-8.01,7.15-12.07,15.65-12.07,25.25,0,7.64,2.65,14.32,7.87,19.86,1.23,1.3,2.51,2.45,3.86,3.45-10.72.89-20.02,4.83-27.7,11.73-8.95,8.05-13.49,18.18-13.49,30.09,0,10.77,4.01,19.78,11.93,26.78,7.74,6.84,17.65,10.31,29.45,10.31,14.25,0,26.78-4.28,37.25-12.71,10.36-8.36,17.8-20.18,22.1-35.12.99-3.62,1.66-6.14,2.04-7.65.35-1.41.64-2.6.85-3.54.16-.49.33-1.01.5-1.58-.01.43-.03.92-.04,1.47-.05,1.63-.13,3.65-.24,6.08-.1,1.43-.2,2.78-.3,3.91-.12,1.32-.21,1.87-.25,2.04l-.04.2-.02.2c-.21,1.84-.36,3.13-.46,3.84-.14.95-.21,1.89-.21,2.76v.8c0,2.92.79,5.3,2.34,7.06,1.17,1.34,3.34,2.95,7.04,2.95.89,0,1.76-.09,2.58-.28,1.04-.23,2.03-.66,2.94-1.29,1.37-.81,2.69-1.95,4.01-3.48,1.19-1.38,2.42-3.11,3.74-5.27,1.05-1.69,2-3.23,2.81-4.58.8-1.34,1.58-2.66,2.34-3.95l.08-.14.07-.14c.17-.34.34-.65.51-.95.15-.27.3-.51.45-.74l.18-.26.1-.2c-.19,1.86-.31,3.71-.36,5.55v1.09s0,.96,0,.96c0,7.58,1.61,13.73,4.79,18.27,3.51,5.02,8.62,7.67,14.78,7.67.62,0,1.25-.04,1.88-.12.23-.03.45-.04.67-.04h.37l.37-.06c6.71-1.02,12.94-4.51,18.52-10.4,5.49-5.79,8.79-12.34,9.8-19.45.12-.63.21-1.26.28-1.9.07-.71.11-1.4.11-2.1,0-2.2-.57-4.13-1.71-5.72-1.48-2.06-3.63-3.18-6.08-3.18-.73,0-1.49.13-2.54.45-.56.17-1.19.37-1.88.6l-.34.11-.11.06c-.1-.14-.21-.33-.35-.61-.54-1.1-1.18-3.2-1.18-7,0-.74.02-1.49.07-2.23.05-.89.08-1.75.09-2.63.3-3.09.84-6.26,1.61-9.43.79-3.28,1.97-7.01,3.49-11.06.4-1.01.85-2.17,1.29-3.39.38-1.04.81-2.1,1.29-3.15.36-.83.69-1.61,1.06-2.45.38-.87.73-1.68,1.05-2.43.69-1.58,1.4-3.11,2.11-4.51.68-1.36,1.31-2.53,1.89-3.49,1.18-2,1.97-3.46,2.46-4.5.62-1.33,1.01-2.5,1.2-3.59l.07-.4v-1.52c0-2.97-1.2-5.56-3.38-7.28-1.9-1.5-4.23-2.25-6.95-2.25-3.57,0-7.62,1.16-12.39,3.55-4.35,2.17-8.84,5.16-13.35,8.89-.93.81-1.8,1.55-2.72,2.32-1.07.89-2.09,1.83-3.04,2.77l-.17.17-.14.14-.17.17-.16.16c-2.7,2.59-5.31,5.37-7.68,8.19-2.42,2.86-4.78,6.13-7.02,9.72-.21.31-.42.63-.63.95,0-.06,0-.11-.01-.17-.1-1.52-.15-2.78-.15-3.75,0-.62.02-1.24.07-1.87.05-.68.12-1.38.21-2.14v-.1s.02-.11.02-.11c.09-1.06.25-2.15.47-3.22.22-1.08.47-2.01.73-2.8.77-2.33,1.27-3.88,1.49-4.66.23-.81.4-1.45.52-1.91l.15-.59v-1.72c0-2.82-.81-5.17-2.42-6.99-1.22-1.38-3.44-3.02-7.11-3.02-.53,0-1.19.03-1.99.1-.72.06-1.52.15-2.43.26l-.49.06-.23.08c-.34.02-.68.07-1.01.14h-1.81c-.48,0-.93-.02-1.37-.06-.64-.06-1.29-.09-1.95-.1-1.3-.18-2.75-.55-4.32-1.09-1.89-.64-4.39-1.64-7.44-2.97-5.46-2.4-10.38-4.24-14.6-5.47-4.37-1.26-8.65-2.02-12.71-2.26h-.14Zm11.18,34.4c.74-.35,1.63-.52,2.69-.52,1.38,0,3.19.21,5.37.63.43.08.88.17,1.35.27-.07.11-.14.22-.21.33-.19.27-.46.72-.73,1.2-.24.42-.48.86-.71,1.33-.34.61-.7,1.28-1.06,2-.29-.95-.73-1.84-1.33-2.63-1.25-1.66-3.15-2.61-5.21-2.61h-.14Zm-22.31,29.39c.42-.06.84-.13,1.27-.21,2-.36,4.05-.91,6.09-1.63,2.21-.81,4.37-1.74,6.49-2.76,2.24-1.09,4.35-2.38,6.29-3.83.81-.58,1.69-1.3,2.53-2.07,0,0,.02-.02.03-.03-.34.75-.69,1.52-1.06,2.33-2.71,6.03-5.13,10.96-7.22,14.68-1.96,3.5-3.89,6.25-5.72,8.17-1.16,1.16-2.38,2.04-3.53,2.53-1.15.49-2.42.72-3.9.72-1.56,0-2.8-.4-3.89-1.26-1.06-.83-1.06-1.35-1.06-1.63,0,0,0-.01,0-.01h0c.17-.46.39-.87.67-1.27.24-.34.49-.63.75-.87.78-.54,1.41-1.05,1.91-1.55.76-.76,1.33-1.61,1.7-2.53.2-.43.35-.88.47-1.32.16-.64.23-1.25.23-1.86,0-2.12-.72-4.04-2.04-5.62h0Z"/>
  <path class="cls-3" d="m603.57,532.41c-.32,1.38-.56,2.52-.72,3.42-.16.9-.24,1.62-.24,2.15-.11,1.06.32,2.05,1.27,2.95.95.9,2.07,1.35,3.34,1.35.42,0,.82-.02,1.19-.08.37-.05.72-.13,1.04-.24.21,0,.4-.02.56-.08.16-.05.34-.13.56-.24.85-.32,1.59-.56,2.23-.72.64-.16,1.17-.24,1.59-.24.64,0,1.22.29,1.75.88.53.58.8,1.25.8,1.99,0,.85-.27,1.78-.8,2.79-.53,1.01-1.33,1.99-2.39,2.95l-.88.88c-.27.27-.56.51-.88.72-2.02,1.81-4.22,3.34-6.61,4.62-2.39,1.27-4.81,2.23-7.25,2.87-1.27.32-2.58.58-3.9.8-1.33.21-2.63.32-3.9.32-3.82,0-6.96-1.19-9.4-3.58-2.44-2.39-3.66-5.44-3.66-9.16v-1.67c0-.58.05-1.25.16-1.99-1.91,2.34-3.34,4.11-4.3,5.33-.96,1.22-1.86,2.26-2.71,3.11-.11.11-.24.21-.4.32-.16.11-.29.21-.4.32-.21.32-.43.58-.64.8s-.48.43-.8.64c-1.17,1.17-2.44,2.18-3.82,3.03-1.38.85-2.81,1.54-4.3,2.07-1.06.32-2.07.58-3.03.8-.95.21-1.91.32-2.87.32-4.67,0-8.55-1.94-11.63-5.81-3.08-3.87-4.62-8.89-4.62-15.05,0-10.72,3.64-20.46,10.91-29.22,7.27-8.76,15.31-13.14,24.13-13.14,3.08,0,5.92.56,8.52,1.67,2.6,1.11,4.91,2.84,6.93,5.18,2.87-2.02,5.12-3.48,6.77-4.38,1.64-.9,3.21-1.51,4.7-1.83.42-.1.9-.18,1.43-.24.53-.05,1.06-.08,1.59-.08,2.12,0,3.82.56,5.1,1.67,1.27,1.11,1.91,2.57,1.91,4.38,0,.32-.03.74-.08,1.27-.06.53-.19,1.12-.4,1.75l-5.89,26.44Zm-28.19-26.6c-1.59.74-3.37,3.42-5.34,8.04-1.97,4.62-3.37,9.79-4.22,15.53,0,.21-.03.37-.08.48-.06.11-.08.32-.08.64-.53,3.82-.58,6.98-.16,9.48.42,2.5,1.27,3.8,2.55,3.9,1.7.32,3.58-2.02,5.65-7.01,2.07-4.99,3.58-10.83,4.54-17.52.53-3.82.61-6.9.24-9.24-.37-2.33-1.14-3.72-2.31-4.14-.21,0-.48-.05-.8-.16Z"/>
  <path class="cls-2" d="m573,496.57c3.08,0,5.92.56,8.52,1.67,2.6,1.11,4.91,2.84,6.93,5.18,2.87-2.02,5.12-3.48,6.77-4.38,1.64-.9,3.21-1.51,4.7-1.83.42-.1.9-.18,1.43-.24.53-.05,1.06-.08,1.59-.08,2.12,0,3.82.56,5.1,1.67,1.27,1.11,1.91,2.57,1.91,4.38,0,.32-.03.74-.08,1.27-.06.53-.19,1.12-.4,1.75l-5.89,26.44c-.32,1.38-.56,2.52-.72,3.42-.16.9-.24,1.62-.24,2.15-.11,1.06.32,2.05,1.27,2.95.95.9,2.07,1.35,3.34,1.35.42,0,.82-.02,1.19-.08.37-.05.72-.13,1.04-.24.21,0,.4-.02.56-.08.16-.05.34-.13.56-.24.85-.32,1.59-.56,2.23-.72.64-.16,1.17-.24,1.59-.24.64,0,1.22.29,1.75.88.53.58.8,1.25.8,1.99,0,.85-.27,1.78-.8,2.79-.53,1.01-1.33,1.99-2.39,2.95-.32.32-.61.61-.88.88-.27.27-.56.51-.88.72-2.02,1.81-4.22,3.34-6.61,4.62-2.39,1.27-4.81,2.23-7.25,2.87-1.27.32-2.58.58-3.9.8-1.33.21-2.63.32-3.9.32-3.82,0-6.96-1.19-9.4-3.58-2.44-2.39-3.66-5.44-3.66-9.16v-1.67c0-.58.05-1.25.16-1.99-1.91,2.34-3.34,4.11-4.3,5.33-.96,1.22-1.86,2.26-2.71,3.11-.11.11-.24.21-.4.32-.16.11-.29.21-.4.32-.21.32-.43.58-.64.8s-.48.43-.8.64c-1.17,1.17-2.44,2.18-3.82,3.03-1.38.85-2.81,1.54-4.3,2.07-1.06.32-2.07.58-3.03.8-.95.21-1.91.32-2.87.32-4.67,0-8.55-1.94-11.63-5.81-3.08-3.87-4.62-8.89-4.62-15.05,0-10.72,3.64-20.46,10.91-29.22,7.27-8.76,15.31-13.14,24.13-13.14m-4.63,47.33c1.62,0,3.4-2.34,5.35-7.04,2.07-4.99,3.58-10.83,4.54-17.52.53-3.82.61-6.9.24-9.24-.37-2.33-1.14-3.72-2.31-4.14-.21,0-.48-.05-.8-.16-1.59.74-3.37,3.42-5.34,8.04-1.97,4.62-3.37,9.79-4.22,15.53,0,.22-.03.37-.08.48-.06.11-.08.32-.08.64-.53,3.82-.58,6.98-.16,9.48.42,2.5,1.27,3.8,2.55,3.9.1.02.2.03.31.03m4.63-52.25c-10.3,0-19.7,5.02-27.91,14.92-7.99,9.62-12.04,20.51-12.04,32.36,0,7.27,1.91,13.36,5.69,18.11,3.98,5.02,9.33,7.67,15.47,7.67,1.3,0,2.62-.15,3.92-.43,1.11-.25,2.24-.55,3.38-.89l.12-.04.12-.04c1.81-.65,3.57-1.5,5.22-2.51,1.57-.97,3.05-2.12,4.4-3.42.41-.3.78-.62,1.12-.95.24-.24.48-.51.71-.8.25-.19.5-.41.73-.64.07-.07.14-.14.21-.21.83,1.7,1.96,3.25,3.38,4.64,3.38,3.31,7.7,4.98,12.83,4.98,1.51,0,3.08-.13,4.67-.38,1.48-.24,2.93-.54,4.32-.88,2.85-.74,5.65-1.85,8.37-3.3,2.63-1.4,5.1-3.11,7.34-5.09.46-.33.9-.71,1.3-1.11l.79-.79c1.44-1.32,2.57-2.73,3.35-4.22.9-1.72,1.36-3.43,1.36-5.08,0-1.97-.72-3.8-2.07-5.29-1.48-1.61-3.39-2.49-5.4-2.49-.84,0-1.75.13-2.79.39-.81.2-1.71.49-2.76.88h-.02s-.17,0-.17,0l-.76.25c-.05.02-.11.03-.17.03-.05,0-.09.01-.14.02.02-.18.06-.4.11-.67.15-.83.37-1.89.67-3.17l5.85-26.25c.27-.88.45-1.73.54-2.54.07-.75.11-1.34.11-1.78,0-3.23-1.24-6.02-3.59-8.08-2.19-1.92-4.99-2.89-8.33-2.89-.69,0-1.38.04-2.07.1-.8.08-1.49.2-2.14.36-1.79.38-3.82,1.16-5.88,2.29-1.08.59-2.36,1.37-3.87,2.37-1.71-1.4-3.56-2.53-5.53-3.37-3.21-1.37-6.73-2.07-10.46-2.07h0Zm-2.27,38.2c.59-3.89,1.46-7.52,2.6-10.83-.66,4.53-1.61,8.66-2.82,12.33,0-.06.02-.12.02-.18l.05-.34v-.02c.07-.31.12-.64.14-.97h0Z"/>
  <path class="cls-3" d="m644.82,557.89c-.11.32-.21.69-.32,1.11-.11.42-.21.85-.32,1.27-1.17,4.99-2.39,9-3.66,12.02-1.27,3.03-2.92,5.71-4.94,8.04-2.65,3.29-5.95,5.81-9.87,7.56-3.93,1.75-8.02,2.63-12.26,2.63-5.31,0-9.66-1.38-13.06-4.14-3.4-2.76-5.1-6.32-5.1-10.67v-1.19c0-.27.06-.56.16-.88,1.7.74,3.08,1.3,4.14,1.67,1.06.37,2.07.61,3.03.72h1.27c.32,0,.64-.03.95-.08.32-.05.64-.08.96-.08,1.81-.32,3.53-.98,5.18-1.99,1.65-1.01,3.05-2.26,4.22-3.74.21-.32.37-.58.48-.8.1-.21.26-.48.48-.8.42-.64.77-1.33,1.03-2.07.26-.74.56-1.7.88-2.87.21-.74.42-1.59.64-2.55.21-.96.42-2.02.64-3.19l8.6-41.73c.21-1.17.4-2.26.56-3.26.16-1.01.24-1.72.24-2.15,0-.32-.03-.61-.08-.88-.06-.26-.13-.56-.24-.88-.21-.42-.59-.85-1.11-1.27-.53-.42-1.33-1.01-2.39-1.75,3.19-2.55,6.1-4.51,8.76-5.89,2.65-1.38,5.26-2.33,7.8-2.87.85-.21,1.64-.34,2.39-.4.74-.05,1.54-.08,2.39-.08,2.87,0,5.15.69,6.85,2.07,1.7,1.38,2.55,3.24,2.55,5.57,0,.32-.03.72-.08,1.19-.06.48-.13.98-.24,1.51,0,.11-.03.24-.08.4-.05.16-.08.29-.08.4l-10.35,50.01Zm13.06-88.47c2.23,1.97,3.34,4.54,3.34,7.72,0,3.61-1.81,6.85-5.42,9.71-3.61,2.87-7.8,4.3-12.58,4.3-3.29,0-5.97-.96-8.04-2.87-2.07-1.91-3.11-4.35-3.11-7.33,0-3.93,1.67-7.33,5.02-10.19,3.34-2.87,7.3-4.3,11.87-4.3,3.72,0,6.69.98,8.92,2.95Z"/>
  <path class="cls-2" d="m648.96,466.47c3.72,0,6.69.98,8.92,2.95,2.23,1.97,3.34,4.54,3.34,7.72,0,3.61-1.81,6.85-5.42,9.71-3.61,2.87-7.8,4.3-12.58,4.3-3.29,0-5.97-.96-8.04-2.87-2.07-1.91-3.11-4.35-3.11-7.33,0-3.93,1.67-7.33,5.02-10.19,3.34-2.87,7.3-4.3,11.87-4.3m-2.71,30.26c2.87,0,5.15.69,6.85,2.07,1.7,1.38,2.55,3.24,2.55,5.57,0,.32-.03.72-.08,1.19-.06.48-.13.98-.24,1.51,0,.11-.03.24-.08.4-.05.16-.08.29-.08.4l-10.35,50.01c-.11.32-.21.69-.32,1.11-.11.42-.21.85-.32,1.27-1.17,4.99-2.39,9-3.66,12.02-1.27,3.03-2.92,5.71-4.94,8.04-2.65,3.29-5.95,5.81-9.87,7.56-3.93,1.75-8.02,2.63-12.26,2.63-5.31,0-9.66-1.38-13.06-4.14-3.4-2.76-5.1-6.32-5.1-10.67v-1.19c0-.27.06-.56.16-.88,1.7.74,3.08,1.3,4.14,1.67,1.06.37,2.07.61,3.03.72h1.27c.32,0,.64-.03.95-.08.32-.05.64-.08.96-.08,1.81-.32,3.53-.98,5.18-1.99,1.65-1.01,3.05-2.26,4.22-3.74.21-.32.37-.58.48-.8.1-.21.26-.48.48-.8.42-.64.77-1.33,1.03-2.07.26-.74.56-1.7.88-2.87.21-.74.42-1.59.64-2.55.21-.96.42-2.02.64-3.18l8.6-41.73c.21-1.17.4-2.25.56-3.26.16-1.01.24-1.72.24-2.15,0-.32-.03-.61-.08-.88-.06-.26-.13-.56-.24-.88-.21-.42-.59-.85-1.11-1.27-.53-.42-1.33-1.01-2.39-1.75,3.19-2.55,6.1-4.51,8.76-5.89,2.65-1.38,5.26-2.33,7.8-2.87.85-.21,1.64-.34,2.39-.4.74-.05,1.54-.08,2.39-.08m2.71-35.18c-5.75,0-10.82,1.85-15.07,5.48-4.4,3.78-6.73,8.59-6.73,13.92,0,4.32,1.62,8.11,4.69,10.94.94.87,1.96,1.6,3.06,2.2-1.17.47-2.33,1.01-3.5,1.61-2.93,1.52-6.15,3.68-9.56,6.42l-5.12,4.1,5.37,3.77c.68.48,1.25.89,1.69,1.22-.03.21-.07.51-.13.92-.15.97-.34,2.03-.54,3.16l-8.58,41.61c-.22,1.21-.42,2.21-.62,3.11-.19.84-.38,1.6-.57,2.26-.29,1.08-.55,1.91-.78,2.57-.13.35-.3.69-.5,1-.35.52-.62.99-.8,1.36,0,0-.02.03-.04.06-.79.97-1.71,1.77-2.81,2.45-1.03.63-2.06,1.05-3.14,1.28-.42.02-.83.07-1.24.13h-.77s-.32.01-.32.01c-.53-.08-1.1-.23-1.72-.44-.94-.33-2.22-.85-3.8-1.54l-4.95-2.16-1.69,5.13c-.27.82-.41,1.63-.41,2.41v1.19c0,5.8,2.39,10.81,6.91,14.49,4.29,3.48,9.72,5.24,16.16,5.24,4.92,0,9.72-1.03,14.26-3.05,4.63-2.06,8.56-5.08,11.7-8.97,2.24-2.59,4.18-5.74,5.64-9.22,1.39-3.3,2.67-7.49,3.92-12.81l.3-1.19c.08-.3.14-.55.21-.75l.09-.28.06-.29,10.35-50.01.05-.26c.08-.29.13-.57.17-.85.11-.57.19-1.11.25-1.63.08-.72.11-1.3.11-1.76,0-3.82-1.51-7.06-4.36-9.39-.63-.51-1.3-.96-2.01-1.34,1.64-.79,3.19-1.77,4.67-2.94,4.83-3.84,7.27-8.4,7.27-13.57,0-4.58-1.73-8.52-5.01-11.41-3.15-2.77-7.24-4.17-12.17-4.17h0Z"/>
  <path class="cls-3" d="m803.77,517.12c8.06-11.77,17.56-21.65,28.49-29.61,10.93-7.97,22.28-13.22,34.02-15.76,2.53-.69,5.18-1.21,7.94-1.55,2.76-.35,5.41-.52,7.95-.52,8.98,0,16.17,1.9,21.59,5.7,5.41,3.8,8.12,8.81,8.12,15.03s-2.88,11.46-8.63,16.41c-5.76,4.95-12.09,7.43-19,7.43-2.99,0-5.01-.52-6.04-1.55-1.04-1.04-1.67-3.16-1.9-6.39,0-1.15-.86-2.25-2.59-3.28-1.73-1.04-3.75-1.56-6.04-1.56-3.92,0-7.77.81-11.57,2.43-3.8,1.62-7.54,4.16-11.22,7.62-1.38,1.15-2.71,2.37-3.97,3.64-1.27,1.27-2.48,2.71-3.63,4.33,18.88,2.77,33.5,8.43,43.86,16.98,10.36,8.55,15.54,19.29,15.54,32.22,0,8.78-2.3,16.98-6.91,24.6-4.61,7.62-10.83,13.63-18.65,18.01-.92.46-1.78.92-2.59,1.38-.81.46-1.67.81-2.59,1.04-3.45,1.61-7.14,2.88-11.05,3.8-3.92.92-8.98,1.61-15.2,2.07,9.44,1.15,16.06,4.24,19.86,9.27,3.8,5.04,5.7,13.27,5.7,24.71l-.34,10.29c0,2.98.57,5.32,1.73,7.04,1.15,1.72,2.76,2.57,4.84,2.57.46,0,.92-.05,1.38-.17.46-.11,1.04-.29,1.73-.52.92-.22,1.78-.4,2.59-.52.8-.11,1.44-.17,1.9-.17,1.61,0,2.99.75,4.14,2.25,1.15,1.5,1.73,3.17,1.73,5.01,0,2.3-.69,5.59-2.07,9.84-1.38,4.26-3.23,8.58-5.53,12.95-.69,1.15-1.33,2.3-1.9,3.45-.58,1.15-1.21,2.3-1.9,3.45-4.61,7.83-10.48,14.51-17.61,20.03-7.14,5.53-14.51,9.1-22.1,10.71-1.61.46-3.34.8-5.18,1.04-1.85.23-3.57.35-5.18.35-7.14,0-13.24-2.7-18.31-8.1-5.07-5.4-7.6-12.23-7.6-20.5,0-3.9.69-9.76,2.07-17.57,1.38-7.81,3.22-16.77,5.53-26.88.92-3.44,1.61-6.77,2.07-9.99.46-3.22.69-5.86.69-7.92,0-4.36-1.33-7.98-3.97-10.85-2.65-2.87-6.05-4.31-10.19-4.31h-2.59c-.34,0-.86.12-1.55.34-.92,2.07-1.61,3.79-2.07,5.17-.46,1.38-.81,2.3-1.04,2.75l-3.45,11.37-3.45,11.71-3.8,11.37c-10.14,32.84-26.25,58.47-48.35,76.88-22.1,18.4-47.9,27.61-77.37,27.61-20.95,0-38.74-6.73-53.36-20.2-14.62-13.47-21.93-29.74-21.93-48.8,0-21.12,9.03-39.67,27.11-55.63,18.07-15.96,39.08-23.95,63.03-23.95,7.13,0,12.55.86,16.23,2.59,3.68,1.72,5.53,4.19,5.53,7.4v1.38c0,.46-.12.8-.35,1.03,0,.92-.46,1.89-1.38,2.93-.92,1.04-2.42,3.04-4.49,6.03-.46.92-.86,1.95-1.21,3.1-.34,1.15-.52,2.64-.52,4.48,0,4.83,1.67,8.67,5.01,11.54,3.34,2.87,7.88,4.31,13.64,4.31.92,0,1.84-.05,2.76-.17.92-.11,1.95-.17,3.11-.17,4.6-.92,9.27-2.81,13.99-5.68,4.72-2.87,9.15-6.6,13.3-11.19.22-.23.46-.52.69-.86.23-.34.46-.63.69-.86,1.61-1.83,3.16-3.78,4.66-5.85,1.49-2.07,2.93-4.25,4.32-6.55,2.53-4.36,5.18-9.53,7.95-15.5,2.76-5.97,5.98-13.67,9.67-23.08,1.38-3.45,2.64-6.5,3.8-9.15,1.15-2.64,2.3-5.24,3.45-7.77,0-.23.05-.52.17-.86.11-.35.29-.63.52-.86,2.07-4.6,4.37-9.67,6.91-15.2,2.53-5.53,6.22-13.35,11.05-23.49-10.14,1.61-19.06,4.78-26.77,9.5-7.72,4.72-12.38,9.73-13.99,15.02-.23.46-.41.98-.52,1.56-.12.58-.17,1.21-.17,1.9,0,2.3.69,4.2,2.07,5.7,1.38,1.5,3.45,2.59,6.22,3.28,2.07.46,3.57,1.09,4.49,1.9.92.81,1.38,1.9,1.38,3.28,0,1.61-.64,3.8-1.9,6.56-1.27,2.76-3.05,5.64-5.35,8.64-.46.46-.92.98-1.38,1.55-.46.58-.92,1.21-1.38,1.9-4.38,5.07-9.9,9.39-16.58,12.95-6.68,3.57-13.47,5.93-20.38,7.08-1.61.23-3.17.4-4.66.52-1.5.12-3.05.17-4.66.17-10.82,0-20.15-3.68-27.98-11.05-7.83-7.37-11.74-16-11.74-25.9v-2.08c.69-12.24,5.87-23.95,15.54-35.15,9.67-11.2,22.33-20.15,37.99-26.85,9.21-4.16,19.97-7.44,32.29-9.86,12.31-2.42,24.92-3.98,37.82-4.68h19Zm10.36,84.84c3.45-.92,6.68-2.3,9.67-4.15,3.22-2.3,6.04-5.35,8.46-9.15,2.42-3.8,4.2-7.77,5.35-11.92.23-1.15.46-2.42.69-3.8.23-1.38.34-2.64.34-3.8,0-5.3-1.61-9.61-4.83-12.95-3.23-3.34-8.06-5.47-14.51-6.39-1.38,2.76-2.54,5.13-3.45,7.08-.92,1.96-1.73,3.97-2.42,6.04-.23.46-.46.98-.69,1.56-.23.58-.46,1.1-.69,1.55-1.15,3-2.48,6.68-3.97,11.05-1.5,4.38-3.51,10.59-6.04,18.65-.23.92-.58,2.13-1.04,3.63-.47,1.5-1.04,3.17-1.73,5.01,6.44-.69,11.4-1.49,14.85-2.42Z"/>
  <path class="cls-2" d="m882.17,469.68c8.98,0,16.17,1.9,21.59,5.7,5.41,3.8,8.12,8.81,8.12,15.03s-2.88,11.46-8.63,16.41c-5.76,4.95-12.09,7.43-19,7.43-2.99,0-5.01-.52-6.04-1.55-1.04-1.04-1.67-3.16-1.9-6.39,0-1.15-.86-2.25-2.59-3.28-1.73-1.04-3.75-1.56-6.04-1.56-3.92,0-7.77.81-11.57,2.43-3.8,1.62-7.54,4.16-11.22,7.62-1.38,1.15-2.71,2.37-3.97,3.64-1.27,1.27-2.48,2.71-3.63,4.33,18.88,2.77,33.5,8.43,43.86,16.98,10.36,8.55,15.54,19.29,15.54,32.22,0,8.78-2.3,16.98-6.91,24.6-4.61,7.62-10.83,13.63-18.65,18.01-.92.46-1.78.92-2.59,1.38-.81.46-1.67.81-2.59,1.04-3.45,1.61-7.14,2.88-11.05,3.8-3.92.92-8.98,1.61-15.2,2.07,9.44,1.15,16.06,4.24,19.86,9.27,3.8,5.04,5.7,13.27,5.7,24.71l-.34,10.29c0,2.98.57,5.32,1.73,7.04,1.15,1.72,2.76,2.57,4.84,2.57.46,0,.92-.05,1.38-.17.46-.11,1.04-.29,1.73-.52.92-.22,1.78-.4,2.59-.52.8-.11,1.44-.17,1.9-.17,1.61,0,2.99.75,4.14,2.25,1.15,1.5,1.73,3.17,1.73,5.01,0,2.3-.69,5.59-2.07,9.84-1.38,4.26-3.23,8.58-5.53,12.95-.69,1.15-1.33,2.3-1.9,3.45-.58,1.15-1.21,2.3-1.9,3.45-4.61,7.83-10.48,14.51-17.61,20.03-7.14,5.53-14.51,9.1-22.1,10.71-1.61.46-3.34.8-5.18,1.04-1.85.23-3.57.35-5.18.35-7.14,0-13.24-2.7-18.31-8.09-5.07-5.4-7.6-12.23-7.6-20.5,0-3.9.69-9.76,2.07-17.56,1.38-7.81,3.22-16.77,5.53-26.88.92-3.44,1.61-6.77,2.07-9.99.46-3.22.69-5.86.69-7.92,0-4.36-1.33-7.98-3.97-10.85-2.65-2.87-6.05-4.31-10.19-4.31h-2.59c-.34,0-.86.12-1.55.34-.92,2.07-1.61,3.79-2.07,5.17-.46,1.38-.81,2.3-1.04,2.75l-3.45,11.37-3.45,11.71-3.8,11.37c-10.14,32.84-26.25,58.47-48.35,76.88-22.1,18.4-47.9,27.61-77.37,27.61-20.95,0-38.74-6.73-53.36-20.2-14.62-13.47-21.93-29.74-21.93-48.8,0-21.12,9.03-39.67,27.11-55.63,18.07-15.96,39.08-23.95,63.03-23.95,7.13,0,12.55.86,16.23,2.59,3.68,1.72,5.53,4.19,5.53,7.4v1.38c0,.46-.12.8-.35,1.03,0,.92-.46,1.89-1.38,2.93-.92,1.04-2.42,3.04-4.49,6.03-.46.92-.86,1.95-1.21,3.1-.34,1.15-.52,2.64-.52,4.48,0,4.82,1.67,8.67,5.01,11.54,3.34,2.87,7.88,4.31,13.64,4.31.92,0,1.84-.05,2.76-.17.92-.11,1.95-.17,3.11-.17,4.6-.92,9.27-2.81,13.99-5.68,4.72-2.87,9.15-6.6,13.3-11.19.22-.23.46-.52.69-.86.23-.34.46-.63.69-.86,1.61-1.83,3.16-3.78,4.66-5.85,1.49-2.07,2.93-4.25,4.32-6.55,2.53-4.36,5.18-9.53,7.95-15.5,2.76-5.97,5.98-13.67,9.67-23.08,1.38-3.45,2.64-6.5,3.8-9.15,1.15-2.64,2.3-5.24,3.45-7.77,0-.23.05-.52.17-.86.11-.35.29-.63.52-.86,2.07-4.6,4.37-9.67,6.91-15.2,2.53-5.53,6.22-13.35,11.05-23.49-10.14,1.61-19.06,4.78-26.77,9.5-7.72,4.72-12.38,9.73-13.99,15.02-.23.46-.41.98-.52,1.56-.12.58-.17,1.21-.17,1.9,0,2.3.69,4.2,2.07,5.7,1.38,1.5,3.45,2.59,6.22,3.28,2.07.46,3.57,1.09,4.49,1.9.92.81,1.38,1.9,1.38,3.28,0,1.61-.64,3.8-1.9,6.56-1.27,2.76-3.05,5.65-5.35,8.64-.46.46-.92.98-1.38,1.55-.46.58-.92,1.21-1.38,1.9-4.38,5.07-9.9,9.39-16.58,12.95-6.68,3.57-13.47,5.93-20.38,7.08-1.61.23-3.17.4-4.66.52-1.5.12-3.05.17-4.66.17-10.82,0-20.15-3.68-27.98-11.05-7.83-7.37-11.74-16-11.74-25.9v-2.08c.69-12.24,5.87-23.95,15.54-35.15,9.67-11.2,22.33-20.15,37.99-26.85,9.21-4.16,19.97-7.44,32.29-9.86,12.31-2.42,24.92-3.98,37.82-4.68h19c8.06-11.77,17.56-21.65,28.49-29.61,10.93-7.97,22.28-13.22,34.02-15.76,2.53-.69,5.18-1.21,7.94-1.55,2.76-.35,5.41-.52,7.95-.52m-82.89,134.7c6.44-.69,11.4-1.49,14.85-2.42,3.45-.92,6.68-2.3,9.67-4.15,3.22-2.3,6.04-5.35,8.46-9.15,2.42-3.8,4.2-7.77,5.35-11.92.23-1.15.46-2.42.69-3.8.23-1.38.34-2.64.34-3.8,0-5.3-1.61-9.61-4.83-12.95-3.23-3.34-8.06-5.47-14.51-6.39-1.38,2.76-2.54,5.13-3.45,7.08-.92,1.96-1.73,3.97-2.42,6.04-.23.46-.46.98-.69,1.56-.23.58-.46,1.1-.69,1.55-1.15,3-2.48,6.68-3.97,11.05-1.5,4.38-3.51,10.59-6.04,18.65-.23.92-.58,2.13-1.04,3.63-.47,1.5-1.04,3.17-1.73,5.01m82.89-139.62c-2.7,0-5.58.19-8.56.56-2.93.37-5.79.92-8.5,1.65-12.33,2.69-24.35,8.26-35.75,16.56-10.67,7.77-20.14,17.41-28.16,28.67h-16.7c-13.07.71-26.02,2.32-38.5,4.77-12.64,2.49-23.87,5.92-33.37,10.21-16.19,6.93-29.57,16.4-39.69,28.12-10.35,11.99-15.98,24.8-16.73,38.09v.14s0,.14,0,.14v2.08c0,11.27,4.47,21.19,13.29,29.48,1.61,1.52,3.29,2.9,5.02,4.14-2.82-.41-6.01-.62-9.6-.62-25.07,0-47.37,8.47-66.29,25.18-19.09,16.86-28.77,36.82-28.77,59.31,0,20.41,7.91,38.04,23.52,52.42,15.49,14.27,34.56,21.51,56.69,21.51,30.51,0,57.6-9.67,80.51-28.75,22.74-18.94,39.53-45.59,49.91-79.21l3.76-11.26.03-.08.02-.08,3.45-11.71,3.34-11c.23-.52.57-1.37,1.1-2.95.21-.63.48-1.35.81-2.16h.75c2.77,0,4.86.87,6.58,2.72,1.79,1.95,2.67,4.41,2.67,7.52,0,1.81-.22,4.24-.64,7.23-.43,3.01-1.09,6.18-1.96,9.42l-.02.09-.02.09c-2.3,10.08-4.17,19.2-5.57,27.11-1.45,8.17-2.15,14.19-2.15,18.42,0,9.52,3,17.55,8.93,23.86,6,6.4,13.37,9.65,21.89,9.65,1.79,0,3.68-.13,5.78-.38,2.04-.26,3.97-.64,5.76-1.14,8.23-1.77,16.28-5.67,23.93-11.59,7.6-5.89,13.94-13.1,18.84-21.43.74-1.22,1.44-2.5,2.06-3.75.5-1.01,1.08-2.06,1.72-3.13l.07-.12.06-.12c2.43-4.61,4.4-9.23,5.85-13.72,1.55-4.8,2.31-8.51,2.31-11.36s-.92-5.63-2.74-8c-2.67-3.45-5.84-4.17-8.04-4.17-.69,0-1.51.07-2.58.22-.99.15-2.01.35-3.08.61l-.2.05-.19.07c-.54.18-1,.32-1.36.41-.07.02-.12.02-.19.02-.46,0-.52-.05-.75-.39-.41-.61-.89-1.84-.89-4.3l.34-10.13c0-12.82-2.19-21.87-6.69-27.84-1.23-1.63-2.69-3.1-4.38-4.39,2.96-.85,5.81-1.9,8.52-3.14,1.18-.33,2.31-.81,3.36-1.41.72-.41,1.51-.83,2.35-1.25l.1-.05.1-.05c8.54-4.79,15.42-11.43,20.45-19.76,5.05-8.37,7.62-17.5,7.62-27.15,0-14.41-5.83-26.53-17.33-36.01-9.28-7.66-21.81-13.18-37.32-16.46.36-.31.71-.62,1.08-.92l.11-.09.11-.1c3.23-3.04,6.52-5.29,9.78-6.68,3.22-1.37,6.37-2.04,9.64-2.04,1.41,0,2.56.28,3.51.85.11.07.2.13.28.18.38,4.12,1.42,6.91,3.26,8.75,2.02,2.02,5.13,3,9.52,3,8.09,0,15.56-2.9,22.2-8.61,6.86-5.91,10.34-12.68,10.34-20.13s-3.53-14.36-10.21-19.05c-6.23-4.38-14.45-6.59-24.41-6.59h0Zm-65.6,103.25c.24-.51.49-1.07.74-1.68.18-.45.35-.84.53-1.19l.16-.31.11-.33c.63-1.89,1.37-3.75,2.2-5.5.51-1.09,1.1-2.3,1.75-3.64,3.59.9,6.35,2.33,8.23,4.27,2.32,2.41,3.45,5.53,3.45,9.53,0,.87-.09,1.87-.28,3-.21,1.24-.42,2.4-.63,3.46-1.03,3.61-2.61,7.11-4.72,10.42-2.03,3.2-4.4,5.79-7.04,7.69-2.53,1.54-5.3,2.72-8.21,3.49-1.71.46-3.88.89-6.48,1.3.15-.53.28-1,.38-1.42,2.55-8.1,4.5-14.13,5.96-18.4,1.49-4.34,2.74-7.84,3.83-10.68h0Zm-55.34,21.33c-.51-1.13-1.26-2.13-2.22-2.98-1.58-1.38-3.75-2.36-6.67-3.01-1.66-.42-2.97-1.05-3.67-1.82-.36-.39-.77-1.01-.77-2.37,0-.46.04-.74.07-.9.05-.24.09-.33.1-.36l.19-.37.12-.4c1.24-4.08,5.23-8.2,11.85-12.26,4.63-2.83,9.8-5.08,15.44-6.72-2.81,5.93-5.04,10.7-6.76,14.47-2.44,5.3-4.65,10.19-6.66,14.65-.42.58-.74,1.23-.97,1.94-.01.04-.03.08-.04.12h0Zm-60.39,48.28c1.77,0,3.47-.06,5.05-.19,1.61-.12,3.29-.31,4.98-.55,7.51-1.25,14.87-3.8,22-7.61,6.92-3.7,12.79-8.23,17.46-13.49-2.19,5.34-4.17,9.95-5.94,13.76-2.68,5.79-5.28,10.87-7.73,15.1-1.26,2.1-2.64,4.19-4.05,6.14-1.37,1.88-2.81,3.7-4.3,5.4-.42.44-.82.94-1.18,1.49-.02.04-.06.09-.1.14l-.08.08-.05.06c-3.8,4.21-7.91,7.67-12.21,10.29-4.05,2.46-8.07,4.14-11.95,4.97-1.13.02-2.2.09-3.19.21-.71.09-1.43.14-2.16.14-4.52,0-8.03-1.05-10.44-3.12-2.25-1.94-3.3-4.42-3.3-7.81,0-1.77.19-2.68.31-3.07.23-.76.48-1.44.75-2.01,2.29-3.28,3.39-4.67,3.91-5.25,1.32-1.5,2.15-3.05,2.47-4.65.33-.79.5-1.66.5-2.58v-1.38c0-1.88-.44-4.77-2.61-7.51,3.76.97,7.72,1.46,11.85,1.46h0Z"/>
  <path class="cls-3" d="m1040.01,683.13c-.69,3-1.21,5.47-1.56,7.43-.34,1.96-.52,3.51-.52,4.66-.23,2.3.69,4.44,2.76,6.39,2.07,1.96,4.49,2.93,7.25,2.93.92,0,1.78-.05,2.59-.17.8-.11,1.56-.29,2.25-.52.46,0,.86-.05,1.21-.17.34-.11.74-.29,1.21-.52,1.84-.69,3.45-1.21,4.83-1.55,1.38-.35,2.53-.52,3.45-.52,1.38,0,2.64.64,3.8,1.9,1.15,1.27,1.73,2.71,1.73,4.32,0,1.85-.58,3.86-1.73,6.04-1.15,2.19-2.88,4.32-5.18,6.39-.69.69-1.33,1.33-1.9,1.9s-1.21,1.1-1.9,1.56c-4.38,3.92-9.15,7.25-14.33,10.02-5.18,2.76-10.42,4.84-15.71,6.22-2.76.69-5.59,1.26-8.46,1.73-2.88.46-5.7.69-8.46.69-8.29,0-15.08-2.59-20.38-7.77-5.3-5.18-7.95-11.8-7.95-19.86v-3.63c0-1.26.11-2.71.35-4.32-4.15,5.07-7.25,8.92-9.32,11.57-2.07,2.65-4.03,4.9-5.87,6.74-.23.23-.52.46-.86.69-.34.23-.64.46-.86.69-.47.69-.92,1.27-1.38,1.73s-1.04.92-1.73,1.38c-2.53,2.54-5.3,4.72-8.29,6.56-2.99,1.85-6.1,3.34-9.32,4.49-2.3.69-4.49,1.26-6.56,1.73-2.07.46-4.14.69-6.22.69-10.14,0-18.54-4.2-25.21-12.61-6.68-8.4-10.02-19.28-10.02-32.64,0-23.25,7.88-44.38,23.66-63.38,15.77-19,33.21-28.5,52.32-28.5,6.68,0,12.83,1.21,18.48,3.63,5.64,2.42,10.65,6.16,15.02,11.22,6.22-4.37,11.11-7.54,14.68-9.5,3.57-1.95,6.96-3.28,10.19-3.97.92-.23,1.95-.4,3.11-.52,1.15-.11,2.3-.17,3.45-.17,4.6,0,8.29,1.21,11.05,3.63,2.76,2.42,4.15,5.58,4.15,9.5,0,.69-.06,1.61-.17,2.76-.12,1.15-.41,2.42-.86,3.8l-12.78,57.34Zm-61.13-57.68c-3.45,1.61-7.31,7.43-11.57,17.44-4.26,10.02-7.31,21.24-9.15,33.68,0,.47-.06.81-.17,1.04-.12.23-.17.69-.17,1.38-1.15,8.29-1.27,15.14-.34,20.55.92,5.41,2.76,8.24,5.53,8.46,3.68.69,7.77-4.37,12.26-15.2,4.49-10.82,7.77-23.49,9.84-37.99,1.15-8.29,1.32-14.97.52-20.03-.81-5.06-2.48-8.06-5.01-8.98-.46,0-1.04-.11-1.73-.34Z"/>
  <path class="cls-2" d="m973.7,605.41c6.68,0,12.83,1.21,18.48,3.63,5.64,2.42,10.65,6.16,15.02,11.22,6.22-4.37,11.11-7.54,14.68-9.5,3.57-1.95,6.96-3.28,10.19-3.97.92-.23,1.95-.4,3.11-.52,1.15-.11,2.3-.17,3.45-.17,4.6,0,8.29,1.21,11.05,3.63,2.76,2.42,4.15,5.58,4.15,9.5,0,.69-.06,1.61-.17,2.76-.12,1.15-.41,2.42-.86,3.8l-12.78,57.34c-.69,3-1.21,5.47-1.56,7.42-.34,1.96-.52,3.51-.52,4.66-.23,2.3.69,4.44,2.76,6.39,2.07,1.96,4.49,2.93,7.25,2.93.92,0,1.78-.05,2.59-.17.8-.11,1.56-.29,2.25-.52.46,0,.86-.05,1.21-.17.34-.11.74-.29,1.21-.52,1.84-.69,3.45-1.21,4.83-1.55,1.38-.35,2.53-.52,3.45-.52,1.38,0,2.64.64,3.8,1.9,1.15,1.27,1.73,2.71,1.73,4.32,0,1.85-.58,3.86-1.73,6.04-1.15,2.19-2.88,4.32-5.18,6.39-.69.69-1.33,1.33-1.9,1.9-.58.58-1.21,1.1-1.9,1.56-4.38,3.92-9.15,7.25-14.33,10.02-5.18,2.76-10.42,4.84-15.71,6.22-2.76.69-5.59,1.26-8.46,1.73-2.88.46-5.7.69-8.46.69-8.29,0-15.08-2.59-20.38-7.77-5.3-5.18-7.95-11.8-7.95-19.86v-3.63c0-1.26.11-2.71.35-4.32-4.15,5.07-7.25,8.92-9.32,11.57-2.07,2.65-4.03,4.9-5.87,6.74-.23.23-.52.46-.86.69-.34.23-.64.46-.86.69-.47.69-.92,1.27-1.38,1.73-.46.46-1.04.92-1.73,1.38-2.53,2.54-5.3,4.72-8.29,6.56-2.99,1.85-6.1,3.34-9.32,4.49-2.3.69-4.49,1.26-6.56,1.73-2.07.46-4.14.69-6.22.69-10.14,0-18.54-4.2-25.21-12.61-6.68-8.4-10.02-19.28-10.02-32.64,0-23.25,7.88-44.38,23.66-63.38,15.77-19,33.21-28.5,52.32-28.5m-10.04,102.64c3.51,0,7.37-5.08,11.59-15.26,4.49-10.82,7.77-23.49,9.84-37.99,1.15-8.29,1.32-14.97.52-20.03-.81-5.06-2.48-8.06-5.01-8.98-.46,0-1.04-.11-1.73-.34-3.45,1.61-7.31,7.43-11.57,17.44-4.26,10.02-7.31,21.24-9.15,33.68,0,.47-.06.81-.17,1.04-.12.23-.17.69-.17,1.38-1.15,8.29-1.27,15.14-.34,20.55.92,5.41,2.76,8.24,5.53,8.46.22.04.44.06.67.06m10.04-107.56c-20.56,0-39.44,10.19-56.11,30.27-16.45,19.81-24.79,42.19-24.79,66.52,0,14.44,3.73,26.45,11.08,35.7,7.62,9.6,17.4,14.46,29.06,14.46,2.41,0,4.86-.27,7.28-.8,2.25-.51,4.57-1.12,6.92-1.82l.12-.04.12-.04c3.56-1.27,7-2.93,10.25-4.93,3.17-1.95,6.15-4.29,8.85-6.94.79-.55,1.46-1.11,2.06-1.71.52-.52,1.04-1.13,1.55-1.84.55-.36,1.09-.8,1.56-1.27,1.99-1.99,4.1-4.41,6.27-7.18.2-.25.41-.52.63-.8,1.07,6.85,4.08,12.72,8.98,17.52,6.22,6.09,14.23,9.17,23.81,9.17,2.98,0,6.09-.25,9.23-.75,3.04-.49,6.03-1.1,8.89-1.81,5.69-1.48,11.34-3.72,16.84-6.65,5.41-2.88,10.47-6.4,15.05-10.47.83-.58,1.62-1.24,2.34-1.96l.89-.89.92-.92c2.68-2.43,4.74-5.01,6.14-7.66,1.52-2.9,2.29-5.7,2.29-8.33,0-2.82-1.04-5.45-3-7.62-2.66-2.91-5.51-3.52-7.44-3.52-1.35,0-2.87.22-4.65.67-1.56.39-3.31.95-5.36,1.72l-.25.09-.24.12c-.12.06-.24.12-.34.16h-.64l-.78.26c-.41.14-.87.24-1.38.31-.56.08-1.2.12-1.9.12-1.52,0-2.71-.49-3.87-1.59-1.36-1.28-1.28-2.01-1.25-2.33l.02-.25v-.25c0-.59.08-1.73.44-3.81.33-1.87.84-4.29,1.5-7.17l12.74-57.14c.52-1.62.86-3.16,1-4.59.13-1.35.2-2.41.2-3.27,0-5.3-2.01-9.87-5.83-13.2-3.67-3.21-8.47-4.84-14.29-4.84-1.28,0-2.6.07-3.93.2-1.43.15-2.67.36-3.81.64-3.51.75-7.39,2.25-11.37,4.43-3.02,1.66-6.86,4.08-11.64,7.36-4.12-4.02-8.74-7.14-13.76-9.29-6.24-2.67-13.11-4.03-20.42-4.03h0Zm-10.63,76.49c1.77-11.85,4.72-22.67,8.77-32.18,3.54-8.32,6.12-12.03,7.64-13.67.39.7.91,2.01,1.29,4.41.72,4.56.55,10.81-.53,18.58-2,14.02-5.21,26.4-9.51,36.78-3.78,9.1-6.25,11.5-7.07,12.09-.3-.46-.88-1.65-1.33-4.3-.84-4.9-.71-11.31.37-19.05l.05-.34v-.39c.2-.61.31-1.25.34-1.95h0Z"/>
  <path class="cls-3" d="m1129.47,738.39c-.23.69-.46,1.49-.69,2.42-.23.92-.46,1.84-.69,2.76-2.54,10.82-5.18,19.51-7.94,26.08-2.76,6.56-6.34,12.37-10.71,17.44-5.76,7.13-12.9,12.61-21.41,16.41-8.52,3.8-17.39,5.7-26.59,5.7-11.51,0-20.95-2.99-28.32-8.98-7.37-5.99-11.05-13.7-11.05-23.14v-2.59c0-.58.12-1.21.35-1.9,3.68,1.61,6.68,2.82,8.98,3.63,2.3.81,4.49,1.32,6.56,1.56h2.76c.69,0,1.38-.06,2.07-.17.69-.12,1.38-.17,2.07-.17,3.92-.69,7.66-2.13,11.23-4.32,3.57-2.19,6.62-4.89,9.15-8.12.46-.69.8-1.27,1.04-1.73.23-.46.57-1.04,1.04-1.73.92-1.38,1.67-2.88,2.24-4.49.57-1.61,1.21-3.69,1.9-6.22.46-1.61.92-3.45,1.38-5.53.46-2.07.92-4.38,1.38-6.91l18.65-90.49c.46-2.53.86-4.89,1.21-7.08.34-2.19.52-3.74.52-4.66,0-.69-.06-1.32-.17-1.9-.12-.57-.29-1.21-.52-1.9-.46-.92-1.27-1.84-2.42-2.76-1.15-.92-2.88-2.19-5.18-3.8,6.91-5.53,13.24-9.78,19-12.78,5.75-2.99,11.4-5.06,16.92-6.22,1.84-.46,3.57-.74,5.18-.86,1.61-.11,3.34-.17,5.18-.17,6.22,0,11.17,1.5,14.85,4.49,3.68,3,5.53,7.03,5.53,12.09,0,.69-.06,1.55-.17,2.59-.12,1.04-.29,2.13-.52,3.28,0,.23-.06.52-.17.86-.12.35-.17.64-.17.86l-22.45,108.45Zm28.32-191.86c4.84,4.26,7.25,9.84,7.25,16.75,0,7.83-3.92,14.85-11.74,21.07-7.83,6.22-16.92,9.32-27.29,9.32-7.14,0-12.95-2.07-17.44-6.22-4.49-4.15-6.74-9.44-6.74-15.89,0-8.52,3.63-15.89,10.88-22.1,7.25-6.22,15.83-9.33,25.73-9.33,8.06,0,14.51,2.13,19.34,6.39Z"/>
  <path class="cls-2" d="m1138.45,540.13c8.06,0,14.51,2.13,19.34,6.39,4.84,4.26,7.25,9.84,7.25,16.75,0,7.83-3.92,14.85-11.74,21.07-7.83,6.22-16.92,9.32-27.29,9.32-7.14,0-12.95-2.07-17.44-6.22-4.49-4.15-6.74-9.44-6.74-15.89,0-8.52,3.63-15.89,10.88-22.1,7.25-6.22,15.83-9.33,25.73-9.33m-5.87,65.62c6.22,0,11.17,1.5,14.85,4.49,3.68,3,5.53,7.03,5.53,12.09,0,.69-.06,1.55-.17,2.59-.12,1.04-.29,2.13-.52,3.28,0,.23-.06.52-.17.86-.12.35-.17.64-.17.86l-22.45,108.45c-.23.69-.46,1.49-.69,2.42-.23.92-.46,1.84-.69,2.76-2.54,10.82-5.18,19.51-7.94,26.08-2.76,6.56-6.34,12.37-10.71,17.44-5.76,7.13-12.9,12.61-21.41,16.41-8.52,3.8-17.39,5.7-26.59,5.7-11.51,0-20.95-2.99-28.32-8.98-7.37-5.99-11.05-13.7-11.05-23.14v-2.59c0-.58.12-1.21.35-1.9,3.68,1.61,6.68,2.82,8.98,3.63,2.3.81,4.49,1.32,6.56,1.56h2.76c.69,0,1.38-.06,2.07-.17.69-.12,1.38-.17,2.07-.17,3.92-.69,7.66-2.13,11.23-4.32,3.57-2.19,6.62-4.89,9.15-8.12.46-.69.8-1.27,1.04-1.73.23-.46.57-1.04,1.04-1.73.92-1.38,1.67-2.88,2.24-4.49.57-1.61,1.21-3.69,1.9-6.22.46-1.61.92-3.45,1.38-5.53.46-2.07.92-4.38,1.38-6.91l18.65-90.49c.46-2.53.86-4.89,1.21-7.08.34-2.19.52-3.74.52-4.66,0-.69-.06-1.32-.17-1.9-.12-.57-.29-1.21-.52-1.9-.46-.92-1.27-1.84-2.42-2.76-1.15-.92-2.88-2.19-5.18-3.8,6.91-5.53,13.24-9.78,19-12.78,5.75-2.99,11.4-5.06,16.92-6.22,1.84-.46,3.57-.74,5.18-.86,1.61-.11,3.34-.17,5.18-.17m5.87-70.54c-11.06,0-20.8,3.54-28.93,10.51-8.36,7.17-12.6,15.86-12.6,25.84,0,7.84,2.8,14.4,8.32,19.5,5.41,4.99,12.4,7.52,20.78,7.52,11.45,0,21.66-3.5,30.34-10.39,9.03-7.17,13.6-15.56,13.6-24.92,0-8.35-3-15.22-8.92-20.44-5.74-5.06-13.34-7.62-22.59-7.62h0Zm-5.87,65.62c-1.94,0-3.8.06-5.53.19-1.87.14-3.87.46-5.93.97-5.91,1.25-12,3.48-18.09,6.65-6.02,3.13-12.68,7.61-19.8,13.3l-5.12,4.09,5.36,3.77c2.19,1.54,3.86,2.76,4.95,3.63.52.42.81.74.95.93.09.32.17.61.23.89.04.22.07.53.07.89,0,.3-.04,1.28-.46,3.9-.34,2.15-.74,4.48-1.19,6.97l-18.63,90.37c-.48,2.61-.93,4.87-1.37,6.84-.44,1.98-.89,3.75-1.31,5.24-.66,2.44-1.27,4.41-1.8,5.92-.44,1.22-1.01,2.37-1.71,3.42-.58.87-1.03,1.62-1.36,2.28-.06.11-.24.45-.6,1-2.13,2.68-4.74,4.97-7.74,6.82-2.92,1.79-5.99,3-9.14,3.6-.82.02-1.62.1-2.41.23-.41.07-.84.1-1.25.1h-2.47c-1.63-.2-3.38-.63-5.23-1.28-2.18-.77-5.09-1.94-8.63-3.49l-4.95-2.16-1.69,5.13c-.4,1.21-.59,2.34-.59,3.44v2.59c0,10.94,4.33,20.01,12.87,26.96,8.24,6.69,18.81,10.08,31.42,10.08,9.86,0,19.48-2.06,28.6-6.13,9.19-4.1,17.01-10.09,23.24-17.81,4.59-5.31,8.47-11.62,11.41-18.62,2.85-6.77,5.61-15.81,8.2-26.86l.67-2.68c.2-.8.39-1.48.58-2.06l.09-.28.06-.29,22.45-108.45.1-.49v-.07c.16-.53.26-1.04.31-1.52.22-1.14.39-2.27.52-3.35.14-1.26.21-2.28.21-3.15,0-6.49-2.54-11.99-7.34-15.9-4.58-3.71-10.62-5.59-17.96-5.59h0Z"/>
  <path class="cls-3" d="m1264.86,607.49c3.45,0,6.05.75,7.77,2.25,1.73,1.5,2.59,3.75,2.59,6.73,0,8.29-1.38,14.45-4.15,18.48-2.76,4.03-7.03,6.04-12.78,6.04h-17.96c-.23.69-.41,1.21-.52,1.56-.12.34-.17.75-.17,1.21-.23.92-.58,2.3-1.04,4.15-.46,1.84-1.38,6.1-2.76,12.78-.23,1.38-.69,3.51-1.38,6.39-.69,2.88-1.5,6.28-2.42,10.19-.69,2.54-1.21,5.01-1.56,7.43-.34,2.42-.52,4.66-.52,6.73,0,4.38,1.32,7.83,3.97,10.36,2.64,2.54,6.5,3.8,11.57,3.8,1.84,0,3.85-.29,6.04-.86,2.19-.57,4.78-1.44,7.77-2.59,1.61-.69,3.11-1.21,4.49-1.55,1.38-.35,2.53-.52,3.45-.52,1.61,0,2.94.52,3.97,1.56,1.04,1.04,1.56,2.48,1.56,4.32,0,2.54-1.1,5.35-3.28,8.46-2.19,3.11-5.47,6.39-9.84,9.84-.69.46-1.38.98-2.07,1.56-.69.58-1.5,1.1-2.42,1.55-4.83,3.45-10.25,6.28-16.23,8.46-5.99,2.19-11.98,3.63-17.96,4.32-1.61.23-3.17.4-4.66.52-1.5.11-3.06.17-4.66.17-11.74,0-21.53-3.22-29.36-9.67-7.83-6.44-11.74-14.62-11.74-24.52v-5.53c.46-3.22,1.32-7.13,2.59-11.74,1.26-4.6,3.85-12.78,7.77-24.52.92-2.99,1.67-5.53,2.25-7.6.57-2.07,1.21-4.15,1.9-6.22.23-.92.46-1.84.69-2.76.22-.92.46-1.95.69-3.11,0-.69.05-1.38.17-2.07.11-.69.29-1.38.52-2.07-4.14-.46-7.2-1.61-9.15-3.45-1.96-1.84-2.93-4.6-2.93-8.29,0-.69.05-1.32.17-1.9.11-.57.17-1.21.17-1.9.92-2.99,3.39-6.5,7.43-10.54,4.03-4.02,11.34-10.53,21.93-19.51,11.05-9.44,20.15-16.35,27.29-20.72,7.13-4.37,12.55-6.56,16.23-6.56,2.53,0,4.6.75,6.22,2.25,1.61,1.5,2.3,3.4,2.07,5.7,0,1.15-.17,2.42-.52,3.8-.35,1.38-.86,2.99-1.56,4.83-.23.69-.52,1.5-.86,2.42-.35.92-.64,1.85-.86,2.76-.23.69-.46,1.44-.69,2.24-.23.81-.46,1.56-.69,2.25-.69,2.54-1.33,5.01-1.9,7.43-.58,2.42-.98,4.32-1.21,5.7h16.58Z"/>
  <path class="cls-2" d="m1248.28,568.11c2.53,0,4.61.75,6.22,2.25,1.61,1.5,2.3,3.4,2.07,5.7,0,1.15-.17,2.42-.52,3.8-.35,1.38-.86,2.99-1.56,4.83-.23.69-.52,1.5-.86,2.42-.35.92-.64,1.85-.86,2.76-.23.69-.46,1.44-.69,2.24-.23.81-.46,1.56-.69,2.25-.69,2.54-1.33,5.01-1.9,7.43-.58,2.42-.98,4.32-1.21,5.7h16.58c3.45,0,6.05.75,7.77,2.25,1.73,1.5,2.59,3.74,2.59,6.73,0,8.29-1.38,14.45-4.15,18.48-2.76,4.03-7.03,6.04-12.78,6.04h-17.96c-.23.69-.41,1.21-.52,1.56-.12.34-.17.75-.17,1.21-.23.92-.58,2.3-1.04,4.15-.46,1.84-1.38,6.1-2.76,12.78-.23,1.38-.69,3.51-1.38,6.39-.69,2.88-1.5,6.28-2.42,10.19-.69,2.54-1.21,5.01-1.56,7.43-.34,2.42-.52,4.66-.52,6.73,0,4.38,1.32,7.83,3.97,10.36,2.64,2.54,6.5,3.8,11.57,3.8,1.84,0,3.85-.29,6.04-.86,2.19-.57,4.78-1.44,7.77-2.59,1.61-.69,3.11-1.21,4.49-1.55,1.38-.35,2.53-.52,3.45-.52,1.61,0,2.94.52,3.97,1.56,1.04,1.03,1.56,2.48,1.56,4.32,0,2.54-1.1,5.35-3.28,8.46-2.19,3.11-5.47,6.39-9.84,9.84-.69.46-1.38.98-2.07,1.56-.69.58-1.5,1.1-2.42,1.55-4.83,3.45-10.25,6.28-16.23,8.46-5.99,2.19-11.98,3.63-17.96,4.32-1.61.23-3.17.4-4.66.52-1.5.11-3.06.17-4.66.17-11.74,0-21.53-3.22-29.36-9.67-7.83-6.44-11.74-14.62-11.74-24.52v-5.53c.46-3.22,1.32-7.13,2.59-11.74,1.26-4.6,3.85-12.78,7.77-24.52.92-2.99,1.67-5.53,2.25-7.6.57-2.07,1.21-4.15,1.9-6.22.23-.92.46-1.84.69-2.76.22-.92.46-1.95.69-3.11,0-.69.05-1.38.17-2.07.11-.69.29-1.38.52-2.07-4.14-.46-7.2-1.61-9.15-3.45-1.96-1.84-2.93-4.6-2.93-8.29,0-.69.05-1.32.17-1.9.11-.57.17-1.21.17-1.9.92-2.99,3.39-6.5,7.43-10.54,4.03-4.02,11.34-10.53,21.93-19.51,11.05-9.44,20.15-16.35,27.29-20.72,7.13-4.37,12.55-6.56,16.23-6.56m0-4.92c-4.71,0-10.68,2.32-18.8,7.29-7.32,4.48-16.71,11.61-27.91,21.18-10.61,8.99-18.09,15.65-22.22,19.78-4.65,4.66-7.48,8.77-8.65,12.57l-.22.71v.74c0,.45-.04.76-.08.93-.18.88-.27,1.82-.27,2.87,0,5.08,1.51,9.07,4.48,11.87,1.79,1.69,4.05,2.94,6.86,3.77-.17.8-.33,1.53-.5,2.19l-.64,2.56c-.71,2.14-1.36,4.26-1.92,6.28-.57,2.02-1.3,4.52-2.21,7.46-3.89,11.65-6.53,19.99-7.81,24.66-1.34,4.86-2.23,8.91-2.72,12.36l-.05.34v5.87c0,11.4,4.55,20.93,13.53,28.32,8.69,7.16,19.62,10.79,32.48,10.79,1.71,0,3.41-.06,5.04-.19,1.58-.12,3.25-.31,4.97-.55,6.24-.72,12.66-2.26,18.96-4.57,6.25-2.28,12-5.26,17.1-8.87,1.11-.58,2.12-1.25,3.01-1.99.56-.46,1.12-.88,1.66-1.25l.16-.11.15-.12c4.79-3.78,8.33-7.34,10.81-10.87,2.81-4,4.18-7.7,4.18-11.3,0-3.97-1.63-6.43-3-7.79-1.96-1.96-4.53-2.99-7.45-2.99-1.34,0-2.86.22-4.65.67-1.61.4-3.34,1-5.15,1.77-2.78,1.07-5.19,1.87-7.16,2.39-1.77.47-3.38.7-4.8.7-3.74,0-6.49-.82-8.17-2.43-1.66-1.58-2.46-3.81-2.46-6.81,0-1.83.16-3.86.47-6.04.32-2.2.8-4.5,1.43-6.83l.02-.09.02-.09c.91-3.9,1.72-7.29,2.41-10.16.69-2.89,1.18-5.12,1.43-6.63,1.39-6.72,2.27-10.8,2.7-12.49l.8-3.19h14.12c9.28,0,14.28-4.45,16.84-8.18,3.37-4.91,5.01-11.86,5.01-21.26,0-5.56-2.33-8.75-4.28-10.45-2.64-2.29-6.34-3.45-11-3.45h-10.5c.52-2.17,1.09-4.4,1.74-6.8.23-.71.47-1.48.71-2.3.21-.74.42-1.41.63-2.03l.06-.19.05-.19c.18-.72.41-1.46.69-2.22.37-.98.67-1.84.92-2.58.69-1.84,1.27-3.64,1.66-5.2.43-1.71.64-3.26.66-4.76.3-3.74-.95-7.03-3.64-9.53-2.55-2.37-5.77-3.57-9.57-3.57h0Z"/>
</svg>